<?xml version="1.0" encoding="utf-8"?>
<!-- Generator: Adobe Illustrator 25.4.1, SVG Export Plug-In . SVG Version: 6.00 Build 0)  -->
<svg version="1.1" id="Layer_1" xmlns="http://www.w3.org/2000/svg" xmlns:xlink="http://www.w3.org/1999/xlink" x="0px" y="0px"
	 viewBox="0 0 1080 720" style="enable-background:new 0 0 1080 720;" xml:space="preserve">
<style type="text/css">
	.st0{fill:#FFFFFF;}
	.st1{fill:#CF3339;}
	.st2{fill:#FFD100;}
	.st3{fill:none;stroke:#000000;stroke-width:3.5465;}
	.st4{fill:#FFFFFF;stroke:#000000;stroke-width:2.0266;}
</style>
<g>
	<g>
		<g id="XMLID_12_">
			<g>
				<path class="st0" d="M623.19,70.17c126.22,36.17,218.61,152.44,218.61,290.31c0,152.62-113.25,278.8-260.27,299.08v-0.06V487.36
					c15.3-5.03,29.37-12.73,41.67-22.58v48.88v45.29v44.32c100.84-34.59,173.31-130.25,173.31-242.8
					c0-112.58-72.47-208.23-173.31-242.83V70.17z"/>
				<path d="M623.19,117.65C724.03,152.24,796.5,247.9,796.5,360.47c0,112.56-72.47,208.21-173.31,242.8v-44.32
					c77.48-32.57,131.89-109.17,131.89-198.48s-54.41-165.94-131.89-198.5V117.65z"/>
				<path class="st1" d="M623.19,161.97c77.48,32.57,131.89,109.19,131.89,198.5s-54.41,165.92-131.89,198.48v-45.29
					c54.23-29.57,91.03-87.08,91.03-153.19c0-66.13-36.8-123.64-91.03-153.21V161.97z"/>
				<path class="st2" d="M623.19,207.26c54.23,29.57,91.03,87.08,91.03,153.21c0,66.11-36.8,123.62-91.03,153.19v-48.88
					c30.58-24.48,50.18-62.11,50.18-104.31c0-59.2-38.53-109.37-91.84-126.88V61.37c14.23,1.97,28.13,4.9,41.67,8.8v47.48v44.32
					V207.26z"/>
				<path class="st0" d="M581.52,487.36c-13.11,4.3-27.12,6.63-41.67,6.63c-14.55,0-28.57-2.33-41.69-6.65
					c-15.3-5.01-29.39-12.73-41.67-22.58c-30.58-24.46-50.16-62.09-50.16-104.29c0-59.2,38.48-109.37,91.82-126.86
					c13.11-4.32,27.14-6.65,41.69-6.65c14.55,0,28.55,2.33,41.67,6.63c53.32,17.51,91.84,67.69,91.84,126.88
					c0,42.19-19.6,79.83-50.18,104.31C610.88,474.63,596.82,482.33,581.52,487.36z"/>
				<path d="M581.52,659.5v0.06c-13.62,1.88-27.54,2.86-41.67,2.86v-0.06V493.99c14.55,0,28.55-2.33,41.67-6.63V659.5z"/>
				<path class="st1" d="M581.52,61.37v172.22c-13.11-4.3-27.12-6.63-41.67-6.63V58.51C553.98,58.51,567.9,59.49,581.52,61.37z"/>
				<path class="st1" d="M539.85,662.35v0.06c-14.15,0-28.07-0.97-41.69-2.86v-0.04V487.34c13.11,4.32,27.14,6.65,41.69,6.65V662.35
					z"/>
				<path d="M539.85,58.51v168.45c-14.55,0-28.57,2.33-41.69,6.65v-0.02V61.37C511.78,59.49,525.71,58.51,539.85,58.51z"/>
				<path class="st2" d="M498.17,659.52v0.04c-147.03-20.31-260.27-146.48-260.27-299.08c0-137.83,92.35-254.11,218.57-290.29
					l0.04,0.16v47.3C355.66,152.24,283.19,247.9,283.19,360.47s72.49,208.21,173.31,242.8v-44.32v-45.29v-48.9
					c12.28,9.85,26.37,17.57,41.67,22.58V659.52z"/>
				<path class="st0" d="M498.17,233.59v0.02c-53.34,17.49-91.82,67.67-91.82,126.86c0,42.19,19.58,79.83,50.16,104.29v48.9
					c-54.23-29.57-91.01-87.08-91.01-153.19c0-66.13,36.78-123.64,91.01-153.21v-45.29v-44.32v-47.3l-0.04-0.16
					c13.54-3.89,27.46-6.85,41.71-8.82V233.59z"/>
				<path class="st1" d="M456.5,558.96v44.32c-100.82-34.59-173.31-130.23-173.31-242.8s72.47-208.23,173.31-242.83v44.32
					c-77.48,32.57-131.87,109.19-131.87,198.5S379.02,526.39,456.5,558.96z"/>
				<path d="M456.5,513.66v45.29c-77.48-32.57-131.87-109.17-131.87-198.48s54.39-165.94,131.87-198.5v45.29
					c-54.23,29.57-91.01,87.08-91.01,153.21C365.49,426.58,402.27,484.1,456.5,513.66z"/>
			</g>
			<g>
			</g>
		</g>
		<path class="st3" d="M841.81,360.47c0,166.75-135.19,301.94-301.95,301.94c-166.76,0-301.95-135.19-301.95-301.94
			c0-166.77,135.19-301.96,301.95-301.96C706.62,58.52,841.81,193.7,841.81,360.47z"/>
		<path class="st3" d="M673.38,360.47c0,73.73-59.78,133.51-133.51,133.51c-73.74,0-133.51-59.78-133.51-133.51
			c0-73.74,59.77-133.51,133.51-133.51C613.6,226.96,673.38,286.73,673.38,360.47z"/>
	</g>
	<g>
		<path d="M452.85,303.42c0.71-0.44-2.78-1.09-1.88-1.37c0.93-0.18,6.16-0.14,6.99-0.3c7.04-1.41,10.82-2.53,13.9-3.04
			c3.43-0.58,10.29-1.14,10.29-1.14s7.43-5.15,14.31,0.57c6.85,5.72,6.85,0.58,6.85,0.58s10.88-5.73,17.18-0.58
			c6.29,5.16,8.01,2.3,8.01,2.3s9.74-8.58,18.3-1.15c8.58,7.43,6.86,2.29,6.86,2.29s9.72-9.72,20.04-4
			c10.28,5.73,4.58,2.29,4.58,2.29l1.72,2.86c0,0,2.86-10.86,18.29-4c3.88,1.72,4.01,1.72,4.01,1.72s12.01-3.44,29.75,6.28
			c17.73,9.73-4.02,0.57-4.02,0.57l10.32,12.02c0,0-13.75-6.87-2.87,3.43c10.88,10.3,11.44,14.87,11.44,14.87s-9.16-8-2.86,4.59
			c6.29,12.59-0.56,4-0.56,4s-2.89,1.15,1.13,9.16c4.02,8.01-0.57,6.87-0.57,6.87s-7.45-12.02-4-4.58c3.44,7.44,8.24,13.06,8,13.16
			c-0.24,0.1-4.13-1.35-4.56-1.15c-0.33,0.16-0.33,1.87-0.08,4.16c0.28,2.59,1.02,5.89,1.22,7.28c0.24,1.67-0.8-1.9-1.91-4.51
			c-1.73-4.07-4.64-8.24-4.97-4.07c-0.57,7.43-0.57,7.43-0.57,7.43s-8.63-17.63-6.85-9.15c1.38,6.56,0.99,6.36,0.99,6.36
			s-6.72-15.51-7.29-0.06c-0.57,15.44-4-17.17-5.72-6.29c-1.71,10.87-12.01-14.31-13.15-0.58c-1.14,13.74-2.28,4.58-2.28,4.58
			l-4.01-4.58l-8.59-1.71l-4.56,8.58l-3.44-9.73c0,0-3.43,1.71-2.86,6.87c0.59,5.15,1.16,8.02,1.16,8.02l-4.02-4.01l-1.14-6.86
			c0,0-2.29-6.3-2.85,1.71c-0.6,8.01-0.6,8.01-0.6,8.01l-10.28-10.3c0,0-1.14,2.85-1.71,7.44c-0.57,4.57-2.3-6.3-6.88-9.16
			c-4.58-2.85-2.57,9.14-2.86,12.59c-0.33,4.03-1.72-12.59-4.58-15.44c-2.86-2.86-1.71,5.15-1.14,7.43
			c0.57,2.29-2.86-3.43-4.58-5.72c-1.7-2.28-0.57,8.01-1.14,9.72c-0.56,1.72-4-8.58-4-8.58s-4.58-3.43-4.01,9.16
			c0.57,12.59-5.15-6.86-5.15-6.86s-1.52-8.97-3.43,5.72c-0.63,4.78-2.29-5.72-2.29-5.72s-4.58,9.15-7.45,7.43
			c0,0,2.29-8.01-1.14-10.87c-3.43-2.86-1.72,8.01-1.72,8.01l-2.3-5.14c0,0-2.29,9.15-2.29,10.87c0,1.71-5.72-14.3-7.43-14.3
			c-1.7,0-2.85,9.73-2.85,9.73l-7.45-7.44c0,0-8.06-2.08-10.29,6.87c-0.57,2.29-4.58-2.87-4.58-2.87l-7.43,0.58
			c0,0-5.07,3.45-5.72,8.02c-0.38,2.66-2.68-4.97,0.57-8.59c4.87-5.46-2.86-7.35-7.05,0c-0.78,1.34-2.68-5.14-2.68-5.14
			s-6.48,8-7.45,13.73c-0.71,4.36,0.59-16.6,0.59-16.6s-3.17-1.58-7.44,3.05c-2.3,2.48-6.88,8.21-6.88,8.21s1.39-12.18,12.01-15.83
			c6.11-2.11-3.24-9.35-6.67-5.91c-3.43,3.43-9.91,6.49-9.91,6.49s10.88-16.02,13.16-18.88c2.29-2.86,16.02-14.3,16.02-14.3
			s-11.45-1.14-14.88,3.43c-1.89,2.54-4.67,6.57-6.78,8.65c-1.69,1.67-2.96,1.65-2.96,1.65s2.32-7.6,8.78-14.21
			c3.73-3.81,9.61-6.52,15.25-9.24c15.45-7.45-5.02,0.26-7.64,0.99c-2.61,0.73,7.46-7.84,7.46-7.84s-5.12-2.21-11.99,5.23
			c-3.64,3.95-1.81-0.84,1.81-5.12c3.19-3.76,7.98-6.88,7.98-6.88S451.5,304.25,452.85,303.42z"/>
		<rect x="475.3" y="286.71" class="st4" width="7.44" height="42.33"/>
		<rect x="499.33" y="286.71" class="st4" width="7.43" height="42.33"/>
		<rect x="523.35" y="286.71" class="st4" width="7.43" height="42.33"/>
		<rect x="547.38" y="286.71" class="st4" width="7.45" height="42.33"/>
		<rect x="571.41" y="286.71" class="st4" width="7.43" height="42.33"/>
		<rect x="595.43" y="286.71" class="st4" width="7.43" height="42.33"/>
		<rect x="499.6" y="388.99" width="79.78" height="6.42"/>
		<path d="M447.82,413.51c0,0,14.7-3.31,16.02-1.52c0.87,1.18,6.14,2.18,6.66,1.52c1.15-1.51,7.83-0.75,7.83-0.75
			s3.43-1.53,6.86-0.77c3.43,0.77,12.59,0.77,12.59,0.77l8.01-0.77h4.57h57.97l6.5,1.52l14.86-0.75l7.63,1.14l6.48-1.14
			c0,0,6.48,0.75,8.01,1.52c1.52,0.76,7.26,0.38,7.26,0.38s10.66-1.53,11.81,0c1.16,1.53-1.14,1.13-1.14,1.13l-15.63,1.16
			c0,0-8.01-1.53-8.01-0.39c0,1.14,2.67,3.04,2.67,3.04s-10.67-0.76-11.43,1.91c-0.76,2.68-9.15,0-10.68,1.53
			c-1.54,1.52-11.07,5.34-15.27,4.2c-4.2-1.15-6.1,2.66-3.04,3.8c3.04,1.15,7.25,0.38,7.25,0.38s-14.49,3.43-19.08,1.52
			c-4.57-1.91-16.01-5.71-19.06-2.29c-3.05,3.43-17.92,4.2-21.75,3.05c-3.8-1.14,3.44-2.67-3.8-2.67c-7.26,0-17.56-2.28-17.56-2.28
			s-1.91-5.34-8.77-2.3c-6.86,3.06-9.15,0.78-9.15,0.78s-3.43-2.29-5.34-1.91c-1.91,0.38-9.15-0.76-10.29-1.53
			c-1.14-0.76-0.39-3.05,2.67-2.29c3.05,0.76,7.24,0.76,8.77-0.76c1.52-1.52,1.52-3.81-0.76-3.43c-2.29,0.37-11.45-1.14-12.58-1.54
			C457.75,415.42,447.82,413.51,447.82,413.51z"/>
		<path d="M600.77,424.58c0,0,7.62,0.76,8.77-0.38c1.14-1.14-3.05-1.53-4.19-1.53c-1.14,0-3.43-0.77-4.2,0.77"/>
		<path d="M616.4,420c0,0,4.19,0,3.81-1.15c-0.38-1.14-4.19-1.9-4.58-0.38C615.25,420,616.4,420,616.4,420z"/>
		<path d="M443.63,327.32c0,0-4.58,13.35-4.58,16.4c0,3.06,3.43-2.29,3.43-2.29s4.96-13.73,6.1-14.87"/>
		<path d="M437.53,351.35l-2.29,15.64l3.81-1.53c0,0,1.89-12.59,3.43-13.73"/>
		<polygon points="463.28,365.08 463.28,414.29 464.99,414.85 464.99,365.65 		"/>
		<rect x="470.14" y="369.08" width="3.43" height="46.92"/>
		<path d="M464.75,397.12c0,0,2.11,0.7,3.11,1.61c1.01,0.91,3.02,3.83,3.02,3.83v-33.47h-8.05"/>
		<polyline points="490.73,414.85 490.73,367.94 478.72,367.94 478.72,414.85 		"/>
		<path class="st0" d="M481.58,413.14v-6.3c0,0,2.83-7.05,5.15,0.57c1.47,4.83,0.48,6.08,0.48,6.08L481.58,413.14z"/>
		<polyline points="506.98,394.43 504.61,414.72 507.72,414.91 509.54,413.81 514.29,394.07 		"/>
		<polyline points="564.73,393.89 569.48,417.46 574.6,417.28 571.85,394.43 		"/>
		<polygon points="588.95,368.14 588.95,416.96 599.24,417.71 600,368.52 595.81,362.41 		"/>
		<polygon points="604.58,361.65 604.96,415.42 616.4,416.2 616.4,367.76 		"/>
		<path class="st0" d="M592,397.12c0,0,4.57,0.76,4.57,3.43c0,2.67,0,10.3,0,10.3s-0.76,3.82-2.29,1.92
			c-1.52-1.92-3.06-3.45-3.06-3.45L592,397.12z"/>
		<path class="st0" d="M607.25,404.75c0,0,0.76-4.97,2.67-1.9c1.9,3.05,2.67,1.9,2.67,5.33c0,3.44-0.76,6.12-0.76,6.12l-4.58-1.52
			V404.75z"/>
	</g>
</g>
</svg>
