<?xml version="1.0" encoding="utf-8"?>
<!-- Generator: Adobe Illustrator 25.1.0, SVG Export Plug-In . SVG Version: 6.00 Build 0)  -->
<svg version="1.1" id="Miccosukee_Emblem" xmlns="http://www.w3.org/2000/svg" xmlns:xlink="http://www.w3.org/1999/xlink" x="0px"
	 y="0px" viewBox="0 0 320 322" style="enable-background:new 0 0 320 322;" xml:space="preserve">
<style type="text/css">
	.st0{fill:#FFFFFF;}
	.st1{fill:#E31B23;}
	.st2{fill:#FFDD00;}
	.st3{fill:none;stroke:#000000;stroke-width:1.75;}
	.st4{fill:#FFFFFF;stroke:#000000;}
</style>
<g>
	<g>
		<g>
			<g id="XMLID_2_">
				<g>
					<path class="st0" d="M201.49,17.12c62.28,17.85,107.87,75.22,107.87,143.25c0,75.31-55.88,137.57-128.43,147.58v-0.03v-84.94
						c7.55-2.48,14.49-6.28,20.56-11.14v24.12v22.35v21.87c49.76-17.07,85.52-64.27,85.52-119.81c0-55.55-35.76-102.75-85.52-119.82
						V17.12z"/>
					<path d="M201.49,40.55c49.76,17.07,85.52,64.27,85.52,119.82c0,55.54-35.76,102.74-85.52,119.81v-21.87
						c38.23-16.07,65.08-53.87,65.08-97.94s-26.85-81.88-65.08-97.95V40.55z"/>
					<path class="st1" d="M201.49,62.42c38.23,16.07,65.08,53.88,65.08,97.95s-26.85,81.87-65.08,97.94v-22.35
						c26.76-14.59,44.92-42.97,44.92-75.59c0-32.63-18.16-61.01-44.92-75.6V62.42z"/>
					<path class="st2" d="M201.49,84.77c26.76,14.59,44.92,42.97,44.92,75.6c0,32.62-18.16,61-44.92,75.59v-24.12
						c15.09-12.08,24.76-30.65,24.76-51.47c0-29.21-19.01-53.97-45.32-62.61V12.78c7.02,0.97,13.88,2.42,20.56,4.34v23.43v21.87
						V84.77z"/>
					<path class="st0" d="M180.93,222.98c-6.47,2.12-13.38,3.27-20.56,3.27c-7.18,0-14.1-1.15-20.57-3.28
						c-7.55-2.47-14.5-6.28-20.56-11.14c-15.09-12.07-24.75-30.64-24.75-51.46c0-29.21,18.99-53.97,45.31-62.6
						c6.47-2.13,13.39-3.28,20.57-3.28c7.18,0,14.09,1.15,20.56,3.27c26.31,8.64,45.32,33.4,45.32,62.61
						c0,20.82-9.67,39.39-24.76,51.47C195.42,216.7,188.48,220.5,180.93,222.98z"/>
					<path d="M180.93,307.92v0.03c-6.72,0.93-13.59,1.41-20.56,1.41v-0.03v-83.08c7.18,0,14.09-1.15,20.56-3.27V307.92z"/>
					<path class="st1" d="M180.93,12.78v84.98c-6.47-2.12-13.38-3.27-20.56-3.27V11.37C167.34,11.37,174.21,11.85,180.93,12.78z"/>
					<path class="st1" d="M160.37,309.33v0.03c-6.98,0-13.85-0.48-20.57-1.41v-0.02v-84.96c6.47,2.13,13.39,3.28,20.57,3.28V309.33z
						"/>
					<path d="M160.37,11.37v83.12c-7.18,0-14.1,1.15-20.57,3.28v-0.01V12.78C146.52,11.85,153.39,11.37,160.37,11.37z"/>
					<path class="st2" d="M139.8,307.93v0.02C67.25,297.93,11.37,235.67,11.37,160.37c0-68.01,45.57-125.39,107.85-143.24l0.02,0.08
						v23.34c-49.76,17.07-85.52,64.27-85.52,119.82c0,55.55,35.77,102.74,85.52,119.81v-21.87v-22.35v-24.13
						c6.06,4.86,13.01,8.67,20.56,11.14V307.93z"/>
					<path class="st0" d="M139.8,97.76v0.01c-26.32,8.63-45.31,33.39-45.31,62.6c0,20.82,9.66,39.39,24.75,51.46v24.13
						c-26.76-14.59-44.91-42.97-44.91-75.59c0-32.63,18.15-61.01,44.91-75.6V62.42V40.55V17.21l-0.02-0.08
						c6.68-1.92,13.55-3.38,20.58-4.35V97.76z"/>
					<path class="st1" d="M119.24,258.31v21.87c-49.75-17.07-85.52-64.26-85.52-119.81c0-55.55,35.76-102.75,85.52-119.82v21.87
						c-38.23,16.07-65.07,53.88-65.07,97.95S81.01,242.24,119.24,258.31z"/>
					<path d="M119.24,235.96v22.35c-38.23-16.07-65.07-53.87-65.07-97.94s26.84-81.88,65.07-97.95v22.35
						c-26.76,14.59-44.91,42.97-44.91,75.6C74.33,192.99,92.48,221.37,119.24,235.96z"/>
				</g>
			</g>
			<path class="st3" d="M309.37,160.37c0,82.28-66.71,148.99-148.99,148.99c-82.29,0-148.99-66.71-148.99-148.99
				c0-82.29,66.71-149,148.99-149C242.66,11.37,309.37,78.08,309.37,160.37z"/>
			<path class="st3" d="M226.26,160.37c0,36.38-29.5,65.88-65.88,65.88c-36.38,0-65.88-29.5-65.88-65.88
				c0-36.39,29.5-65.88,65.88-65.88C196.76,94.49,226.26,123.98,226.26,160.37z"/>
		</g>
		<g>
			<path d="M117.44,132.22c0.35-0.22-1.37-0.54-0.93-0.67c0.46-0.09,3.04-0.07,3.45-0.15c3.47-0.7,5.34-1.25,6.86-1.5
				c1.69-0.29,5.08-0.56,5.08-0.56s3.67-2.54,7.06,0.28c3.38,2.82,3.38,0.29,3.38,0.29s5.37-2.83,8.48-0.29
				c3.11,2.55,3.95,1.13,3.95,1.13s4.8-4.24,9.03-0.57c4.23,3.67,3.39,1.13,3.39,1.13s4.8-4.8,9.89-1.98
				c5.07,2.83,2.26,1.13,2.26,1.13l0.85,1.41c0,0,1.41-5.36,9.03-1.97c1.91,0.85,1.98,0.85,1.98,0.85s5.93-1.7,14.68,3.1
				c8.75,4.8-1.98,0.28-1.98,0.28l5.09,5.93c0,0-6.78-3.39-1.42,1.69c5.37,5.08,5.64,7.34,5.64,7.34s-4.52-3.95-1.41,2.26
				c3.1,6.21-0.28,1.98-0.28,1.98s-1.42,0.57,0.56,4.52c1.98,3.95-0.28,3.39-0.28,3.39s-3.67-5.93-1.97-2.26
				c1.7,3.67,4.07,6.44,3.95,6.49c-0.12,0.05-2.04-0.67-2.25-0.57c-0.17,0.08-0.17,0.92-0.04,2.05c0.14,1.28,0.5,2.91,0.6,3.59
				c0.12,0.83-0.39-0.94-0.94-2.22c-0.86-2.01-2.29-4.07-2.45-2.01c-0.28,3.67-0.28,3.67-0.28,3.67s-4.26-8.7-3.38-4.52
				c0.68,3.24,0.49,3.14,0.49,3.14s-3.31-7.65-3.6-0.03c-0.28,7.62-1.97-8.47-2.82-3.11c-0.85,5.36-5.93-7.06-6.49-0.29
				c-0.56,6.78-1.13,2.26-1.13,2.26l-1.98-2.26l-4.24-0.84l-2.25,4.23l-1.7-4.8c0,0-1.69,0.85-1.41,3.39
				c0.29,2.54,0.57,3.96,0.57,3.96l-1.98-1.98l-0.56-3.39c0,0-1.13-3.11-1.4,0.84c-0.29,3.95-0.29,3.95-0.29,3.95l-5.07-5.08
				c0,0-0.56,1.41-0.85,3.67c-0.28,2.26-1.14-3.11-3.39-4.52c-2.26-1.41-1.27,4.51-1.41,6.21c-0.16,1.99-0.85-6.21-2.26-7.62
				c-1.41-1.41-0.85,2.54-0.56,3.66c0.28,1.13-1.41-1.69-2.26-2.82c-0.84-1.13-0.28,3.95-0.56,4.8c-0.28,0.85-1.97-4.23-1.97-4.23
				s-2.26-1.69-1.98,4.52c0.28,6.21-2.54-3.39-2.54-3.39s-0.75-4.42-1.69,2.82c-0.31,2.36-1.13-2.82-1.13-2.82s-2.26,4.51-3.68,3.67
				c0,0,1.13-3.95-0.56-5.37c-1.69-1.41-0.85,3.95-0.85,3.95l-1.13-2.54c0,0-1.13,4.52-1.13,5.36c0,0.85-2.82-7.06-3.67-7.06
				c-0.84,0-1.4,4.8-1.4,4.8l-3.67-3.67c0,0-3.98-1.03-5.08,3.39c-0.28,1.13-2.26-1.41-2.26-1.41l-3.67,0.29c0,0-2.5,1.7-2.82,3.96
				c-0.19,1.31-1.32-2.45,0.28-4.24c2.41-2.7-1.41-3.62-3.48,0c-0.38,0.66-1.32-2.54-1.32-2.54s-3.2,3.95-3.67,6.78
				c-0.35,2.15,0.29-8.19,0.29-8.19s-1.57-0.78-3.67,1.5c-1.13,1.22-3.39,4.05-3.39,4.05s0.69-6.01,5.93-7.81
				c3.02-1.04-1.6-4.61-3.29-2.92c-1.69,1.69-4.89,3.2-4.89,3.2s5.37-7.91,6.5-9.32c1.13-1.41,7.91-7.06,7.91-7.06
				s-5.65-0.56-7.34,1.69c-0.93,1.25-2.3,3.24-3.34,4.27c-0.83,0.82-1.46,0.82-1.46,0.82s1.14-3.75,4.33-7.01
				c1.84-1.88,4.74-3.22,7.53-4.56c7.62-3.67-2.48,0.13-3.77,0.49c-1.29,0.36,3.68-3.87,3.68-3.87s-2.53-1.09-5.92,2.58
				c-1.79,1.95-0.89-0.41,0.89-2.53c1.57-1.86,3.94-3.39,3.94-3.39S116.77,132.62,117.44,132.22z"/>
			<rect x="128.52" y="123.97" class="st4" width="3.67" height="20.89"/>
			<rect x="140.38" y="123.97" class="st4" width="3.67" height="20.89"/>
			<rect x="152.23" y="123.97" class="st4" width="3.67" height="20.89"/>
			<rect x="164.09" y="123.97" class="st4" width="3.68" height="20.89"/>
			<rect x="175.94" y="123.97" class="st4" width="3.67" height="20.89"/>
			<rect x="187.8" y="123.97" class="st4" width="3.67" height="20.89"/>
			<rect x="140.51" y="174.44" width="39.37" height="3.17"/>
			<path d="M114.96,186.54c0,0,7.26-1.63,7.91-0.75c0.43,0.58,3.03,1.08,3.29,0.75c0.57-0.75,3.86-0.37,3.86-0.37
				s1.69-0.76,3.39-0.38c1.69,0.38,6.21,0.38,6.21,0.38l3.95-0.38h2.26h28.61l3.21,0.75l7.33-0.37l3.76,0.56l3.2-0.56
				c0,0,3.2,0.37,3.95,0.75c0.75,0.37,3.58,0.19,3.58,0.19s5.26-0.76,5.83,0c0.57,0.75-0.56,0.56-0.56,0.56l-7.71,0.57
				c0,0-3.95-0.76-3.95-0.19c0,0.56,1.32,1.5,1.32,1.5s-5.27-0.37-5.64,0.94c-0.38,1.32-4.52,0-5.27,0.76
				c-0.76,0.75-5.46,2.64-7.54,2.07c-2.07-0.57-3.01,1.31-1.5,1.88c1.5,0.57,3.58,0.19,3.58,0.19s-7.15,1.69-9.41,0.75
				c-2.26-0.94-7.9-2.82-9.4-1.13c-1.51,1.69-8.84,2.07-10.73,1.51c-1.88-0.56,1.7-1.32-1.88-1.32c-3.58,0-8.67-1.13-8.67-1.13
				s-0.94-2.63-4.33-1.13c-3.39,1.51-4.51,0.38-4.51,0.38s-1.69-1.13-2.63-0.94c-0.94,0.19-4.51-0.38-5.08-0.75
				c-0.56-0.38-0.19-1.5,1.32-1.13c1.51,0.38,3.57,0.38,4.33-0.37c0.75-0.75,0.75-1.88-0.38-1.69c-1.13,0.18-5.65-0.56-6.21-0.76
				C119.86,187.48,114.96,186.54,114.96,186.54z"/>
			<path d="M190.43,192c0,0,3.76,0.38,4.33-0.19c0.56-0.56-1.51-0.76-2.07-0.76c-0.56,0-1.69-0.38-2.07,0.38"/>
			<path d="M198.14,189.74c0,0,2.07,0,1.88-0.57c-0.19-0.56-2.07-0.94-2.26-0.19C197.58,189.74,198.14,189.74,198.14,189.74z"/>
			<path d="M112.89,144.01c0,0-2.26,6.59-2.26,8.09c0,1.51,1.69-1.13,1.69-1.13s2.45-6.77,3.01-7.34"/>
			<path d="M109.88,155.87l-1.13,7.72l1.88-0.76c0,0,0.93-6.21,1.69-6.77"/>
			<polygon points="122.58,162.64 122.58,186.92 123.43,187.2 123.43,162.92 			"/>
			<rect x="125.97" y="164.62" width="1.69" height="23.15"/>
			<path d="M123.31,178.45c0,0,1.04,0.35,1.53,0.79c0.5,0.45,1.49,1.89,1.49,1.89v-16.52h-3.97"/>
			<polyline points="136.13,187.2 136.13,164.05 130.2,164.05 130.2,187.2 			"/>
			<path class="st0" d="M131.62,186.35v-3.11c0,0,1.4-3.48,2.54,0.28c0.73,2.38,0.23,3,0.23,3L131.62,186.35z"/>
			<polyline points="144.15,177.12 142.98,187.14 144.51,187.23 145.41,186.69 147.76,176.95 			"/>
			<polyline points="172.65,176.86 174.99,188.49 177.51,188.4 176.16,177.12 			"/>
			<polygon points="184.6,164.15 184.6,188.24 189.68,188.61 190.05,164.34 187.98,161.32 			"/>
			<polygon points="192.31,160.95 192.5,187.48 198.14,187.86 198.14,163.96 			"/>
			<path class="st0" d="M186.1,178.45c0,0,2.26,0.38,2.26,1.69c0,1.32,0,5.08,0,5.08s-0.38,1.88-1.13,0.95
				c-0.75-0.95-1.51-1.7-1.51-1.7L186.1,178.45z"/>
			<path class="st0" d="M193.63,182.21c0,0,0.38-2.45,1.32-0.94c0.94,1.5,1.32,0.94,1.32,2.63c0,1.7-0.38,3.02-0.38,3.02l-2.26-0.75
				V182.21z"/>
		</g>
	</g>
</g>
</svg>
