<?xml version="1.0" encoding="utf-8"?>
<!-- Generator: Adobe Illustrator 25.2.1, SVG Export Plug-In . SVG Version: 6.00 Build 0)  -->
<svg version="1.1" xmlns="http://www.w3.org/2000/svg" xmlns:xlink="http://www.w3.org/1999/xlink" x="0px" y="0px"
	 viewBox="0 0 576 158.4" style="enable-background:new 0 0 576 158.4;" xml:space="preserve">
<style type="text/css">
	.st0{display:none;}
	.st1{display:inline;}
	.st2{clip-path:url(#SVGID_2_);}
	.st3{clip-path:url(#SVGID_4_);fill:#FFFFFF;}
	.st4{clip-path:url(#SVGID_4_);}
	.st5{clip-path:url(#SVGID_4_);fill:#E31B23;}
	.st6{clip-path:url(#SVGID_4_);fill:#FFDD00;}
	.st7{fill:none;stroke:#000000;stroke-width:0.841;}
	.st8{fill:#FFFFFF;}
	.st9{fill:none;stroke:#000000;stroke-width:0.481;}
	.st10{clip-path:url(#SVGID_6_);}
	.st11{clip-path:url(#SVGID_8_);fill:#FFFFFF;}
	.st12{clip-path:url(#SVGID_8_);}
	.st13{clip-path:url(#SVGID_8_);fill:#E31B23;}
	.st14{clip-path:url(#SVGID_8_);fill:#FFDD00;}
	.st15{fill:#E31B23;}
	.st16{fill:#FFDD00;}
	.st17{fill:none;stroke:#000000;stroke-width:0.8414;}
	.st18{fill:#FFFFFF;stroke:#000000;stroke-width:0.4808;}
	.st19{clip-path:url(#SVGID_10_);}
	.st20{clip-path:url(#SVGID_12_);fill:#FFFFFF;}
	.st21{clip-path:url(#SVGID_12_);}
	.st22{clip-path:url(#SVGID_12_);fill:#E31B23;}
	.st23{clip-path:url(#SVGID_12_);fill:#FFDD00;}
</style>
<g id="Layer_1" class="st0">
	<g class="st1">
		<g>
			<defs>
				<rect id="SVGID_1_" x="6.67" y="7.56" width="143.28" height="143.28"/>
			</defs>
			<clipPath id="SVGID_2_">
				<use xlink:href="#SVGID_1_"  style="overflow:visible;"/>
			</clipPath>
			<g class="st2">
				<defs>
					<rect id="SVGID_3_" x="6.67" y="7.56" width="143.28" height="143.28"/>
				</defs>
				<clipPath id="SVGID_4_">
					<use xlink:href="#SVGID_3_"  style="overflow:visible;"/>
				</clipPath>
				<path class="st3" d="M98.08,10.33c29.94,8.58,51.87,36.17,51.87,68.88c0,36.21-26.87,66.15-61.75,70.96v-0.01v-40.84
					c3.63-1.19,6.97-3.02,9.89-5.36v11.6v10.75v10.51c23.92-8.2,41.12-30.9,41.12-57.6c0-26.71-17.2-49.4-41.12-57.61V10.33z"/>
				<path class="st4" d="M98.08,21.59C122,29.8,139.2,52.49,139.2,79.2c0,26.71-17.2,49.4-41.12,57.6V126.3
					c18.38-7.73,31.29-25.9,31.29-47.09c0-21.19-12.91-39.37-31.29-47.1V21.59z"/>
				<path class="st5" d="M98.08,32.11c18.38,7.73,31.29,25.91,31.29,47.1c0,21.19-12.91,39.36-31.29,47.09v-10.75
					c12.87-7.02,21.6-20.66,21.6-36.34c0-15.69-8.73-29.33-21.6-36.35V32.11z"/>
				<path class="st6" d="M98.08,42.85c12.87,7.02,21.6,20.67,21.6,36.35c0,15.69-8.73,29.33-21.6,36.35v-11.6
					c7.25-5.8,11.9-14.73,11.9-24.74c0-14.04-9.14-25.95-21.79-30.1v0V8.24c3.38,0.47,6.67,1.16,9.89,2.09v11.27v10.51V42.85z"/>
				<path class="st3" d="M68.42,109.3c-3.63-1.19-6.97-3.02-9.89-5.36c-7.26-5.8-11.9-14.73-11.9-24.74
					c0-14.04,9.14-25.95,21.79-30.1c3.11-1.02,6.43-1.58,9.89-1.58c3.45,0,6.77,0.55,9.88,1.57c12.65,4.16,21.79,16.06,21.79,30.1
					c0,10.01-4.65,18.94-11.9,24.74c-2.92,2.34-6.25,4.17-9.89,5.36c-3.11,1.02-6.43,1.57-9.88,1.57
					C74.85,110.88,71.53,110.33,68.42,109.3"/>
				<path class="st4" d="M88.19,150.15v0.01c-3.23,0.45-6.53,0.68-9.89,0.68v-0.01v-39.95c3.45,0,6.77-0.55,9.89-1.57V150.15z"/>
				<path class="st5" d="M88.19,49.09L88.19,49.09c-3.11-1.02-6.43-1.57-9.89-1.57V7.56c3.35,0,6.65,0.23,9.89,0.68V49.09z"/>
				<path class="st5" d="M78.31,150.83v0.01c-3.36,0-6.65-0.23-9.89-0.68v-0.01V109.3c3.11,1.02,6.43,1.58,9.89,1.58V150.83z"/>
				<path class="st4" d="M78.31,7.56v39.97c-3.45,0-6.77,0.55-9.89,1.58l0-0.01V8.24C71.65,7.79,74.95,7.56,78.31,7.56"/>
				<path class="st3" d="M68.42,49.09L68.42,49.09C55.77,53.25,46.63,65.16,46.63,79.2c0,10.01,4.65,18.94,11.9,24.74v11.6
					c-12.87-7.02-21.59-20.66-21.59-36.35c0-15.69,8.73-29.33,21.59-36.35V32.11V21.59V10.37l-0.01-0.04
					c3.21-0.92,6.52-1.62,9.9-2.09V49.09z"/>
				<path class="st6" d="M68.42,150.15v0.01C33.53,145.35,6.67,115.41,6.67,79.2c0-32.7,21.91-60.29,51.86-68.87l0.01,0.04v11.22
					C34.61,29.8,17.41,52.49,17.41,79.2c0,26.71,17.2,49.4,41.12,57.6v-10.51v-10.75v-11.6c2.92,2.34,6.26,4.17,9.89,5.36V150.15z"
					/>
				<path class="st5" d="M58.53,126.3v10.51c-23.92-8.2-41.12-30.89-41.12-57.6c0-26.71,17.2-49.4,41.12-57.61v10.52
					c-18.38,7.73-31.29,25.91-31.29,47.1C27.24,100.39,40.15,118.57,58.53,126.3"/>
				<path class="st4" d="M58.53,115.55v10.75c-18.38-7.73-31.29-25.9-31.29-47.09c0-21.19,12.91-39.37,31.29-47.1v10.74
					C45.66,49.87,36.94,63.51,36.94,79.2C36.94,94.89,45.66,108.53,58.53,115.55"/>
			</g>
		</g>
		<path class="st7" d="M149.95,79.2c0,39.56-32.08,71.64-71.64,71.64c-39.56,0-71.64-32.07-71.64-71.64
			c0-39.57,32.07-71.64,71.64-71.64C117.87,7.56,149.95,39.63,149.95,79.2z"/>
		<path class="st7" d="M109.99,79.2c0,17.49-14.18,31.67-31.68,31.67c-17.49,0-31.67-14.18-31.67-31.67
			c0-17.5,14.18-31.68,31.67-31.68C95.8,47.52,109.99,61.7,109.99,79.2z"/>
		<path d="M57.66,65.66c0.17-0.11-0.66-0.26-0.45-0.33c0.22-0.04,1.46-0.03,1.66-0.07c1.67-0.33,2.57-0.6,3.3-0.72
			c0.81-0.14,2.44-0.27,2.44-0.27s1.76-1.22,3.4,0.13c1.62,1.36,1.62,0.14,1.62,0.14s2.58-1.36,4.08-0.14
			c1.49,1.22,1.9,0.54,1.9,0.54s2.31-2.04,4.34-0.27c2.04,1.76,1.63,0.54,1.63,0.54s2.31-2.31,4.75-0.95
			c2.44,1.36,1.09,0.54,1.09,0.54l0.41,0.68c0,0,0.68-2.58,4.34-0.95c0.92,0.41,0.95,0.41,0.95,0.41s2.85-0.82,7.06,1.49
			c4.21,2.31-0.95,0.13-0.95,0.13l2.45,2.85c0,0-3.26-1.63-0.68,0.81c2.58,2.44,2.71,3.53,2.71,3.53s-2.17-1.9-0.68,1.09
			c1.49,2.99-0.13,0.95-0.13,0.95s-0.68,0.27,0.27,2.17c0.95,1.9-0.14,1.63-0.14,1.63s-1.77-2.85-0.95-1.09
			c0.82,1.76,1.96,3.1,1.9,3.12c-0.05,0.02-0.98-0.32-1.08-0.27c-0.08,0.04-0.08,0.44-0.02,0.99c0.07,0.61,0.24,1.4,0.29,1.73
			c0.06,0.4-0.19-0.45-0.45-1.07c-0.41-0.96-1.1-1.95-1.18-0.96l-0.14,1.76c0,0-2.04-4.18-1.62-2.17c0.33,1.56,0.23,1.51,0.23,1.51
			s-1.59-3.68-1.73-0.02c-0.13,3.67-0.95-4.07-1.36-1.49c-0.41,2.58-2.85-3.4-3.12-0.14c-0.27,3.26-0.54,1.09-0.54,1.09l-0.95-1.09
			l-2.04-0.41l-1.08,2.03l-0.82-2.31c0,0-0.81,0.41-0.68,1.63c0.14,1.22,0.27,1.9,0.27,1.9l-0.95-0.95l-0.27-1.63
			c0,0-0.54-1.5-0.67,0.41l-0.14,1.9l-2.44-2.44c0,0-0.27,0.68-0.41,1.76c-0.14,1.08-0.55-1.5-1.63-2.17
			c-1.09-0.68-0.61,2.17-0.68,2.99c-0.08,0.96-0.41-2.99-1.08-3.66c-0.68-0.68-0.41,1.22-0.27,1.76c0.13,0.54-0.68-0.81-1.09-1.36
			c-0.4-0.54-0.14,1.9-0.27,2.31c-0.13,0.41-0.95-2.04-0.95-2.04s-1.09-0.81-0.95,2.17c0.14,2.99-1.22-1.63-1.22-1.63
			s-0.36-2.13-0.81,1.36c-0.15,1.13-0.54-1.36-0.54-1.36s-1.09,2.17-1.77,1.76c0,0,0.54-1.9-0.27-2.58c-0.81-0.68-0.41,1.9-0.41,1.9
			l-0.54-1.22c0,0-0.54,2.17-0.54,2.58c0,0.41-1.36-3.39-1.76-3.39c-0.4,0-0.68,2.31-0.68,2.31l-1.77-1.77c0,0-1.91-0.49-2.44,1.63
			c-0.14,0.54-1.08-0.68-1.08-0.68l-1.76,0.14c0,0-1.2,0.82-1.36,1.9c-0.09,0.63-0.64-1.18,0.14-2.04c1.16-1.3-0.68-1.74-1.68,0
			c-0.18,0.32-0.63-1.22-0.63-1.22s-1.54,1.9-1.77,3.26c-0.17,1.04,0.14-3.94,0.14-3.94s-0.75-0.37-1.77,0.72
			c-0.54,0.59-1.63,1.95-1.63,1.95s0.33-2.89,2.85-3.75c1.45-0.5-0.77-2.22-1.58-1.4c-0.81,0.81-2.35,1.54-2.35,1.54
			s2.58-3.8,3.12-4.48c0.54-0.68,3.8-3.39,3.8-3.39s-2.72-0.27-3.53,0.81c-0.45,0.6-1.11,1.56-1.61,2.05c-0.4,0.4-0.7,0.39-0.7,0.39
			s0.55-1.81,2.08-3.37c0.88-0.9,2.28-1.55,3.62-2.19c3.67-1.77-1.19,0.06-1.81,0.23c-0.62,0.17,1.77-1.86,1.77-1.86
			s-1.21-0.52-2.84,1.24c-0.86,0.94-0.43-0.2,0.43-1.21c0.76-0.89,1.89-1.63,1.89-1.63S57.34,65.86,57.66,65.66"/>
		<rect x="62.99" y="61.7" class="st8" width="1.76" height="10.04"/>
		<rect x="62.99" y="61.7" class="st9" width="1.76" height="10.04"/>
		<rect x="68.69" y="61.7" class="st8" width="1.76" height="10.04"/>
		<rect x="68.69" y="61.7" class="st9" width="1.76" height="10.04"/>
		<rect x="74.39" y="61.7" class="st8" width="1.77" height="10.04"/>
		<rect x="74.39" y="61.7" class="st9" width="1.77" height="10.04"/>
		<rect x="80.09" y="61.7" class="st8" width="1.77" height="10.04"/>
		<rect x="80.09" y="61.7" class="st9" width="1.77" height="10.04"/>
		<rect x="85.79" y="61.7" class="st8" width="1.77" height="10.04"/>
		<rect x="85.79" y="61.7" class="st9" width="1.77" height="10.04"/>
		<rect x="91.49" y="61.7" class="st8" width="1.76" height="10.04"/>
		<rect x="91.49" y="61.7" class="st9" width="1.76" height="10.04"/>
		<rect x="68.75" y="85.96" width="18.93" height="1.52"/>
		<path d="M56.47,91.78c0,0,3.49-0.79,3.8-0.36c0.21,0.28,1.46,0.52,1.58,0.36c0.27-0.36,1.86-0.18,1.86-0.18s0.81-0.36,1.63-0.18
			c0.81,0.18,2.99,0.18,2.99,0.18l1.9-0.18h1.09h13.75l1.54,0.36l3.53-0.18l1.81,0.27l1.54-0.27c0,0,1.54,0.18,1.9,0.36
			c0.36,0.18,1.72,0.09,1.72,0.09s2.53-0.36,2.8,0c0.27,0.36-0.27,0.27-0.27,0.27l-3.71,0.27c0,0-1.9-0.36-1.9-0.09
			c0,0.27,0.63,0.72,0.63,0.72s-2.53-0.18-2.71,0.45c-0.18,0.64-2.17,0-2.53,0.36c-0.37,0.36-2.63,1.27-3.62,1
			c-1-0.27-1.45,0.63-0.72,0.9c0.72,0.27,1.72,0.09,1.72,0.09s-3.44,0.81-4.53,0.36c-1.08-0.45-3.8-1.36-4.52-0.54
			c-0.72,0.81-4.25,0.99-5.16,0.72c-0.9-0.27,0.82-0.63-0.9-0.63c-1.72,0-4.17-0.54-4.17-0.54s-0.45-1.27-2.08-0.54
			c-1.63,0.73-2.17,0.18-2.17,0.18s-0.81-0.54-1.27-0.45c-0.45,0.09-2.17-0.18-2.44-0.36c-0.27-0.18-0.09-0.72,0.63-0.54
			c0.72,0.18,1.72,0.18,2.08-0.18c0.36-0.36,0.36-0.91-0.18-0.81c-0.54,0.09-2.72-0.27-2.98-0.37
			C58.82,92.24,56.47,91.78,56.47,91.78"/>
		<path d="M92.76,94.41c0,0,1.81,0.18,2.08-0.09c0.27-0.27-0.72-0.36-0.99-0.36c-0.27,0-0.82-0.18-1,0.18"/>
		<path d="M96.47,93.32c0,0,0.99,0,0.9-0.27c-0.09-0.27-0.99-0.45-1.08-0.09C96.19,93.32,96.47,93.32,96.47,93.32"/>
		<path d="M55.48,71.33c0,0-1.09,3.17-1.09,3.89s0.81-0.54,0.81-0.54s1.18-3.26,1.45-3.53"/>
		<path d="M54.03,77.03l-0.54,3.71l0.9-0.36c0,0,0.45-2.99,0.81-3.26"/>
		<polygon points="60.14,80.29 60.14,91.97 60.54,92.1 60.54,80.43 		"/>
		<rect x="61.76" y="81.24" width="0.81" height="11.13"/>
		<path d="M60.49,87.89c0,0,0.5,0.17,0.74,0.38c0.24,0.22,0.72,0.91,0.72,0.91v-7.94h-1.91"/>
		<polyline points="66.65,92.1 66.65,80.97 63.8,80.97 63.8,92.1 		"/>
		<path class="st8" d="M64.48,91.69V90.2c0,0,0.67-1.67,1.22,0.14c0.35,1.15,0.11,1.44,0.11,1.44L64.48,91.69z"/>
		<polyline points="70.51,87.26 69.94,92.07 70.68,92.11 71.11,91.85 72.24,87.17 		"/>
		<polyline points="84.21,87.13 85.33,92.72 86.55,92.68 85.9,87.26 		"/>
		<polygon points="89.95,81.02 89.95,92.6 92.39,92.78 92.58,81.11 91.58,79.66 		"/>
		<polygon points="93.66,79.48 93.75,92.24 96.47,92.42 96.47,80.93 		"/>
		<path class="st8" d="M90.68,87.89c0,0,1.08,0.18,1.08,0.81v2.44c0,0-0.18,0.91-0.54,0.45c-0.36-0.45-0.73-0.82-0.73-0.82
			L90.68,87.89z"/>
		<path class="st8" d="M94.29,89.7c0,0,0.18-1.18,0.64-0.45c0.45,0.72,0.63,0.45,0.63,1.27c0,0.81-0.18,1.45-0.18,1.45l-1.09-0.36
			V89.7z"/>
	</g>
	<g class="st1">
		<g>
			<path d="M180.11,107.33v-1.67h9.61v1.67c-0.77,0.13-1.27,0.36-1.5,0.67c-0.23,0.32-0.35,0.98-0.35,1.98v4.3
				c-0.32-0.02-0.59-0.03-0.79-0.03c-1,0-2.69,0.26-5.07,0.77c-1.71,0.36-3.13,0.54-4.28,0.54c-3.12,0-5.64-1.04-7.57-3.13
				c-1.93-2.08-2.89-4.51-2.89-7.29c0-2.98,1.02-5.54,3.05-7.68c2.03-2.14,4.55-3.22,7.56-3.22c2.45,0,4.61,0.78,6.46,2.35
				c0.32-0.67,0.52-1.38,0.59-2.13h1.62l0.18,7.17h-1.65c-1.04-3.49-3.07-5.24-6.08-5.24c-1.8,0-3.17,0.66-4.11,1.98
				c-0.94,1.32-1.42,3.54-1.42,6.66c0,2.19,0.14,3.85,0.42,5c0.28,1.14,0.81,2.02,1.6,2.65c0.79,0.63,1.82,0.94,3.08,0.94
				c1.12,0,2.05-0.24,2.79-0.73c0.74-0.48,1.1-1.44,1.1-2.86v-0.76C182.47,108.08,181.69,107.43,180.11,107.33z"/>
			<path d="M192.54,104.81c0-1.85,0.51-3.65,1.54-5.4s2.42-3.06,4.19-3.9c1.76-0.84,3.65-1.26,5.65-1.26c3.61,0,6.45,1.04,8.5,3.13
				c2.05,2.08,3.08,4.64,3.08,7.67c0,2.88-1.02,5.35-3.07,7.42c-2.05,2.07-4.83,3.1-8.36,3.1c-2.41,0-4.54-0.51-6.4-1.53
				c-1.85-1.02-3.17-2.39-3.96-4.11C192.94,108.2,192.54,106.5,192.54,104.81z M198.87,104.65c0,3.16,0.42,5.44,1.27,6.83
				c0.85,1.4,2.11,2.1,3.78,2.1c1.75,0,3.06-0.64,3.95-1.91c0.89-1.28,1.33-3.51,1.33-6.71c0-2.93-0.42-5.11-1.25-6.55
				c-0.83-1.44-2.16-2.16-3.97-2.16c-1.72,0-3,0.67-3.84,2.01C199.29,99.59,198.87,101.72,198.87,104.65z"/>
			<path d="M237.17,108.31l-0.09,6.83h-18.71v-1.68h0.3c1.03,0,1.7-0.19,2.01-0.57c0.31-0.38,0.46-1.03,0.46-1.94V98.8
				c0-0.94-0.16-1.59-0.48-1.96c-0.32-0.37-0.98-0.55-1.98-0.55h-0.3v-1.68h11v1.68h-0.41c-1.03,0-1.7,0.19-2.01,0.57
				c-0.31,0.38-0.46,1.03-0.46,1.94v11.72c0,0.88,0.05,1.46,0.15,1.74c0.1,0.28,0.37,0.53,0.79,0.73c0.43,0.21,1.18,0.31,2.25,0.31
				c1.8,0,3.14-0.45,4.03-1.35c0.89-0.9,1.49-2.12,1.82-3.64H237.17z"/>
			<path d="M247.02,105.34v5.6c0,0.94,0.16,1.59,0.48,1.96c0.32,0.37,0.99,0.55,2.01,0.55h0.42v1.68H238.9v-1.68h0.3
				c1.02,0,1.68-0.19,1.99-0.57c0.31-0.38,0.46-1.03,0.46-1.94V98.77c0-0.94-0.16-1.59-0.48-1.96c-0.32-0.37-0.98-0.55-1.98-0.55
				h-0.36v-1.65h17.21l0.14,5.43h-1.71c-0.25-0.93-0.58-1.68-0.97-2.26s-0.8-0.95-1.23-1.12c-0.42-0.17-1.07-0.26-1.94-0.26h-3.31
				v7.08h1.62c0.77,0,1.3-0.16,1.6-0.49c0.3-0.33,0.48-1,0.55-2.02h1.7v7.05h-1.7c-0.05-1.1-0.23-1.82-0.53-2.17
				c-0.3-0.35-0.85-0.52-1.65-0.52H247.02z"/>
			<path d="M278.85,113.27c-2.04,1.53-4.01,2.3-5.92,2.3c-1.66,0-3.08-0.54-4.28-1.63c-1.2-1.08-1.8-2.37-1.8-3.87
				c0-2.33,1.58-4.38,4.75-6.15c-1.02-1.61-1.53-3.05-1.53-4.3c0-1.45,0.46-2.59,1.39-3.41c0.93-0.82,2.17-1.23,3.72-1.23
				c1.39,0,2.52,0.33,3.38,1c0.86,0.67,1.29,1.58,1.29,2.74c0,1.84-1.09,3.32-3.27,4.45l4.18,5.46c1.1-1.55,1.65-2.67,1.65-3.35
				c0-0.68-0.44-1.03-1.33-1.06v-1.65h6.18v1.65c-0.75,0.15-1.33,0.43-1.75,0.82c-0.42,0.4-0.95,1.11-1.58,2.14
				c-0.7,1.14-1.36,2.11-2,2.92c0.78,1.02,1.39,1.72,1.83,2.09c0.44,0.37,0.9,0.56,1.38,0.56c1.01,0,1.58-0.71,1.72-2.12h1.68
				c-0.03,1.68-0.51,2.91-1.44,3.69c-0.93,0.79-2.06,1.18-3.39,1.18C281.93,115.54,280.31,114.79,278.85,113.27z M277.53,111.91
				l-4.87-6.37c-1,0.63-1.5,1.43-1.5,2.41c0,1.07,0.41,2.14,1.24,3.22c0.83,1.08,1.79,1.62,2.89,1.62
				C276.11,112.79,276.85,112.5,277.53,111.91z M275.39,101.63c1.23-0.85,1.85-1.75,1.85-2.71c0-0.67-0.19-1.2-0.57-1.59
				c-0.38-0.39-0.84-0.59-1.38-0.59c-0.41,0-0.78,0.12-1.1,0.37c-0.32,0.25-0.48,0.64-0.48,1.17
				C273.7,99.17,274.26,100.28,275.39,101.63z"/>
			<path d="M319.81,107.25v7.7h-1.68c-0.19-0.82-0.48-1.47-0.86-1.97c-1.71,1.72-3.96,2.57-6.75,2.57c-3.18,0-5.72-1.04-7.63-3.12
				c-1.91-2.08-2.86-4.55-2.86-7.4c0-2.82,0.94-5.32,2.83-7.51c1.89-2.19,4.5-3.28,7.83-3.28c2.49,0,4.61,0.82,6.34,2.47
				c0.23-0.51,0.44-1.12,0.64-1.83h1.67l0.21,7.58h-1.67c-0.49-2.06-1.3-3.62-2.43-4.67c-1.12-1.05-2.46-1.58-4-1.58
				c-1.78,0-3.11,0.7-4.01,2.09s-1.35,3.57-1.35,6.52c0,2.08,0.16,3.73,0.48,4.94c0.32,1.22,0.96,2.15,1.92,2.81
				c0.95,0.66,2,0.98,3.13,0.98c1.49,0,2.83-0.52,4-1.56c1.17-1.04,2.01-2.62,2.53-4.75H319.81z"/>
			<path d="M324.02,104.81c0-1.85,0.52-3.65,1.54-5.4s2.42-3.06,4.18-3.9c1.76-0.84,3.65-1.26,5.65-1.26c3.61,0,6.45,1.04,8.5,3.13
				c2.05,2.08,3.08,4.64,3.08,7.67c0,2.88-1.02,5.35-3.07,7.42c-2.05,2.07-4.83,3.1-8.36,3.1c-2.41,0-4.54-0.51-6.4-1.53
				c-1.85-1.02-3.17-2.39-3.96-4.11C324.41,108.2,324.02,106.5,324.02,104.81z M330.35,104.65c0,3.16,0.42,5.44,1.27,6.83
				c0.85,1.4,2.11,2.1,3.78,2.1c1.75,0,3.06-0.64,3.95-1.91c0.89-1.28,1.33-3.51,1.33-6.71c0-2.93-0.42-5.11-1.25-6.55
				c-0.83-1.44-2.16-2.16-3.97-2.16c-1.71,0-3,0.67-3.84,2.01C330.77,99.59,330.35,101.72,330.35,104.65z"/>
			<path d="M349.68,96.29v-1.68h10.84v1.68h-0.35c-1.02,0-1.68,0.19-1.98,0.56c-0.3,0.37-0.45,1.02-0.45,1.95v8.1
				c0,1.47,0.12,2.63,0.36,3.48s0.77,1.57,1.59,2.16c0.82,0.6,1.8,0.89,2.94,0.89c1.24,0,2.3-0.32,3.19-0.95s1.46-1.41,1.72-2.32
				c0.26-0.91,0.39-2.19,0.39-3.82v-6.9c0-2.1-1.01-3.15-3.04-3.15v-1.68h7.6v1.68c-0.43,0-0.89,0.12-1.36,0.37
				c-0.47,0.25-0.8,0.59-0.98,1.03c-0.18,0.44-0.27,1.05-0.27,1.84v6.86c0,1.47-0.09,2.68-0.28,3.61c-0.19,0.93-0.63,1.83-1.32,2.69
				c-0.7,0.86-1.67,1.56-2.91,2.08c-1.24,0.52-2.62,0.79-4.13,0.79c-1.58,0-3-0.26-4.26-0.78c-1.26-0.52-2.22-1.18-2.88-1.97
				c-0.67-0.79-1.12-1.66-1.35-2.59c-0.24-0.93-0.36-2.04-0.36-3.32v-8.1c0-0.97-0.17-1.63-0.5-1.98
				C351.53,96.47,350.8,96.29,349.68,96.29z"/>
			<path d="M379.4,100.45v9.43c0,1.51,0.27,2.49,0.82,2.92c0.55,0.43,1.25,0.65,2.11,0.65v1.68h-7.7v-1.68
				c0.66,0,1.23-0.16,1.71-0.48c0.48-0.32,0.79-0.69,0.92-1.1c0.13-0.42,0.2-1.08,0.2-1.98V99.42c0-2.09-0.98-3.13-2.94-3.13v-1.68
				h6.93l11.25,12.56v-7.52c0-2.24-0.94-3.36-2.83-3.36v-1.68h7.37v1.68c-0.51,0-1,0.14-1.45,0.42c-0.45,0.28-0.75,0.64-0.92,1.08
				c-0.16,0.44-0.24,1.08-0.24,1.91v15.76h-1.94L379.4,100.45z"/>
			<path d="M407.13,96.44h-1.73c-1.03,0-1.79,0.11-2.27,0.33c-0.48,0.22-0.89,0.66-1.22,1.32c-0.33,0.66-0.53,1.45-0.6,2.35h-1.71
				v-5.84h20.54v5.84h-1.71c-0.32-1.57-0.78-2.64-1.36-3.19c-0.59-0.55-1.52-0.82-2.8-0.82h-1.77v14.5c0,0.94,0.16,1.59,0.48,1.96
				c0.32,0.37,0.99,0.55,2,0.55h0.53v1.68h-11.34v-1.68h0.48c1.03,0,1.7-0.19,2-0.57c0.31-0.38,0.46-1.03,0.46-1.94V96.44z"/>
			<path d="M430.64,106.08v4.86c0,0.94,0.16,1.59,0.48,1.96c0.32,0.37,0.98,0.55,1.98,0.55h0.36v1.68H422.4v-1.68h0.41
				c1.03,0,1.7-0.19,2.01-0.57c0.31-0.38,0.46-1.03,0.46-1.94V98.8c0-0.94-0.16-1.59-0.48-1.96c-0.32-0.37-0.98-0.55-1.98-0.55
				h-0.41v-1.68l8.23-0.02l1.85-0.02c1.83,0,3.16,0.06,4,0.18c0.84,0.12,1.67,0.41,2.49,0.87c0.82,0.46,1.46,1.09,1.93,1.88
				c0.47,0.8,0.7,1.66,0.7,2.57c0,2.44-1.38,4.11-4.15,5.01c0.74,0.46,1.88,1.92,3.44,4.36c1.21,1.89,2.07,3.02,2.59,3.41
				c0.51,0.39,1.08,0.58,1.7,0.58v1.68h-6.42c-0.59-0.7-1.67-2.46-3.25-5.3c-0.8-1.43-1.36-2.36-1.68-2.77
				c-0.32-0.41-0.65-0.68-0.99-0.79C432.5,106.16,431.77,106.09,430.64,106.08z M430.64,104.24c1.71,0.02,2.86-0.08,3.45-0.31
				c0.6-0.23,1.06-0.64,1.41-1.23c0.34-0.59,0.51-1.39,0.51-2.4c0-1.44-0.34-2.44-1.02-3c-0.68-0.55-1.85-0.83-3.52-0.83
				c-0.21,0-0.49,0.01-0.83,0.02V104.24z"/>
			<path d="M451.73,106.72L447.11,99c-0.73-1.21-1.29-1.97-1.7-2.26c-0.4-0.3-0.94-0.45-1.6-0.45v-1.68h10.29v1.68
				c-1.11,0-1.67,0.3-1.67,0.89c0,0.33,0.21,0.84,0.62,1.53l3.36,5.57l3.09-5.15c0.32-0.52,0.48-1.02,0.48-1.5
				c0-0.9-0.66-1.35-1.98-1.35v-1.68h7.04v1.68c-0.66,0-1.24,0.24-1.76,0.73c-0.52,0.48-1.26,1.51-2.23,3.07l-3.89,6.3v4.56
				c0,0.94,0.16,1.59,0.48,1.96c0.32,0.37,0.98,0.55,1.98,0.55h0.32v1.68h-11v-1.68h0.33c1.03,0,1.7-0.19,2.01-0.57
				c0.31-0.38,0.46-1.03,0.46-1.94V106.72z"/>
			<path d="M495.55,107.25v7.7h-1.68c-0.19-0.82-0.48-1.47-0.86-1.97c-1.71,1.72-3.96,2.57-6.75,2.57c-3.18,0-5.72-1.04-7.63-3.12
				c-1.91-2.08-2.86-4.55-2.86-7.4c0-2.82,0.94-5.32,2.83-7.51c1.89-2.19,4.5-3.28,7.83-3.28c2.49,0,4.61,0.82,6.34,2.47
				c0.23-0.51,0.44-1.12,0.64-1.83h1.67l0.21,7.58h-1.67c-0.49-2.06-1.3-3.62-2.43-4.67c-1.12-1.05-2.46-1.58-4-1.58
				c-1.78,0-3.11,0.7-4.01,2.09s-1.35,3.57-1.35,6.52c0,2.08,0.16,3.73,0.48,4.94c0.32,1.22,0.96,2.15,1.92,2.81
				c0.95,0.66,2,0.98,3.13,0.98c1.49,0,2.83-0.52,4-1.56c1.17-1.04,2.01-2.62,2.53-4.75H495.55z"/>
			<path d="M517.8,108.31l-0.09,6.83H499v-1.68h0.3c1.03,0,1.7-0.19,2-0.57c0.31-0.38,0.46-1.03,0.46-1.94V98.8
				c0-0.94-0.16-1.59-0.48-1.96c-0.32-0.37-0.98-0.55-1.98-0.55H499v-1.68h11v1.68h-0.41c-1.03,0-1.7,0.19-2.01,0.57
				c-0.31,0.38-0.46,1.03-0.46,1.94v11.72c0,0.88,0.05,1.46,0.15,1.74c0.1,0.28,0.37,0.53,0.79,0.73c0.43,0.21,1.18,0.31,2.25,0.31
				c1.8,0,3.14-0.45,4.03-1.35c0.89-0.9,1.49-2.12,1.82-3.64H517.8z"/>
			<path d="M518.65,96.29v-1.68h10.84v1.68h-0.35c-1.02,0-1.68,0.19-1.98,0.56c-0.3,0.37-0.45,1.02-0.45,1.95v8.1
				c0,1.47,0.12,2.63,0.36,3.48s0.77,1.57,1.59,2.16c0.82,0.6,1.8,0.89,2.94,0.89c1.24,0,2.3-0.32,3.19-0.95s1.46-1.41,1.72-2.32
				c0.26-0.91,0.39-2.19,0.39-3.82v-6.9c0-2.1-1.01-3.15-3.04-3.15v-1.68h7.6v1.68c-0.43,0-0.89,0.12-1.36,0.37
				c-0.47,0.25-0.8,0.59-0.98,1.03c-0.18,0.44-0.27,1.05-0.27,1.84v6.86c0,1.47-0.09,2.68-0.28,3.61c-0.19,0.93-0.63,1.83-1.32,2.69
				c-0.7,0.86-1.67,1.56-2.91,2.08c-1.24,0.52-2.62,0.79-4.13,0.79c-1.58,0-3-0.26-4.26-0.78c-1.26-0.52-2.22-1.18-2.88-1.97
				c-0.67-0.79-1.12-1.66-1.35-2.59c-0.24-0.93-0.36-2.04-0.36-3.32v-8.1c0-0.97-0.17-1.63-0.5-1.98
				C520.5,96.47,519.77,96.29,518.65,96.29z"/>
			<path d="M556.63,104.22c2.02,0.36,3.53,1.01,4.54,1.93c1.01,0.92,1.51,2.13,1.51,3.61c0,1.67-0.65,2.98-1.94,3.94
				c-1.29,0.96-3.44,1.44-6.43,1.44h-10.76v-1.68c1.08,0,1.8-0.17,2.15-0.51c0.35-0.34,0.53-1.01,0.53-2.01V98.91
				c0-0.97-0.17-1.63-0.5-1.98c-0.33-0.35-1.06-0.53-2.18-0.53v-1.68l7.89-0.23h1.12c3.55,0,5.97,0.44,7.27,1.32
				c1.29,0.88,1.94,2.09,1.94,3.61c0,1.15-0.43,2.12-1.28,2.92C559.63,103.14,558.35,103.77,556.63,104.22z M551.61,103.34h1.04
				c1.11,0,1.94-0.26,2.48-0.78c0.54-0.52,0.82-1.42,0.82-2.7c0-0.96-0.17-1.72-0.51-2.27c-0.34-0.55-0.79-0.91-1.35-1.07
				c-0.56-0.16-1.39-0.24-2.48-0.24V103.34z M551.61,105.19v5.83c0,0.57,0.06,0.99,0.17,1.29c0.12,0.29,0.34,0.54,0.68,0.73
				c0.34,0.2,0.82,0.3,1.43,0.3c0.96,0,1.68-0.34,2.16-1.01c0.48-0.68,0.72-1.69,0.72-3.04c0-1.08-0.16-1.92-0.47-2.54
				c-0.31-0.61-0.74-1.02-1.29-1.23s-1.35-0.32-2.42-0.32H551.61z"/>
		</g>
		<polygon points="174.72,43.9 185.07,43.9 193.28,65.52 201.98,43.9 212.44,43.9 218.55,84.35 208.04,84.35 205.09,61.06 
			204.98,61.06 195.27,84.35 191.08,84.35 181.8,61.06 181.7,61.06 178.31,84.35 167.85,84.35 		"/>
	</g>
	<rect x="228.1" y="44.17" class="st1" width="10.52" height="40.46"/>
	<path class="st1" d="M278.69,57.74c-2.15-2.9-5.63-4.45-9.23-4.45c-6.44,0-10.78,4.94-10.78,11.21c0,6.38,4.4,11,10.95,11
		c3.44,0,6.87-1.66,9.07-4.29v12.61c-3.49,1.07-6.01,1.88-9.28,1.88c-5.63,0-11-2.15-15.18-5.96c-4.45-4.02-6.49-9.28-6.49-15.29
		c0-5.53,2.09-10.84,5.96-14.81c3.97-4.08,9.71-6.54,15.4-6.54c3.38,0,6.49,0.75,9.6,2.04V57.74z"/>
	<path class="st1" d="M319.74,57.74c-2.15-2.9-5.63-4.45-9.23-4.45c-6.44,0-10.78,4.94-10.78,11.21c0,6.38,4.4,11,10.95,11
		c3.43,0,6.87-1.66,9.07-4.29v12.61c-3.49,1.07-6.01,1.88-9.28,1.88c-5.63,0-11-2.15-15.18-5.96c-4.45-4.02-6.49-9.28-6.49-15.29
		c0-5.53,2.09-10.84,5.96-14.81c3.97-4.08,9.71-6.54,15.4-6.54c3.38,0,6.49,0.75,9.61,2.04V57.74z"/>
	<path class="st1" d="M372.69,63.64c0,13.09-9.39,22.32-22.37,22.32c-12.98,0-22.37-9.23-22.37-22.32
		c0-12.23,10.73-20.82,22.37-20.82C361.96,42.83,372.69,51.41,372.69,63.64 M338.89,63.7c0,6.98,5.15,12.07,11.43,12.07
		c6.28,0,11.43-5.1,11.43-12.07c0-5.58-5.15-10.68-11.43-10.68C344.04,53.02,338.89,58.12,338.89,63.7"/>
	<path class="st1" d="M403,54.58c-1.93-1.61-4.4-2.68-6.98-2.68c-1.93,0-4.51,1.13-4.51,3.38c0,2.36,2.84,3.27,4.67,3.86l2.68,0.81
		c5.63,1.66,9.98,4.51,9.98,11.05c0,4.02-0.96,8.16-4.18,10.89c-3.17,2.68-7.4,3.81-11.48,3.81c-5.1,0-10.09-1.72-14.22-4.61
		l4.51-8.48c2.63,2.31,5.74,4.18,9.34,4.18c2.47,0,5.1-1.23,5.1-4.08c0-2.95-4.13-3.97-6.38-4.61c-6.6-1.88-10.95-3.59-10.95-11.43
		c0-8.21,5.85-13.57,13.95-13.57c4.08,0,9.07,1.29,12.66,3.33L403,54.58z"/>
	<path class="st1" d="M453.22,44.17v22.75c0,5.2-0.21,10.35-4.24,14.27c-3.38,3.33-8.69,4.51-13.42,4.51
		c-4.72,0-10.03-1.18-13.41-4.51c-4.02-3.92-4.24-9.07-4.24-14.27V44.17h10.52v21.3c0,5.26,0.38,11,7.14,11
		c6.76,0,7.14-5.74,7.14-11v-21.3H453.22z"/>
	<polygon class="st1" points="485.36,44.17 498.4,44.17 482.3,63.32 499.84,84.62 486.22,84.62 472.64,67.08 472.53,67.08 
		472.53,84.62 462.02,84.62 462.02,44.17 472.53,44.17 472.53,60.85 472.64,60.85 	"/>
	<polygon class="st1" points="516.69,53.07 516.69,59.83 528.55,59.83 528.55,68.74 516.69,68.74 516.69,75.72 529.19,75.72 
		529.19,84.62 506.17,84.62 506.17,44.17 529.19,44.17 529.19,53.07 	"/>
	<polygon class="st1" points="549.95,53.07 549.95,59.83 561.81,59.83 561.81,68.74 549.95,68.74 549.95,75.72 562.45,75.72 
		562.45,84.62 539.44,84.62 539.44,44.17 562.45,44.17 562.45,53.07 	"/>
</g>
<g id="Layer_4" class="st0">
	<g class="st1">
		<g>
			<defs>
				<rect id="SVGID_5_" x="6.67" y="7.56" width="143.28" height="143.28"/>
			</defs>
			<clipPath id="SVGID_6_">
				<use xlink:href="#SVGID_5_"  style="overflow:visible;"/>
			</clipPath>
			<g class="st10">
				<defs>
					<rect id="SVGID_7_" x="6.67" y="7.56" width="143.28" height="143.28"/>
				</defs>
				<clipPath id="SVGID_8_">
					<use xlink:href="#SVGID_7_"  style="overflow:visible;"/>
				</clipPath>
				<path class="st11" d="M98.08,10.33c29.94,8.58,51.87,36.17,51.87,68.88c0,36.21-26.87,66.15-61.75,70.96v-0.01v-40.84
					c3.63-1.19,6.97-3.02,9.89-5.36v11.6v10.75v10.51c23.92-8.2,41.12-30.9,41.12-57.6c0-26.71-17.2-49.4-41.12-57.61V10.33z"/>
				<path class="st12" d="M98.08,21.59C122,29.8,139.2,52.49,139.2,79.2c0,26.71-17.2,49.4-41.12,57.6V126.3
					c18.38-7.73,31.29-25.9,31.29-47.09c0-21.19-12.91-39.37-31.29-47.1V21.59z"/>
				<path class="st13" d="M98.08,32.11c18.38,7.73,31.29,25.91,31.29,47.1c0,21.19-12.91,39.36-31.29,47.09v-10.75
					c12.87-7.02,21.6-20.66,21.6-36.34c0-15.69-8.73-29.33-21.6-36.35V32.11z"/>
				<path class="st14" d="M98.08,42.85c12.87,7.02,21.6,20.67,21.6,36.35c0,15.69-8.73,29.33-21.6,36.35v-11.6
					c7.25-5.8,11.9-14.73,11.9-24.74c0-14.04-9.14-25.95-21.79-30.1v0V8.24c3.38,0.47,6.67,1.16,9.89,2.09v11.27v10.51V42.85z"/>
				<path class="st11" d="M68.42,109.3c-3.63-1.19-6.97-3.02-9.89-5.36c-7.26-5.8-11.9-14.73-11.9-24.74
					c0-14.04,9.14-25.95,21.79-30.1c3.11-1.02,6.43-1.58,9.89-1.58c3.45,0,6.77,0.55,9.88,1.57c12.65,4.16,21.79,16.06,21.79,30.1
					c0,10.01-4.65,18.94-11.9,24.74c-2.92,2.34-6.25,4.17-9.89,5.36c-3.11,1.02-6.43,1.57-9.88,1.57
					C74.85,110.88,71.53,110.33,68.42,109.3"/>
				<path class="st12" d="M88.19,150.15v0.01c-3.23,0.45-6.53,0.68-9.89,0.68v-0.01v-39.95c3.45,0,6.77-0.55,9.89-1.57V150.15z"/>
				<path class="st13" d="M88.19,49.09L88.19,49.09c-3.11-1.02-6.43-1.57-9.89-1.57V7.56c3.35,0,6.65,0.23,9.89,0.68V49.09z"/>
				<path class="st13" d="M78.31,150.83v0.01c-3.36,0-6.65-0.23-9.89-0.68v-0.01V109.3c3.11,1.02,6.43,1.58,9.89,1.58V150.83z"/>
				<path class="st12" d="M78.31,7.56v39.97c-3.45,0-6.77,0.55-9.89,1.58l0-0.01V8.24C71.65,7.79,74.95,7.56,78.31,7.56"/>
				<path class="st11" d="M68.42,49.09L68.42,49.09C55.77,53.25,46.63,65.16,46.63,79.2c0,10.01,4.65,18.94,11.9,24.74v11.6
					c-12.87-7.02-21.59-20.66-21.59-36.35c0-15.69,8.73-29.33,21.59-36.35V32.11V21.59V10.37l-0.01-0.04
					c3.21-0.92,6.52-1.62,9.9-2.09V49.09z"/>
				<path class="st14" d="M68.42,150.15v0.01C33.53,145.35,6.67,115.41,6.67,79.2c0-32.7,21.91-60.29,51.86-68.87l0.01,0.04v11.22
					C34.61,29.8,17.41,52.49,17.41,79.2c0,26.71,17.2,49.4,41.12,57.6v-10.51v-10.75v-11.6c2.92,2.34,6.26,4.17,9.89,5.36V150.15z"
					/>
				<path class="st13" d="M58.53,126.3v10.51c-23.92-8.2-41.12-30.89-41.12-57.6c0-26.71,17.2-49.4,41.12-57.61v10.52
					c-18.38,7.73-31.29,25.91-31.29,47.1C27.24,100.39,40.15,118.57,58.53,126.3"/>
				<path class="st12" d="M58.53,115.55v10.75c-18.38-7.73-31.29-25.9-31.29-47.09c0-21.19,12.91-39.37,31.29-47.1v10.74
					C45.66,49.87,36.94,63.51,36.94,79.2C36.94,94.89,45.66,108.53,58.53,115.55"/>
			</g>
		</g>
		<path class="st7" d="M149.95,79.2c0,39.56-32.08,71.64-71.64,71.64c-39.56,0-71.64-32.07-71.64-71.64
			c0-39.57,32.07-71.64,71.64-71.64C117.87,7.56,149.95,39.63,149.95,79.2z"/>
		<path class="st7" d="M109.99,79.2c0,17.49-14.18,31.67-31.68,31.67c-17.49,0-31.67-14.18-31.67-31.67
			c0-17.5,14.18-31.68,31.67-31.68C95.8,47.52,109.99,61.7,109.99,79.2z"/>
		<path d="M57.66,65.66c0.17-0.11-0.66-0.26-0.45-0.33c0.22-0.04,1.46-0.03,1.66-0.07c1.67-0.33,2.57-0.6,3.3-0.72
			c0.81-0.14,2.44-0.27,2.44-0.27s1.76-1.22,3.4,0.13c1.62,1.36,1.62,0.14,1.62,0.14s2.58-1.36,4.08-0.14
			c1.49,1.22,1.9,0.54,1.9,0.54s2.31-2.04,4.34-0.27c2.04,1.76,1.63,0.54,1.63,0.54s2.31-2.31,4.75-0.95
			c2.44,1.36,1.09,0.54,1.09,0.54l0.41,0.68c0,0,0.68-2.58,4.34-0.95c0.92,0.41,0.95,0.41,0.95,0.41s2.85-0.82,7.06,1.49
			c4.21,2.31-0.95,0.13-0.95,0.13l2.45,2.85c0,0-3.26-1.63-0.68,0.81c2.58,2.44,2.71,3.53,2.71,3.53s-2.17-1.9-0.68,1.09
			c1.49,2.99-0.13,0.95-0.13,0.95s-0.68,0.27,0.27,2.17c0.95,1.9-0.14,1.63-0.14,1.63s-1.77-2.85-0.95-1.09
			c0.82,1.76,1.96,3.1,1.9,3.12c-0.05,0.02-0.98-0.32-1.08-0.27c-0.08,0.04-0.08,0.44-0.02,0.99c0.07,0.61,0.24,1.4,0.29,1.73
			c0.06,0.4-0.19-0.45-0.45-1.07c-0.41-0.96-1.1-1.95-1.18-0.96l-0.14,1.76c0,0-2.04-4.18-1.62-2.17c0.33,1.56,0.23,1.51,0.23,1.51
			s-1.59-3.68-1.73-0.02c-0.13,3.67-0.95-4.07-1.36-1.49c-0.41,2.58-2.85-3.4-3.12-0.14c-0.27,3.26-0.54,1.09-0.54,1.09l-0.95-1.09
			l-2.04-0.41l-1.08,2.03l-0.82-2.31c0,0-0.81,0.41-0.68,1.63c0.14,1.22,0.27,1.9,0.27,1.9l-0.95-0.95l-0.27-1.63
			c0,0-0.54-1.5-0.67,0.41l-0.14,1.9l-2.44-2.44c0,0-0.27,0.68-0.41,1.76c-0.14,1.08-0.55-1.5-1.63-2.17
			c-1.09-0.68-0.61,2.17-0.68,2.99c-0.08,0.96-0.41-2.99-1.08-3.66c-0.68-0.68-0.41,1.22-0.27,1.76c0.13,0.54-0.68-0.81-1.09-1.36
			c-0.4-0.54-0.14,1.9-0.27,2.31c-0.13,0.41-0.95-2.04-0.95-2.04s-1.09-0.81-0.95,2.17c0.14,2.99-1.22-1.63-1.22-1.63
			s-0.36-2.13-0.81,1.36c-0.15,1.13-0.54-1.36-0.54-1.36s-1.09,2.17-1.77,1.76c0,0,0.54-1.9-0.27-2.58c-0.81-0.68-0.41,1.9-0.41,1.9
			l-0.54-1.22c0,0-0.54,2.17-0.54,2.58c0,0.41-1.36-3.39-1.76-3.39c-0.4,0-0.68,2.31-0.68,2.31l-1.77-1.77c0,0-1.91-0.49-2.44,1.63
			c-0.14,0.54-1.08-0.68-1.08-0.68l-1.76,0.14c0,0-1.2,0.82-1.36,1.9c-0.09,0.63-0.64-1.18,0.14-2.04c1.16-1.3-0.68-1.74-1.68,0
			c-0.18,0.32-0.63-1.22-0.63-1.22s-1.54,1.9-1.77,3.26c-0.17,1.04,0.14-3.94,0.14-3.94s-0.75-0.37-1.77,0.72
			c-0.54,0.59-1.63,1.95-1.63,1.95s0.33-2.89,2.85-3.75c1.45-0.5-0.77-2.22-1.58-1.4c-0.81,0.81-2.35,1.54-2.35,1.54
			s2.58-3.8,3.12-4.48c0.54-0.68,3.8-3.39,3.8-3.39s-2.72-0.27-3.53,0.81c-0.45,0.6-1.11,1.56-1.61,2.05c-0.4,0.4-0.7,0.39-0.7,0.39
			s0.55-1.81,2.08-3.37c0.88-0.9,2.28-1.55,3.62-2.19c3.67-1.77-1.19,0.06-1.81,0.23c-0.62,0.17,1.77-1.86,1.77-1.86
			s-1.21-0.52-2.84,1.24c-0.86,0.94-0.43-0.2,0.43-1.21c0.76-0.89,1.89-1.63,1.89-1.63S57.34,65.86,57.66,65.66"/>
		<rect x="62.99" y="61.7" class="st8" width="1.76" height="10.04"/>
		<rect x="62.99" y="61.7" class="st9" width="1.76" height="10.04"/>
		<rect x="68.69" y="61.7" class="st8" width="1.76" height="10.04"/>
		<rect x="68.69" y="61.7" class="st9" width="1.76" height="10.04"/>
		<rect x="74.39" y="61.7" class="st8" width="1.77" height="10.04"/>
		<rect x="74.39" y="61.7" class="st9" width="1.77" height="10.04"/>
		<rect x="80.09" y="61.7" class="st8" width="1.77" height="10.04"/>
		<rect x="80.09" y="61.7" class="st9" width="1.77" height="10.04"/>
		<rect x="85.79" y="61.7" class="st8" width="1.77" height="10.04"/>
		<rect x="85.79" y="61.7" class="st9" width="1.77" height="10.04"/>
		<rect x="91.49" y="61.7" class="st8" width="1.76" height="10.04"/>
		<rect x="91.49" y="61.7" class="st9" width="1.76" height="10.04"/>
		<rect x="68.75" y="85.96" width="18.93" height="1.52"/>
		<path d="M56.47,91.78c0,0,3.49-0.79,3.8-0.36c0.21,0.28,1.46,0.52,1.58,0.36c0.27-0.36,1.86-0.18,1.86-0.18s0.81-0.36,1.63-0.18
			c0.81,0.18,2.99,0.18,2.99,0.18l1.9-0.18h1.09h13.75l1.54,0.36l3.53-0.18l1.81,0.27l1.54-0.27c0,0,1.54,0.18,1.9,0.36
			c0.36,0.18,1.72,0.09,1.72,0.09s2.53-0.36,2.8,0c0.27,0.36-0.27,0.27-0.27,0.27l-3.71,0.27c0,0-1.9-0.36-1.9-0.09
			c0,0.27,0.63,0.72,0.63,0.72s-2.53-0.18-2.71,0.45c-0.18,0.64-2.17,0-2.53,0.36c-0.37,0.36-2.63,1.27-3.62,1
			c-1-0.27-1.45,0.63-0.72,0.9c0.72,0.27,1.72,0.09,1.72,0.09s-3.44,0.81-4.53,0.36c-1.08-0.45-3.8-1.36-4.52-0.54
			c-0.72,0.81-4.25,0.99-5.16,0.72c-0.9-0.27,0.82-0.63-0.9-0.63c-1.72,0-4.17-0.54-4.17-0.54s-0.45-1.27-2.08-0.54
			c-1.63,0.73-2.17,0.18-2.17,0.18s-0.81-0.54-1.27-0.45c-0.45,0.09-2.17-0.18-2.44-0.36c-0.27-0.18-0.09-0.72,0.63-0.54
			c0.72,0.18,1.72,0.18,2.08-0.18c0.36-0.36,0.36-0.91-0.18-0.81c-0.54,0.09-2.72-0.27-2.98-0.37
			C58.82,92.24,56.47,91.78,56.47,91.78"/>
		<path d="M92.76,94.41c0,0,1.81,0.18,2.08-0.09c0.27-0.27-0.72-0.36-0.99-0.36c-0.27,0-0.82-0.18-1,0.18"/>
		<path d="M96.47,93.32c0,0,0.99,0,0.9-0.27c-0.09-0.27-0.99-0.45-1.08-0.09C96.19,93.32,96.47,93.32,96.47,93.32"/>
		<path d="M55.48,71.33c0,0-1.09,3.17-1.09,3.89s0.81-0.54,0.81-0.54s1.18-3.26,1.45-3.53"/>
		<path d="M54.03,77.03l-0.54,3.71l0.9-0.36c0,0,0.45-2.99,0.81-3.26"/>
		<polygon points="60.14,80.29 60.14,91.97 60.54,92.1 60.54,80.43 		"/>
		<rect x="61.76" y="81.24" width="0.81" height="11.13"/>
		<path d="M60.49,87.89c0,0,0.5,0.17,0.74,0.38c0.24,0.22,0.72,0.91,0.72,0.91v-7.94h-1.91"/>
		<polyline points="66.65,92.1 66.65,80.97 63.8,80.97 63.8,92.1 		"/>
		<path class="st8" d="M64.48,91.69V90.2c0,0,0.67-1.67,1.22,0.14c0.35,1.15,0.11,1.44,0.11,1.44L64.48,91.69z"/>
		<polyline points="70.51,87.26 69.94,92.07 70.68,92.11 71.11,91.85 72.24,87.17 		"/>
		<polyline points="84.21,87.13 85.33,92.72 86.55,92.68 85.9,87.26 		"/>
		<polygon points="89.95,81.02 89.95,92.6 92.39,92.78 92.58,81.11 91.58,79.66 		"/>
		<polygon points="93.66,79.48 93.75,92.24 96.47,92.42 96.47,80.93 		"/>
		<path class="st8" d="M90.68,87.89c0,0,1.08,0.18,1.08,0.81v2.44c0,0-0.18,0.91-0.54,0.45c-0.36-0.45-0.73-0.82-0.73-0.82
			L90.68,87.89z"/>
		<path class="st8" d="M94.29,89.7c0,0,0.18-1.18,0.64-0.45c0.45,0.72,0.63,0.45,0.63,1.27c0,0.81-0.18,1.45-0.18,1.45l-1.09-0.36
			V89.7z"/>
	</g>
	<g class="st1">
		<g>
			<path d="M177.51,116.98l-8-17.98c-0.65-1.45-1.09-2.38-1.33-2.79c-0.24-0.41-0.56-0.72-0.97-0.92s-1.05-0.31-1.94-0.31v-1.92
				h12.46v1.92c-1.74,0-2.61,0.43-2.61,1.28c0,0.47,0.25,1.25,0.74,2.33l4.81,10.63l4.51-10.65c0.33-0.78,0.5-1.45,0.5-1.99
				c0-1.07-0.87-1.61-2.61-1.61v-1.92h8.25v1.92c-0.96,0-1.69,0.25-2.19,0.76c-0.5,0.51-1.29,2.04-2.38,4.6l-7.12,16.65H177.51z"/>
			<path d="M192.69,94.98v-1.92h12.39v1.92h-0.36c-1.16,0-1.92,0.22-2.27,0.65c-0.35,0.43-0.53,1.17-0.53,2.22v13.86
				c0,1.07,0.18,1.82,0.54,2.24c0.36,0.42,1.12,0.63,2.26,0.63h0.36v1.92h-12.39v-1.92c1.24,0,2.07-0.19,2.48-0.57
				c0.41-0.38,0.61-1.15,0.61-2.3V97.85c0-1.12-0.19-1.88-0.58-2.27S193.98,94.98,192.69,94.98z"/>
			<path d="M229.23,108.7l-0.1,7.8h-21.36v-1.92h0.35c1.18,0,1.94-0.22,2.29-0.65c0.35-0.43,0.53-1.17,0.53-2.22V97.85
				c0-1.07-0.18-1.82-0.55-2.24c-0.37-0.42-1.12-0.63-2.26-0.63h-0.35v-1.92h12.57v1.92h-0.47c-1.18,0-1.94,0.22-2.29,0.65
				c-0.35,0.43-0.53,1.17-0.53,2.22v13.38c0,1,0.06,1.67,0.17,1.99c0.11,0.32,0.42,0.6,0.91,0.84s1.35,0.35,2.57,0.35
				c2.05,0,3.58-0.52,4.6-1.55c1.01-1.03,1.71-2.42,2.07-4.16H229.23z"/>
			<path d="M252.57,108.7l-0.1,7.8H231.1v-1.92h0.35c1.18,0,1.94-0.22,2.29-0.65c0.35-0.43,0.53-1.17,0.53-2.22V97.85
				c0-1.07-0.18-1.82-0.55-2.24c-0.37-0.42-1.12-0.63-2.26-0.63h-0.35v-1.92h12.57v1.92h-0.47c-1.18,0-1.94,0.22-2.29,0.65
				c-0.35,0.43-0.53,1.17-0.53,2.22v13.38c0,1,0.06,1.67,0.17,1.99c0.11,0.32,0.42,0.6,0.91,0.84s1.35,0.35,2.57,0.35
				c2.05,0,3.58-0.52,4.6-1.55c1.01-1.03,1.71-2.42,2.07-4.16H252.57z"/>
			<path d="M259.17,110.17l-0.45,1.16c-0.32,0.82-0.48,1.39-0.48,1.73c0,0.56,0.19,0.96,0.57,1.18s1,0.34,1.87,0.34v1.92h-7.74
				v-1.92c1.48,0,2.71-1.26,3.72-3.77l7.21-18.17h2.02l7.35,18.15c0.73,1.8,1.38,2.88,1.97,3.24c0.59,0.36,1.15,0.54,1.69,0.54v1.92
				h-11.63v-1.92c1.05,0,1.7-0.1,1.95-0.3c0.25-0.2,0.38-0.46,0.38-0.77c0-0.28-0.1-0.64-0.31-1.09l-0.22-0.54l-0.67-1.71H259.17z
				 M259.92,108.18h5.69l-2.92-7L259.92,108.18z"/>
			<path d="M292.64,107.58v-1.9h10.97v1.9c-0.88,0.15-1.45,0.41-1.71,0.77s-0.4,1.11-0.4,2.26v4.91c-0.37-0.02-0.67-0.03-0.9-0.03
				c-1.14,0-3.07,0.29-5.79,0.88c-1.95,0.41-3.58,0.62-4.89,0.62c-3.56,0-6.44-1.19-8.64-3.57c-2.2-2.38-3.3-5.15-3.3-8.32
				c0-3.4,1.16-6.32,3.48-8.77c2.32-2.45,5.2-3.67,8.63-3.67c2.8,0,5.26,0.89,7.38,2.68c0.37-0.76,0.59-1.57,0.67-2.44H300
				l0.21,8.19h-1.88c-1.19-3.99-3.5-5.98-6.95-5.98c-2.05,0-3.62,0.75-4.69,2.26c-1.08,1.51-1.62,4.04-1.62,7.61
				c0,2.5,0.16,4.4,0.48,5.7c0.32,1.3,0.93,2.31,1.83,3.02c0.9,0.71,2.08,1.07,3.52,1.07c1.28,0,2.34-0.28,3.18-0.83
				s1.26-1.64,1.26-3.27v-0.86C295.34,108.44,294.44,107.69,292.64,107.58z"/>
			<path d="M315.36,105.3v5.79c0,1.11,0.06,1.83,0.19,2.17c0.13,0.34,0.47,0.62,1.02,0.85c0.55,0.22,1.39,0.34,2.52,0.34
				c1.53,0,2.66-0.19,3.38-0.57s1.37-1.05,1.94-2c0.57-0.96,0.98-1.98,1.24-3.06h1.94l-0.16,7.69h-21.43v-1.92h0.43
				c1.16,0,1.92-0.22,2.27-0.65s0.53-1.17,0.53-2.22v-13.9c0-1.07-0.18-1.82-0.54-2.24c-0.36-0.42-1.12-0.63-2.26-0.63h-0.43v-1.88
				h19.96l0.35,6.07h-1.94c-0.35-1.06-0.73-1.9-1.16-2.53c-0.43-0.63-0.86-1.03-1.29-1.21c-0.43-0.18-1.16-0.27-2.19-0.27h-4.37
				v8.09h2.18c1.04,0,1.73-0.2,2.07-0.59s0.53-1.16,0.58-2.32h1.95v7.95h-1.95c0.01-0.15,0.02-0.26,0.02-0.33
				c0-0.67-0.14-1.27-0.42-1.81s-1.01-0.81-2.17-0.81H315.36z"/>
			<path d="M354.63,114.37c-2.33,1.75-4.58,2.63-6.76,2.63c-1.89,0-3.52-0.62-4.89-1.86c-1.37-1.24-2.06-2.71-2.06-4.42
				c0-2.66,1.81-5,5.43-7.02c-1.16-1.84-1.75-3.48-1.75-4.91c0-1.66,0.53-2.96,1.59-3.89c1.06-0.93,2.48-1.4,4.25-1.4
				c1.59,0,2.88,0.38,3.86,1.14c0.99,0.76,1.48,1.8,1.48,3.13c0,2.1-1.24,3.79-3.73,5.08l4.77,6.24c1.26-1.77,1.88-3.05,1.88-3.82
				c0-0.77-0.51-1.18-1.52-1.21v-1.88h7.05v1.88c-0.85,0.17-1.52,0.49-2,0.94c-0.48,0.46-1.08,1.27-1.81,2.45
				c-0.79,1.3-1.56,2.41-2.28,3.34c0.89,1.16,1.58,1.96,2.09,2.39c0.51,0.43,1.03,0.64,1.57,0.64c1.15,0,1.81-0.81,1.97-2.42h1.92
				c-0.03,1.91-0.58,3.32-1.64,4.22c-1.06,0.9-2.35,1.35-3.87,1.35C358.16,116.96,356.3,116.1,354.63,114.37z M353.13,112.82
				l-5.57-7.28c-1.14,0.71-1.71,1.63-1.71,2.75c0,1.22,0.47,2.45,1.42,3.68c0.95,1.23,2.05,1.85,3.3,1.85
				C351.5,113.82,352.36,113.48,353.13,112.82z M350.69,101.08c1.41-0.97,2.11-2,2.11-3.09c0-0.76-0.22-1.37-0.65-1.81
				c-0.43-0.45-0.96-0.67-1.58-0.67c-0.47,0-0.89,0.14-1.26,0.42c-0.37,0.28-0.55,0.73-0.55,1.34
				C348.76,98.26,349.4,99.54,350.69,101.08z"/>
			<path d="M382.69,110.17l-0.45,1.16c-0.32,0.82-0.48,1.39-0.48,1.73c0,0.56,0.19,0.96,0.57,1.18c0.38,0.22,1,0.34,1.87,0.34v1.92
				h-7.74v-1.92c1.47,0,2.71-1.26,3.72-3.77l7.21-18.17h2.02l7.35,18.15c0.73,1.8,1.38,2.88,1.97,3.24
				c0.59,0.36,1.15,0.54,1.69,0.54v1.92h-11.63v-1.92c1.05,0,1.7-0.1,1.95-0.3c0.25-0.2,0.38-0.46,0.38-0.77
				c0-0.28-0.1-0.64-0.31-1.09l-0.22-0.54l-0.67-1.71H382.69z M383.44,108.18h5.69l-2.92-7L383.44,108.18z"/>
			<path d="M401.45,94.98v-1.92h12.39v1.92h-0.36c-1.16,0-1.92,0.22-2.27,0.65c-0.35,0.43-0.53,1.17-0.53,2.22v13.86
				c0,1.07,0.18,1.82,0.54,2.24c0.36,0.42,1.12,0.63,2.26,0.63h0.36v1.92h-12.39v-1.92c1.24,0,2.07-0.19,2.48-0.57
				c0.41-0.38,0.61-1.15,0.61-2.3V97.85c0-1.12-0.19-1.88-0.58-2.27S402.74,94.98,401.45,94.98z"/>
			<path d="M425.84,106.16v5.55c0,1.07,0.18,1.82,0.55,2.24c0.37,0.42,1.12,0.63,2.26,0.63h0.42v1.92h-12.64v-1.92h0.47
				c1.18,0,1.94-0.22,2.29-0.65s0.53-1.17,0.53-2.22V97.85c0-1.07-0.18-1.82-0.55-2.24c-0.37-0.42-1.12-0.63-2.26-0.63h-0.47v-1.92
				l9.4-0.02l2.11-0.02c2.09,0,3.61,0.07,4.57,0.21c0.96,0.14,1.91,0.47,2.84,0.99c0.93,0.52,1.67,1.24,2.2,2.15
				c0.54,0.91,0.8,1.89,0.8,2.94c0,2.79-1.58,4.7-4.74,5.72c0.84,0.53,2.15,2.19,3.92,4.98c1.38,2.15,2.37,3.45,2.96,3.9
				c0.59,0.44,1.23,0.67,1.94,0.67v1.92h-7.33c-0.67-0.79-1.91-2.81-3.72-6.05c-0.91-1.64-1.55-2.69-1.92-3.16
				c-0.37-0.47-0.75-0.77-1.13-0.91C427.97,106.24,427.13,106.17,425.84,106.16z M425.84,104.05c1.95,0.02,3.26-0.1,3.94-0.35
				c0.68-0.26,1.22-0.73,1.61-1.4c0.39-0.67,0.59-1.59,0.59-2.74c0-1.65-0.39-2.79-1.17-3.42c-0.78-0.63-2.12-0.95-4.02-0.95
				c-0.24,0-0.56,0.01-0.95,0.02V104.05z"/>
			<path d="M458.96,104.04c2.3,0.41,4.03,1.15,5.19,2.2c1.15,1.05,1.73,2.43,1.73,4.12c0,1.9-0.74,3.4-2.21,4.49
				c-1.48,1.09-3.92,1.64-7.35,1.64h-12.29v-1.92c1.23,0,2.05-0.19,2.45-0.58s0.61-1.15,0.61-2.29V97.97c0-1.11-0.19-1.86-0.57-2.26
				c-0.38-0.4-1.21-0.6-2.49-0.6v-1.92l9-0.26h1.28c4.06,0,6.82,0.5,8.3,1.51c1.48,1.01,2.21,2.38,2.21,4.12
				c0,1.31-0.49,2.43-1.46,3.34C462.39,102.8,460.92,103.52,458.96,104.04z M453.22,103.03h1.19c1.27,0,2.21-0.3,2.83-0.89
				c0.62-0.59,0.93-1.62,0.93-3.09c0-1.09-0.2-1.96-0.59-2.59c-0.39-0.63-0.91-1.04-1.55-1.23c-0.64-0.18-1.58-0.28-2.83-0.28
				V103.03z M453.22,105.14v6.65c0,0.65,0.07,1.14,0.2,1.47c0.13,0.33,0.39,0.61,0.78,0.84s0.93,0.34,1.63,0.34
				c1.09,0,1.92-0.39,2.46-1.16c0.55-0.77,0.82-1.93,0.82-3.47c0-1.23-0.18-2.2-0.54-2.9s-0.85-1.17-1.47-1.41
				c-0.62-0.24-1.54-0.36-2.77-0.36H453.22z"/>
			<path d="M469.98,104.71c0-2.11,0.59-4.17,1.76-6.17c1.17-2,2.77-3.49,4.78-4.45c2.01-0.96,4.16-1.44,6.46-1.44
				c4.12,0,7.36,1.19,9.71,3.57c2.35,2.38,3.52,5.3,3.52,8.75c0,3.28-1.17,6.11-3.51,8.47c-2.34,2.36-5.52,3.54-9.54,3.54
				c-2.75,0-5.19-0.58-7.3-1.75c-2.12-1.16-3.62-2.73-4.52-4.69C470.42,108.58,469.98,106.63,469.98,104.71z M477.2,104.52
				c0,3.61,0.48,6.21,1.45,7.8s2.41,2.39,4.32,2.39c1.99,0,3.5-0.73,4.51-2.19c1.01-1.46,1.52-4.01,1.52-7.67
				c0-3.34-0.48-5.84-1.43-7.48c-0.95-1.65-2.46-2.47-4.54-2.47c-1.96,0-3.42,0.77-4.39,2.3S477.2,101.18,477.2,104.52z"/>
			<path d="M502.89,110.17l-0.45,1.16c-0.32,0.82-0.48,1.39-0.48,1.73c0,0.56,0.19,0.96,0.57,1.18c0.38,0.22,1,0.34,1.87,0.34v1.92
				h-7.74v-1.92c1.47,0,2.71-1.26,3.72-3.77l7.21-18.17h2.02l7.35,18.15c0.73,1.8,1.38,2.88,1.97,3.24
				c0.59,0.36,1.15,0.54,1.69,0.54v1.92h-11.63v-1.92c1.05,0,1.7-0.1,1.95-0.3c0.25-0.2,0.38-0.46,0.38-0.77
				c0-0.28-0.1-0.64-0.31-1.09l-0.22-0.54l-0.67-1.71H502.89z M503.63,108.18h5.69l-2.92-7L503.63,108.18z"/>
			<path d="M528.63,95.15h-1.97c-1.18,0-2.04,0.13-2.59,0.38c-0.55,0.25-1.02,0.76-1.39,1.51c-0.38,0.75-0.6,1.65-0.68,2.69h-1.95
				v-6.67h23.46v6.67h-1.95c-0.37-1.8-0.89-3.01-1.56-3.64c-0.67-0.63-1.73-0.94-3.2-0.94h-2.02v16.56c0,1.07,0.18,1.82,0.54,2.24
				c0.36,0.42,1.13,0.63,2.29,0.63h0.6v1.92h-12.95v-1.92h0.55c1.18,0,1.94-0.22,2.29-0.65c0.35-0.43,0.53-1.17,0.53-2.22V95.15z"/>
			<path d="M547.33,116.1v-8.02h2.07c0.58,2.4,1.44,4.11,2.59,5.13c1.15,1.03,2.4,1.54,3.73,1.54c0.99,0,1.78-0.29,2.37-0.88
				c0.59-0.59,0.88-1.28,0.88-2.07c0-0.56-0.18-1.13-0.55-1.69c-0.37-0.56-1.25-1.19-2.63-1.88c-2.66-1.32-4.46-2.3-5.39-2.91
				c-0.93-0.62-1.68-1.41-2.25-2.38c-0.57-0.97-0.85-2.08-0.85-3.34c0-2.02,0.72-3.68,2.17-4.99c1.45-1.31,3.12-1.96,5.02-1.96
				c1.99,0,3.69,0.67,5.08,2c0.23-0.35,0.42-0.88,0.57-1.59h1.99v6.91h-1.94c-0.35-1.53-1-2.79-1.97-3.79
				c-0.97-0.99-2.06-1.49-3.27-1.49c-0.91,0-1.63,0.25-2.17,0.76c-0.54,0.51-0.8,1.14-0.8,1.9c0,0.59,0.17,1.13,0.52,1.63
				c0.35,0.5,0.81,0.92,1.4,1.24c0.59,0.33,1.83,0.94,3.73,1.82c1.71,0.81,2.97,1.53,3.79,2.16s1.47,1.43,1.95,2.39
				c0.48,0.96,0.72,2,0.72,3.12c0,2.07-0.77,3.8-2.3,5.18s-3.36,2.07-5.48,2.07c-1.21,0-2.39-0.25-3.55-0.76
				c-1.16-0.51-2.08-1.18-2.77-2.02c-0.27,0.52-0.46,1.15-0.59,1.9H547.33z"/>
		</g>
		<polygon points="174.72,42.74 185.07,42.74 193.28,64.36 201.98,42.74 212.44,42.74 218.55,83.2 208.04,83.2 205.09,59.91 
			204.98,59.91 195.27,83.2 191.08,83.2 181.8,59.91 181.7,59.91 178.31,83.2 167.85,83.2 		"/>
		<rect x="228.1" y="42.74" width="10.52" height="40.46"/>
		<path d="M278.69,56.32c-2.15-2.9-5.63-4.45-9.23-4.45c-6.44,0-10.78,4.94-10.78,11.21c0,6.38,4.4,11,10.95,11
			c3.44,0,6.87-1.66,9.07-4.29v12.61c-3.49,1.07-6.01,1.88-9.28,1.88c-5.63,0-11-2.15-15.18-5.96c-4.45-4.02-6.49-9.28-6.49-15.29
			c0-5.53,2.09-10.84,5.96-14.81c3.97-4.08,9.71-6.54,15.4-6.54c3.38,0,6.49,0.75,9.6,2.04V56.32z"/>
		<path d="M319.74,56.32c-2.15-2.9-5.63-4.45-9.23-4.45c-6.44,0-10.78,4.94-10.78,11.21c0,6.38,4.4,11,10.95,11
			c3.43,0,6.87-1.66,9.07-4.29v12.61c-3.49,1.07-6.01,1.88-9.28,1.88c-5.63,0-11-2.15-15.18-5.96c-4.45-4.02-6.49-9.28-6.49-15.29
			c0-5.53,2.09-10.84,5.96-14.81c3.97-4.08,9.71-6.54,15.4-6.54c3.38,0,6.49,0.75,9.61,2.04V56.32z"/>
		<path d="M372.69,62.22c0,13.09-9.39,22.32-22.37,22.32c-12.98,0-22.37-9.23-22.37-22.32c0-12.23,10.73-20.82,22.37-20.82
			C361.96,41.4,372.69,49.99,372.69,62.22 M338.89,62.27c0,6.98,5.15,12.07,11.43,12.07c6.28,0,11.43-5.1,11.43-12.07
			c0-5.58-5.15-10.68-11.43-10.68C344.04,51.6,338.89,56.69,338.89,62.27"/>
		<path d="M403,53.15c-1.93-1.61-4.4-2.68-6.98-2.68c-1.93,0-4.51,1.13-4.51,3.38c0,2.36,2.84,3.27,4.67,3.86l2.68,0.81
			c5.63,1.66,9.98,4.51,9.98,11.05c0,4.02-0.96,8.16-4.18,10.89c-3.17,2.68-7.4,3.81-11.48,3.81c-5.1,0-10.09-1.72-14.22-4.61
			l4.51-8.48c2.63,2.31,5.74,4.18,9.34,4.18c2.47,0,5.1-1.23,5.1-4.08c0-2.95-4.13-3.97-6.38-4.61c-6.6-1.88-10.95-3.59-10.95-11.43
			c0-8.21,5.85-13.57,13.95-13.57c4.08,0,9.07,1.29,12.66,3.33L403,53.15z"/>
		<path d="M453.22,42.74v22.75c0,5.2-0.21,10.35-4.24,14.27c-3.38,3.33-8.69,4.51-13.42,4.51c-4.72,0-10.03-1.18-13.41-4.51
			c-4.02-3.92-4.24-9.07-4.24-14.27V42.74h10.52v21.3c0,5.26,0.38,11,7.14,11c6.76,0,7.14-5.74,7.14-11v-21.3H453.22z"/>
		<polygon points="485.36,42.74 498.4,42.74 482.3,61.9 499.84,83.2 486.22,83.2 472.64,65.65 472.53,65.65 472.53,83.2 
			462.02,83.2 462.02,42.74 472.53,42.74 472.53,59.43 472.64,59.43 		"/>
		<polygon points="516.69,51.65 516.69,58.41 528.55,58.41 528.55,67.32 516.69,67.32 516.69,74.29 529.19,74.29 529.19,83.2 
			506.17,83.2 506.17,42.74 529.19,42.74 529.19,51.65 		"/>
		<polygon points="549.95,51.65 549.95,58.41 561.81,58.41 561.81,67.32 549.95,67.32 549.95,74.29 562.45,74.29 562.45,83.2 
			539.44,83.2 539.44,42.74 562.45,42.74 562.45,51.65 		"/>
	</g>
</g>
<g id="Layer_3" class="st0">
	<g class="st1">
		<g>
			<g>
				<g>
					<g id="XMLID_1_">
						<g>
							<path class="st8" d="M98.08,10.33c29.95,8.58,51.87,36.17,51.87,68.88c0,36.21-26.87,66.15-61.75,70.96v-0.01v-40.84
								c3.63-1.19,6.97-3.02,9.89-5.36v11.6v10.75v10.51c23.93-8.2,41.12-30.9,41.12-57.6c0-26.71-17.19-49.4-41.12-57.61V10.33z"/>
							<path d="M98.08,21.59C122,29.8,139.2,52.49,139.2,79.2c0,26.7-17.19,49.4-41.12,57.6v-10.51
								c18.38-7.73,31.29-25.9,31.29-47.09s-12.91-39.37-31.29-47.1V21.59z"/>
							<path class="st15" d="M98.08,32.11c18.38,7.73,31.29,25.91,31.29,47.1s-12.91,39.36-31.29,47.09v-10.75
								c12.87-7.02,21.6-20.66,21.6-36.35c0-15.69-8.73-29.33-21.6-36.35V32.11z"/>
							<path class="st16" d="M98.08,42.85c12.87,7.02,21.6,20.67,21.6,36.35c0,15.68-8.73,29.33-21.6,36.35v-11.6
								c7.26-5.8,11.91-14.73,11.91-24.74c0-14.04-9.14-25.95-21.79-30.1v0V8.24c3.38,0.47,6.67,1.16,9.89,2.09v11.27v10.52V42.85z"
								/>
							<path class="st8" d="M88.19,109.31c-3.11,1.02-6.43,1.57-9.89,1.57c-3.45,0-6.78-0.55-9.89-1.58
								c-3.63-1.19-6.97-3.02-9.89-5.36c-7.26-5.8-11.9-14.73-11.9-24.74c0-14.04,9.14-25.95,21.79-30.1
								c3.11-1.02,6.43-1.58,9.89-1.58c3.45,0,6.77,0.55,9.89,1.57c12.65,4.15,21.79,16.06,21.79,30.1
								c0,10.01-4.65,18.94-11.91,24.74C95.16,106.29,91.82,108.11,88.19,109.31z"/>
							<path d="M88.19,150.15v0.01c-3.23,0.45-6.53,0.68-9.89,0.68v-0.01v-39.95c3.45,0,6.77-0.55,9.89-1.57V150.15z"/>
							<path class="st15" d="M88.19,49.09L88.19,49.09c-3.11-1.01-6.43-1.57-9.89-1.57V7.56c3.35,0,6.65,0.23,9.89,0.68V49.09z"/>
							<path class="st15" d="M78.31,150.83v0.01c-3.36,0-6.66-0.23-9.89-0.68v-0.01V109.3c3.11,1.02,6.44,1.58,9.89,1.58V150.83z"/>
							<path d="M78.31,7.56v39.97c-3.45,0-6.77,0.55-9.89,1.58l0-0.01V8.24C71.65,7.79,74.95,7.56,78.31,7.56z"/>
							<path class="st8" d="M68.42,49.09L68.42,49.09C55.77,53.25,46.63,65.16,46.63,79.2c0,10.01,4.64,18.94,11.9,24.74v11.6
								c-12.87-7.02-21.59-20.66-21.59-36.35c0-15.69,8.73-29.33,21.59-36.35V32.11V21.59V10.37l-0.01-0.04
								c3.21-0.92,6.52-1.63,9.9-2.09V49.09z"/>
							<path class="st16" d="M68.42,150.15v0.01C33.53,145.34,6.67,115.41,6.67,79.2c0-32.7,21.91-60.29,51.86-68.87l0.01,0.04
								v11.22C34.61,29.8,17.41,52.49,17.41,79.2s17.2,49.4,41.12,57.6v-10.51v-10.75v-11.6c2.91,2.34,6.26,4.17,9.89,5.36V150.15z"
								/>
							<path class="st15" d="M58.53,126.29v10.51c-23.92-8.2-41.12-30.89-41.12-57.6s17.19-49.4,41.12-57.61v10.52
								c-18.38,7.73-31.29,25.91-31.29,47.1S40.15,118.57,58.53,126.29z"/>
							<path d="M58.53,115.55v10.75c-18.38-7.73-31.29-25.9-31.29-47.09s12.91-39.37,31.29-47.1v10.74
								C45.66,49.87,36.94,63.51,36.94,79.2C36.94,94.89,45.66,108.53,58.53,115.55z"/>
						</g>
						<g>
						</g>
					</g>
					<path class="st17" d="M149.95,79.2c0,39.56-32.08,71.64-71.64,71.64c-39.57,0-71.64-32.07-71.64-71.64
						c0-39.57,32.07-71.64,71.64-71.64C117.87,7.56,149.95,39.63,149.95,79.2z"/>
					<path class="st17" d="M109.99,79.2c0,17.49-14.18,31.68-31.68,31.68c-17.49,0-31.67-14.18-31.67-31.68
						c0-17.5,14.18-31.68,31.67-31.68C95.8,47.52,109.99,61.7,109.99,79.2z"/>
				</g>
				<g>
					<path d="M57.66,65.66c0.17-0.11-0.66-0.26-0.45-0.32c0.22-0.04,1.46-0.03,1.66-0.07c1.67-0.33,2.57-0.6,3.3-0.72
						c0.81-0.14,2.44-0.27,2.44-0.27s1.76-1.22,3.4,0.13c1.62,1.36,1.62,0.14,1.62,0.14s2.58-1.36,4.08-0.14
						c1.49,1.22,1.9,0.55,1.9,0.55s2.31-2.04,4.34-0.27c2.04,1.76,1.63,0.54,1.63,0.54s2.31-2.31,4.75-0.95
						c2.44,1.36,1.09,0.54,1.09,0.54l0.41,0.68c0,0,0.68-2.58,4.34-0.95c0.92,0.41,0.95,0.41,0.95,0.41s2.85-0.82,7.06,1.49
						c4.21,2.31-0.95,0.14-0.95,0.14l2.45,2.85c0,0-3.26-1.63-0.68,0.81c2.58,2.44,2.71,3.53,2.71,3.53s-2.17-1.9-0.68,1.09
						c1.49,2.99-0.13,0.95-0.13,0.95s-0.68,0.27,0.27,2.17c0.95,1.9-0.14,1.63-0.14,1.63s-1.77-2.85-0.95-1.09
						c0.82,1.76,1.96,3.1,1.9,3.12c-0.05,0.02-0.98-0.32-1.08-0.27c-0.08,0.04-0.08,0.44-0.02,0.99c0.07,0.62,0.24,1.4,0.29,1.73
						c0.06,0.4-0.19-0.45-0.45-1.07c-0.41-0.97-1.1-1.96-1.18-0.97c-0.14,1.76-0.14,1.76-0.14,1.76s-2.05-4.18-1.62-2.17
						c0.33,1.56,0.23,1.51,0.23,1.51s-1.59-3.68-1.73-0.02c-0.13,3.66-0.95-4.07-1.36-1.49c-0.41,2.58-2.85-3.4-3.12-0.14
						c-0.27,3.26-0.54,1.09-0.54,1.09l-0.95-1.09l-2.04-0.4l-1.08,2.03l-0.82-2.31c0,0-0.81,0.41-0.68,1.63
						c0.14,1.22,0.27,1.9,0.27,1.9l-0.95-0.95l-0.27-1.63c0,0-0.54-1.49-0.67,0.41c-0.14,1.9-0.14,1.9-0.14,1.9l-2.44-2.44
						c0,0-0.27,0.68-0.41,1.76c-0.14,1.08-0.55-1.5-1.63-2.17c-1.09-0.68-0.61,2.17-0.68,2.99c-0.08,0.96-0.41-2.99-1.09-3.66
						c-0.68-0.68-0.41,1.22-0.27,1.76c0.13,0.54-0.68-0.81-1.09-1.36c-0.4-0.54-0.14,1.9-0.27,2.31c-0.13,0.41-0.95-2.03-0.95-2.03
						s-1.09-0.81-0.95,2.17c0.14,2.99-1.22-1.63-1.22-1.63s-0.36-2.13-0.81,1.36c-0.15,1.13-0.54-1.36-0.54-1.36
						s-1.09,2.17-1.77,1.76c0,0,0.54-1.9-0.27-2.58c-0.81-0.68-0.41,1.9-0.41,1.9l-0.54-1.22c0,0-0.54,2.17-0.54,2.58
						c0,0.41-1.36-3.39-1.76-3.39c-0.4,0-0.68,2.31-0.68,2.31l-1.77-1.77c0,0-1.91-0.49-2.44,1.63c-0.14,0.54-1.08-0.68-1.08-0.68
						l-1.76,0.14c0,0-1.2,0.82-1.36,1.9c-0.09,0.63-0.64-1.18,0.14-2.04c1.16-1.3-0.68-1.74-1.67,0c-0.18,0.32-0.63-1.22-0.63-1.22
						s-1.54,1.9-1.77,3.26c-0.17,1.04,0.14-3.94,0.14-3.94s-0.75-0.37-1.76,0.72c-0.54,0.59-1.63,1.95-1.63,1.95
						s0.33-2.89,2.85-3.75c1.45-0.5-0.77-2.22-1.58-1.4c-0.81,0.81-2.35,1.54-2.35,1.54s2.58-3.8,3.12-4.48
						c0.54-0.68,3.8-3.39,3.8-3.39s-2.72-0.27-3.53,0.81c-0.45,0.6-1.11,1.56-1.61,2.05c-0.4,0.4-0.7,0.39-0.7,0.39
						s0.55-1.8,2.08-3.37c0.88-0.9,2.28-1.55,3.62-2.19c3.67-1.77-1.19,0.06-1.81,0.24c-0.62,0.17,1.77-1.86,1.77-1.86
						s-1.21-0.52-2.84,1.24c-0.86,0.94-0.43-0.2,0.43-1.21c0.75-0.89,1.89-1.63,1.89-1.63S57.34,65.86,57.66,65.66z"/>
					<rect x="62.99" y="61.7" class="st18" width="1.76" height="10.04"/>
					<rect x="68.69" y="61.7" class="st18" width="1.76" height="10.04"/>
					<rect x="74.39" y="61.7" class="st18" width="1.76" height="10.04"/>
					<rect x="80.09" y="61.7" class="st18" width="1.77" height="10.04"/>
					<rect x="85.79" y="61.7" class="st18" width="1.76" height="10.04"/>
					<rect x="91.49" y="61.7" class="st18" width="1.76" height="10.04"/>
					<rect x="68.75" y="85.96" width="18.93" height="1.52"/>
					<path d="M56.47,91.78c0,0,3.49-0.79,3.8-0.36c0.21,0.28,1.46,0.52,1.58,0.36c0.27-0.36,1.86-0.18,1.86-0.18
						s0.81-0.36,1.63-0.18c0.81,0.18,2.99,0.18,2.99,0.18l1.9-0.18h1.09h13.75l1.54,0.36l3.53-0.18l1.81,0.27l1.54-0.27
						c0,0,1.54,0.18,1.9,0.36c0.36,0.18,1.72,0.09,1.72,0.09s2.53-0.36,2.8,0c0.27,0.36-0.27,0.27-0.27,0.27l-3.71,0.27
						c0,0-1.9-0.36-1.9-0.09c0,0.27,0.63,0.72,0.63,0.72s-2.53-0.18-2.71,0.45c-0.18,0.63-2.17,0-2.53,0.36
						c-0.37,0.36-2.63,1.27-3.62,1c-1-0.27-1.45,0.63-0.72,0.9c0.72,0.27,1.72,0.09,1.72,0.09s-3.44,0.81-4.53,0.36
						c-1.08-0.45-3.8-1.36-4.52-0.54c-0.72,0.81-4.25,1-5.16,0.72c-0.9-0.27,0.82-0.63-0.9-0.63c-1.72,0-4.17-0.54-4.17-0.54
						s-0.45-1.27-2.08-0.54c-1.63,0.73-2.17,0.18-2.17,0.18s-0.81-0.54-1.27-0.45c-0.45,0.09-2.17-0.18-2.44-0.36
						c-0.27-0.18-0.09-0.72,0.63-0.54c0.72,0.18,1.72,0.18,2.08-0.18c0.36-0.36,0.36-0.9-0.18-0.81c-0.54,0.09-2.72-0.27-2.98-0.37
						C58.82,92.24,56.47,91.78,56.47,91.78z"/>
					<path d="M92.76,94.41c0,0,1.81,0.18,2.08-0.09c0.27-0.27-0.72-0.36-0.99-0.36c-0.27,0-0.82-0.18-1,0.18"/>
					<path d="M96.46,93.32c0,0,0.99,0,0.9-0.27c-0.09-0.27-0.99-0.45-1.08-0.09C96.19,93.32,96.46,93.32,96.46,93.32z"/>
					<path d="M55.48,71.33c0,0-1.09,3.17-1.09,3.89c0,0.73,0.81-0.54,0.81-0.54s1.18-3.26,1.45-3.53"/>
					<path d="M54.03,77.03l-0.54,3.71l0.91-0.36c0,0,0.45-2.99,0.81-3.26"/>
					<polygon points="60.14,80.29 60.14,91.97 60.54,92.1 60.54,80.43 					"/>
					<rect x="61.76" y="81.24" width="0.81" height="11.13"/>
					<path d="M60.49,87.89c0,0,0.5,0.17,0.74,0.38c0.24,0.22,0.72,0.91,0.72,0.91v-7.94h-1.91"/>
					<polyline points="66.65,92.1 66.65,80.97 63.8,80.97 63.8,92.1 					"/>
					<path class="st8" d="M64.48,91.69V90.2c0,0,0.67-1.67,1.22,0.14c0.35,1.14,0.11,1.44,0.11,1.44L64.48,91.69z"/>
					<polyline points="70.51,87.26 69.94,92.07 70.68,92.11 71.11,91.85 72.24,87.17 					"/>
					<polyline points="84.21,87.13 85.33,92.72 86.55,92.68 85.9,87.26 					"/>
					<polygon points="89.95,81.02 89.95,92.6 92.39,92.78 92.58,81.11 91.58,79.66 					"/>
					<polygon points="93.66,79.48 93.75,92.24 96.46,92.42 96.46,80.93 					"/>
					<path class="st8" d="M90.68,87.89c0,0,1.08,0.18,1.08,0.81c0,0.63,0,2.44,0,2.44s-0.18,0.91-0.54,0.45
						c-0.36-0.45-0.72-0.82-0.72-0.82L90.68,87.89z"/>
					<path class="st8" d="M94.29,89.7c0,0,0.18-1.18,0.63-0.45c0.45,0.72,0.63,0.45,0.63,1.26c0,0.82-0.18,1.45-0.18,1.45
						l-1.09-0.36V89.7z"/>
				</g>
			</g>
		</g>
		<g>
			<g>
				<path d="M174.72,45.54h10.36l8.21,21.62l8.69-21.62h10.46L218.55,86h-10.52l-2.95-23.29h-0.11L195.27,86h-4.19l-9.28-23.29
					h-0.11L178.31,86h-10.46L174.72,45.54z"/>
				<path d="M238.62,86H228.1V45.54h10.52V86z"/>
				<path d="M278.69,59.12c-2.15-2.9-5.63-4.45-9.23-4.45c-6.44,0-10.78,4.94-10.78,11.21c0,6.38,4.4,11,10.94,11
					c3.44,0,6.87-1.66,9.07-4.29v12.61c-3.49,1.07-6.01,1.88-9.28,1.88c-5.63,0-11-2.15-15.18-5.95c-4.45-4.02-6.49-9.28-6.49-15.29
					c0-5.53,2.09-10.84,5.96-14.81c3.97-4.08,9.71-6.55,15.4-6.55c3.38,0,6.49,0.75,9.6,2.04V59.12z"/>
				<path d="M319.74,59.12c-2.15-2.9-5.63-4.45-9.23-4.45c-6.44,0-10.79,4.94-10.79,11.21c0,6.38,4.4,11,10.95,11
					c3.43,0,6.87-1.66,9.07-4.29v12.61c-3.49,1.07-6.01,1.88-9.28,1.88c-5.63,0-11-2.15-15.18-5.95c-4.45-4.02-6.49-9.28-6.49-15.29
					c0-5.53,2.09-10.84,5.96-14.81c3.97-4.08,9.71-6.55,15.4-6.55c3.38,0,6.49,0.75,9.61,2.04V59.12z"/>
				<path d="M372.69,65.02c0,13.09-9.39,22.32-22.37,22.32s-22.37-9.23-22.37-22.32c0-12.23,10.73-20.82,22.37-20.82
					C361.96,44.2,372.69,52.79,372.69,65.02z M338.89,65.07c0,6.97,5.15,12.07,11.43,12.07c6.28,0,11.43-5.1,11.43-12.07
					c0-5.58-5.15-10.68-11.43-10.68C344.04,54.4,338.89,59.49,338.89,65.07z"/>
				<path d="M403,55.95c-1.93-1.61-4.4-2.68-6.98-2.68c-1.93,0-4.51,1.13-4.51,3.38c0,2.36,2.84,3.27,4.67,3.86l2.68,0.8
					c5.63,1.66,9.98,4.51,9.98,11.05c0,4.02-0.96,8.15-4.18,10.89c-3.17,2.68-7.4,3.81-11.48,3.81c-5.1,0-10.09-1.72-14.22-4.61
					l4.51-8.48c2.63,2.31,5.74,4.19,9.34,4.19c2.47,0,5.1-1.23,5.1-4.08c0-2.95-4.13-3.97-6.38-4.61
					c-6.6-1.88-10.95-3.59-10.95-11.43c0-8.21,5.85-13.57,13.95-13.57c4.08,0,9.07,1.29,12.66,3.33L403,55.95z"/>
				<path d="M453.22,45.54v22.75c0,5.2-0.21,10.36-4.24,14.27c-3.38,3.33-8.69,4.51-13.42,4.51c-4.72,0-10.03-1.18-13.41-4.51
					c-4.02-3.92-4.24-9.07-4.24-14.27V45.54h10.52v21.3c0,5.26,0.38,11,7.14,11c6.76,0,7.14-5.74,7.14-11v-21.3H453.22z"/>
				<path d="M485.36,45.54h13.04L482.3,64.7L499.84,86h-13.63l-13.57-17.55h-0.11V86h-10.52V45.54h10.52v16.69h0.11L485.36,45.54z"
					/>
				<path d="M516.69,54.45v6.76h11.86v8.91h-11.86v6.98h12.5V86h-23.02V45.54h23.02v8.91H516.69z"/>
				<path d="M549.95,54.45v6.76h11.86v8.91h-11.86v6.98h12.5V86h-23.02V45.54h23.02v8.91H549.95z"/>
			</g>
		</g>
		<g>
			<path d="M177.84,109.48c0,2.91,0.22,3.1,2.48,3.26v1.05h-9.44v-1.05c2.16-0.16,2.37-0.35,2.37-3.26V97.67h-0.46
				c-1.81,0-2.53,0.32-2.97,0.81c-0.32,0.4-0.65,1.11-1,2.62h-1.13c0.11-2.26,0.27-4.12,0.32-5.5h0.84c0.4,0.62,0.67,0.67,1.4,0.67
				h10.76c0.7,0,0.84-0.16,1.27-0.67h0.84c0.03,1.13,0.16,3.42,0.3,5.42l-1.19,0.08c-0.4-1.62-0.7-2.32-1.11-2.78
				c-0.46-0.49-1.35-0.65-2.64-0.65h-0.65V109.48z"/>
			<path d="M191.27,109.48c0,2.91,0.22,3.1,2.08,3.26v1.05h-8.52v-1.05c1.91-0.16,2.13-0.35,2.13-3.26v-8.9
				c0-2.91-0.22-3.1-2.02-3.26v-1.05h8.41c2.1,0,3.51,0.24,4.56,0.92c1.08,0.67,1.89,1.89,1.89,3.48c0,2.37-1.48,3.77-3.48,4.56
				c0.38,0.76,1.38,2.62,2.16,3.86c0.92,1.43,1.51,2.35,1.94,2.88c0.49,0.57,0.92,0.92,1.59,1.13l-0.05,0.94l-1.16-0.03
				c-3.83-0.08-4.72-0.89-5.8-2.45c-0.81-1.16-1.56-2.83-2.24-4.34c-0.24-0.57-0.62-0.97-1.13-0.97h-0.35V109.48z M191.27,104.98
				h0.38c0.86,0,1.51-0.08,2.02-0.46c1.11-0.86,1.51-2.13,1.51-3.45c0-2.59-1.64-3.45-2.7-3.45c-1.13,0-1.21,0.08-1.21,1.16V104.98z
				"/>
			<path d="M210.09,109.48c0,2.91,0.22,3.1,2.08,3.26v1.05h-8.74v-1.05c1.86-0.16,2.08-0.35,2.08-3.26v-8.9
				c0-2.91-0.22-3.1-2.08-3.26v-1.05h8.74v1.05c-1.86,0.16-2.08,0.35-2.08,3.26V109.48z"/>
			<path d="M216.45,100.58c0-2.91-0.22-3.1-1.94-3.26v-1.05h8.41c3.8,0,6.04,1.11,6.04,3.99c0,2.35-2.24,3.59-3.77,3.77v0.05
				c2.59,0.3,4.77,1.73,4.77,4.56c0,1.97-0.97,3.24-2.43,4.1c-1.29,0.76-3.18,1.05-5.42,1.05h-7.77v-1.05
				c1.89-0.16,2.1-0.35,2.1-3.26V100.58z M220.76,103.79h0.86c1.56,0,2.75-1,2.75-3.15c0-2.37-1.43-3.02-2.4-3.02
				c-0.67,0-0.97,0.08-1.05,0.16c-0.13,0.08-0.16,0.65-0.16,1.38V103.79z M220.76,109.56c0,2.43,0.59,2.88,1.59,2.88
				c1.08-0.03,2.72-0.89,2.72-3.53c0-2.72-1.65-3.88-3.53-3.88h-0.78V109.56z"/>
			<path d="M233.62,100.58c0-2.91-0.22-3.1-2.02-3.26v-1.05h12.78c0.03,0.46,0.16,2.43,0.3,4.45l-1.19,0.08
				c-0.27-1.32-0.57-2.08-1-2.51c-0.43-0.46-1.32-0.62-2.75-0.62h-0.46c-1.02,0-1.08,0-1.08,0.94v5.2h1.35
				c2.32,0,2.4-0.16,2.67-2.21h1.19v6.36h-1.19c-0.27-2.37-0.35-2.53-2.67-2.53h-1.35v4.4c0,1.4,0.05,2.08,0.54,2.32
				c0.43,0.22,1.05,0.24,1.89,0.24c1.08,0,2.27-0.16,2.86-0.81c0.46-0.49,0.92-1.48,1.32-2.78l1.19,0.19
				c-0.13,1.32-0.7,4.07-0.94,4.8h-13.72v-1.05c2.08-0.16,2.29-0.35,2.29-3.26V100.58z"/>
			<path d="M270.91,104.81c0,5.77-3.94,9.38-9.11,9.38c-5.45,0-8.98-3.96-8.98-8.92c0-4.37,2.91-9.41,9.36-9.41
				C267.11,95.86,270.91,99.48,270.91,104.81z M257.83,104.36c0,4.88,1.83,8.44,4.48,8.44c2.32,0,3.59-2.24,3.59-7.12
				c0-5.42-1.94-8.41-4.26-8.41C259.56,97.27,257.83,99.64,257.83,104.36z"/>
			<path d="M278.99,104.11h1.83c2.32,0,2.4-0.16,2.67-2.08h1.19v5.99h-1.19c-0.27-2.13-0.35-2.29-2.67-2.29h-1.83v3.75
				c0,2.91,0.22,3.1,2.43,3.26v1.05h-9.01v-1.05c1.78-0.16,2-0.35,2-3.26v-8.9c0-2.91-0.22-3.1-2-3.26v-1.05h13.02
				c0.03,0.46,0.16,2.43,0.3,4.5l-1.19,0.08c-0.27-1.38-0.57-2.13-1-2.56c-0.43-0.46-1.32-0.62-2.75-0.62h-1.27
				c-0.49,0-0.54,0-0.54,1V104.11z"/>
			<path d="M299.54,109.48c0,2.91,0.22,3.1,2.08,3.26v1.05h-8.74v-1.05c1.86-0.16,2.08-0.35,2.08-3.26v-8.9
				c0-2.91-0.22-3.1-2.08-3.26v-1.05h8.74v1.05c-1.86,0.16-2.08,0.35-2.08,3.26V109.48z"/>
			<path d="M319.59,113.98h-2.32l-9.98-12.73h-0.05v4.96c0,2.83,0.11,4.31,0.22,5.15c0.13,0.94,0.86,1.29,2.64,1.38v1.05h-6.71
				v-1.05c1.19-0.05,1.89-0.43,2.02-1.38c0.11-0.84,0.22-2.32,0.22-5.15v-4.96c0-2-0.05-2.35-0.59-3.1
				c-0.4-0.57-1.08-0.75-2.05-0.84v-1.05h5.96l8.98,11.19h0.05v-3.61c0-2.83-0.11-4.31-0.22-5.15c-0.13-0.94-0.86-1.29-2.64-1.38
				v-1.05h6.88v1.05c-1.35,0.05-2.05,0.43-2.18,1.38c-0.11,0.84-0.22,2.32-0.22,5.15V113.98z"/>
			<path d="M331.37,96.27c3.32,0,6.07,0.65,7.87,2.4c1.27,1.21,2.32,3.21,2.32,5.53c0,6.71-5.1,9.6-11.32,9.6h-6.96v-1.05
				c1.97-0.16,2.18-0.35,2.18-3.26v-8.9c0-2.91-0.22-3.1-1.97-3.26v-1.05H331.37z M330.05,109.51c0,2.4,0.59,2.86,1.89,2.86
				c2.32,0,4.66-2.56,4.66-7.33c0-5.8-2.94-7.41-5.23-7.41c-0.62,0-0.97,0.08-1.16,0.19c-0.13,0.05-0.16,0.67-0.16,1.35V109.51z"/>
			<path d="M349.11,109.48c0,2.91,0.22,3.1,2.08,3.26v1.05h-8.74v-1.05c1.86-0.16,2.08-0.35,2.08-3.26v-8.9
				c0-2.91-0.22-3.1-2.08-3.26v-1.05h8.74v1.05c-1.86,0.16-2.08,0.35-2.08,3.26V109.48z"/>
			<path d="M361.46,112.74l0.81-0.11c1-0.13,1.05-0.4,0.7-1.38l-0.97-2.75h-4.42l-0.81,2.59c-0.35,1.16-0.35,1.43,0.89,1.56
				l0.78,0.08v1.05h-6.28v-1.05c1.38-0.19,1.78-0.3,2.67-2.56l5.39-13.94l1.86-0.38l1.83,5.1c1.16,3.21,2.32,6.39,3.34,9.14
				c0.86,2.35,1.35,2.48,2.67,2.64v1.05h-8.47V112.74z M358.04,106.89h3.45l-1.7-5.15h-0.08L358.04,106.89z"/>
			<path d="M386.94,113.98h-2.32l-9.98-12.73h-0.05v4.96c0,2.83,0.11,4.31,0.22,5.15c0.13,0.94,0.86,1.29,2.64,1.38v1.05h-6.71
				v-1.05c1.19-0.05,1.89-0.43,2.02-1.38c0.11-0.84,0.22-2.32,0.22-5.15v-4.96c0-2-0.05-2.35-0.59-3.1
				c-0.4-0.57-1.08-0.75-2.05-0.84v-1.05h5.96l8.98,11.19h0.05v-3.61c0-2.83-0.11-4.31-0.22-5.15c-0.13-0.94-0.86-1.29-2.64-1.38
				v-1.05h6.88v1.05c-1.35,0.05-2.05,0.43-2.18,1.38c-0.11,0.84-0.22,2.32-0.22,5.15V113.98z"/>
			<path d="M391.84,108.24c0.57,1.56,2.16,4.56,4.8,4.56c1.4,0,2.48-0.92,2.48-2.67c0-1.59-1.05-2.48-2.7-3.24l-0.4-0.19
				c-2.21-1.02-4.72-2.43-4.72-5.31c0-3.05,2.21-5.53,6.44-5.53c0.84,0,1.7,0.11,2.48,0.32c0.62,0.16,1.05,0.27,1.4,0.38
				c0.11,1.05,0.3,2.37,0.59,4.21l-1.19,0.19c-0.59-1.78-1.54-3.69-3.67-3.69c-1.38,0-2.35,1.05-2.35,2.35
				c0,1.35,1.05,2.13,2.78,2.91l0.59,0.27c2.48,1.13,4.61,2.51,4.61,5.66c0,3.32-2.67,5.74-6.85,5.74c-1.08,0-2.18-0.22-2.91-0.46
				c-0.81-0.27-1.38-0.49-1.7-0.65c-0.22-1.24-0.57-2.7-0.89-4.5L391.84,108.24z"/>
			<path d="M428.48,104.81c0,5.77-3.94,9.38-9.11,9.38c-5.45,0-8.98-3.96-8.98-8.92c0-4.37,2.91-9.41,9.36-9.41
				C424.68,95.86,428.48,99.48,428.48,104.81z M415.4,104.36c0,4.88,1.83,8.44,4.48,8.44c2.32,0,3.59-2.24,3.59-7.12
				c0-5.42-1.94-8.41-4.26-8.41C417.13,97.27,415.4,99.64,415.4,104.36z"/>
			<path d="M436.57,104.11h1.83c2.32,0,2.4-0.16,2.67-2.08h1.19v5.99h-1.19c-0.27-2.13-0.35-2.29-2.67-2.29h-1.83v3.75
				c0,2.91,0.22,3.1,2.43,3.26v1.05h-9v-1.05c1.78-0.16,2-0.35,2-3.26v-8.9c0-2.91-0.22-3.1-2-3.26v-1.05h13.02
				c0.03,0.46,0.16,2.43,0.3,4.5l-1.19,0.08c-0.27-1.38-0.57-2.13-1-2.56c-0.43-0.46-1.32-0.62-2.75-0.62h-1.27
				c-0.49,0-0.54,0-0.54,1V104.11z"/>
			<path d="M457.11,104.11h1.83c2.32,0,2.4-0.16,2.67-2.08h1.19v5.99h-1.19c-0.27-2.13-0.35-2.29-2.67-2.29h-1.83v3.75
				c0,2.91,0.22,3.1,2.43,3.26v1.05h-9v-1.05c1.78-0.16,2-0.35,2-3.26v-8.9c0-2.91-0.22-3.1-2-3.26v-1.05h13.02
				c0.03,0.46,0.16,2.43,0.3,4.5l-1.19,0.08c-0.27-1.38-0.57-2.13-1-2.56c-0.43-0.46-1.32-0.62-2.75-0.62h-1.27
				c-0.49,0-0.54,0-0.54,1V104.11z"/>
			<path d="M472.26,109.83c0,1.4,0.05,2.08,0.54,2.32c0.43,0.22,1.05,0.24,1.89,0.24c0.86,0,2.02-0.08,2.59-0.78
				c0.43-0.51,0.89-1.24,1.32-2.67l1.16,0.19c-0.16,1.02-0.73,3.83-0.97,4.66h-13.37v-1.05c2.05-0.16,2.26-0.35,2.26-3.26v-8.9
				c0-2.91-0.22-3.1-2.02-3.26v-1.05h8.76v1.05c-1.94,0.16-2.16,0.35-2.16,3.26V109.83z"/>
			<path d="M498.49,104.81c0,5.77-3.94,9.38-9.11,9.38c-5.45,0-8.98-3.96-8.98-8.92c0-4.37,2.91-9.41,9.36-9.41
				C494.69,95.86,498.49,99.48,498.49,104.81z M485.42,104.36c0,4.88,1.83,8.44,4.48,8.44c2.32,0,3.59-2.24,3.59-7.12
				c0-5.42-1.94-8.41-4.26-8.41C487.14,97.27,485.42,99.64,485.42,104.36z"/>
			<path d="M505.77,109.48c0,2.91,0.22,3.1,2.08,3.26v1.05h-8.52v-1.05c1.91-0.16,2.13-0.35,2.13-3.26v-8.9
				c0-2.91-0.22-3.1-2.02-3.26v-1.05h8.41c2.1,0,3.5,0.24,4.56,0.92c1.08,0.67,1.89,1.89,1.89,3.48c0,2.37-1.48,3.77-3.48,4.56
				c0.38,0.76,1.38,2.62,2.16,3.86c0.92,1.43,1.51,2.35,1.94,2.88c0.49,0.57,0.92,0.92,1.59,1.13l-0.05,0.94l-1.16-0.03
				c-3.83-0.08-4.72-0.89-5.8-2.45c-0.81-1.16-1.56-2.83-2.24-4.34c-0.24-0.57-0.62-0.97-1.13-0.97h-0.35V109.48z M505.77,104.98
				h0.38c0.86,0,1.51-0.08,2.02-0.46c1.11-0.86,1.51-2.13,1.51-3.45c0-2.59-1.65-3.45-2.7-3.45c-1.13,0-1.21,0.08-1.21,1.16V104.98z
				"/>
			<path d="M524.59,109.48c0,2.91,0.22,3.1,2.08,3.26v1.05h-8.74v-1.05c1.86-0.16,2.08-0.35,2.08-3.26v-8.9
				c0-2.91-0.22-3.1-2.08-3.26v-1.05h8.74v1.05c-1.86,0.16-2.08,0.35-2.08,3.26V109.48z"/>
			<path d="M536.58,96.27c3.32,0,6.07,0.65,7.87,2.4c1.27,1.21,2.32,3.21,2.32,5.53c0,6.71-5.1,9.6-11.32,9.6h-6.96v-1.05
				c1.97-0.16,2.18-0.35,2.18-3.26v-8.9c0-2.91-0.22-3.1-1.97-3.26v-1.05H536.58z M535.26,109.51c0,2.4,0.59,2.86,1.89,2.86
				c2.32,0,4.66-2.56,4.66-7.33c0-5.8-2.94-7.41-5.23-7.41c-0.62,0-0.97,0.08-1.16,0.19c-0.13,0.05-0.16,0.67-0.16,1.35V109.51z"/>
			<path d="M554.38,112.74l0.81-0.11c1-0.13,1.05-0.4,0.7-1.38l-0.97-2.75h-4.42l-0.81,2.59c-0.35,1.16-0.35,1.43,0.89,1.56
				l0.78,0.08v1.05h-6.28v-1.05c1.38-0.19,1.78-0.3,2.67-2.56l5.39-13.94l1.86-0.38l1.83,5.1c1.16,3.21,2.32,6.39,3.34,9.14
				c0.86,2.35,1.35,2.48,2.67,2.64v1.05h-8.47V112.74z M550.95,106.89h3.45l-1.7-5.15h-0.08L550.95,106.89z"/>
		</g>
	</g>
</g>
<g id="Layer_2">
	<g>
		<g>
			<defs>
				<rect id="SVGID_9_" x="6.67" y="7.56" width="143.28" height="143.28"/>
			</defs>
			<clipPath id="SVGID_10_">
				<use xlink:href="#SVGID_9_"  style="overflow:visible;"/>
			</clipPath>
			<g class="st19">
				<defs>
					<rect id="SVGID_11_" x="6.67" y="7.56" width="143.28" height="143.28"/>
				</defs>
				<clipPath id="SVGID_12_">
					<use xlink:href="#SVGID_11_"  style="overflow:visible;"/>
				</clipPath>
				<path class="st20" d="M98.08,10.33c29.95,8.58,51.87,36.17,51.87,68.88c0,36.21-26.87,66.15-61.75,70.96v-0.01v-40.84
					c3.63-1.19,6.97-3.02,9.89-5.36v11.6v10.75v10.51c23.93-8.2,41.12-30.9,41.12-57.6c0-26.71-17.19-49.4-41.12-57.61V10.33z"/>
				<path class="st21" d="M98.08,21.59C122,29.8,139.2,52.49,139.2,79.2c0,26.71-17.19,49.4-41.12,57.6V126.3
					c18.38-7.73,31.29-25.9,31.29-47.09s-12.91-39.37-31.29-47.1V21.59z"/>
				<path class="st22" d="M98.08,32.11c18.38,7.73,31.29,25.91,31.29,47.1c0,21.19-12.91,39.36-31.29,47.09v-10.75
					c12.87-7.01,21.6-20.66,21.6-36.34c0-15.69-8.73-29.34-21.6-36.35V32.11z"/>
				<path class="st23" d="M98.08,42.85c12.87,7.02,21.6,20.67,21.6,36.35c0,15.69-8.73,29.33-21.6,36.35v-11.6
					c7.26-5.8,11.91-14.73,11.91-24.74c0-14.04-9.14-25.95-21.79-30.1v0V8.24c3.38,0.47,6.67,1.16,9.89,2.09v11.27v10.51V42.85z"/>
				<path class="st20" d="M68.42,109.3c-3.63-1.19-6.97-3.02-9.89-5.36c-7.26-5.8-11.9-14.73-11.9-24.74
					c0-14.04,9.14-25.95,21.79-30.1c3.11-1.02,6.43-1.58,9.89-1.58c3.45,0,6.78,0.55,9.89,1.57c12.65,4.15,21.79,16.06,21.79,30.1
					c0,10.01-4.65,18.94-11.9,24.74c-2.92,2.34-6.25,4.17-9.89,5.36c-3.11,1.02-6.43,1.57-9.89,1.57
					C74.85,110.88,71.53,110.33,68.42,109.3"/>
				<path class="st21" d="M88.19,150.15v0.01c-3.23,0.45-6.53,0.68-9.89,0.68v-0.01v-39.95c3.45,0,6.77-0.55,9.89-1.57V150.15z"/>
				<path class="st22" d="M88.19,49.09L88.19,49.09c-3.11-1.01-6.43-1.57-9.89-1.57V7.56c3.35,0,6.65,0.23,9.89,0.68V49.09z"/>
				<path class="st22" d="M78.31,150.83v0.01c-3.36,0-6.65-0.23-9.89-0.68v-0.01V109.3c3.11,1.02,6.43,1.58,9.89,1.58V150.83z"/>
				<path class="st21" d="M78.31,7.56v39.97c-3.45,0-6.78,0.55-9.89,1.58l0-0.01V8.24C71.65,7.79,74.95,7.56,78.31,7.56"/>
				<path class="st20" d="M68.42,49.09l0,0.01c-12.65,4.14-21.79,16.05-21.79,30.1c0,10.01,4.65,18.94,11.9,24.74v11.6
					c-12.87-7.01-21.59-20.66-21.59-36.35c0-15.69,8.73-29.33,21.59-36.35V32.11V21.59V10.37l-0.01-0.04
					c3.21-0.92,6.52-1.62,9.9-2.09V49.09z"/>
				<path class="st23" d="M68.42,150.15v0.01C33.53,145.35,6.67,115.41,6.67,79.2c0-32.7,21.91-60.29,51.86-68.87l0.01,0.04v11.22
					C34.61,29.8,17.41,52.49,17.41,79.2s17.2,49.4,41.12,57.6v-10.51v-10.75v-11.6c2.92,2.34,6.26,4.17,9.89,5.36V150.15z"/>
				<path class="st22" d="M58.53,126.3v10.51c-23.92-8.2-41.12-30.89-41.12-57.6c0-26.71,17.2-49.4,41.12-57.61v10.52
					c-18.38,7.73-31.29,25.91-31.29,47.1C27.24,100.39,40.15,118.57,58.53,126.3"/>
				<path class="st21" d="M58.53,115.55v10.75c-18.38-7.73-31.29-25.9-31.29-47.09s12.91-39.37,31.29-47.1v10.74
					C45.66,49.87,36.94,63.51,36.94,79.2C36.94,94.89,45.66,108.53,58.53,115.55"/>
			</g>
		</g>
		<path class="st7" d="M149.95,79.2c0,39.56-32.07,71.64-71.64,71.64S6.67,118.76,6.67,79.2c0-39.57,32.07-71.64,71.64-71.64
			S149.95,39.63,149.95,79.2z"/>
		<path class="st7" d="M109.99,79.2c0,17.49-14.18,31.68-31.68,31.68S46.63,96.69,46.63,79.2c0-17.49,14.18-31.68,31.67-31.68
			S109.99,61.7,109.99,79.2z"/>
		<path d="M57.66,65.66c0.17-0.11-0.66-0.26-0.45-0.32c0.22-0.04,1.46-0.03,1.66-0.07c1.67-0.33,2.57-0.6,3.3-0.72
			c0.81-0.14,2.44-0.27,2.44-0.27s1.76-1.22,3.4,0.14c1.62,1.36,1.62,0.14,1.62,0.14s2.58-1.36,4.08-0.14
			c1.49,1.22,1.9,0.54,1.9,0.54s2.31-2.04,4.34-0.27c2.04,1.76,1.63,0.54,1.63,0.54s2.31-2.31,4.75-0.95
			c2.44,1.36,1.09,0.54,1.09,0.54l0.41,0.68c0,0,0.68-2.58,4.34-0.95c0.92,0.41,0.95,0.41,0.95,0.41s2.85-0.82,7.06,1.49
			c4.21,2.31-0.95,0.14-0.95,0.14l2.45,2.85c0,0-3.26-1.63-0.68,0.81c2.58,2.44,2.71,3.53,2.71,3.53s-2.17-1.9-0.68,1.09
			c1.49,2.99-0.13,0.95-0.13,0.95s-0.68,0.27,0.27,2.17c0.95,1.9-0.14,1.63-0.14,1.63s-1.77-2.85-0.95-1.09
			c0.82,1.76,1.96,3.1,1.9,3.12c-0.05,0.02-0.98-0.32-1.08-0.27c-0.08,0.04-0.08,0.44-0.02,0.99c0.07,0.62,0.24,1.4,0.29,1.73
			c0.06,0.4-0.19-0.45-0.45-1.07c-0.41-0.97-1.1-1.96-1.18-0.97l-0.14,1.76c0,0-2.04-4.18-1.62-2.17c0.33,1.56,0.24,1.51,0.24,1.51
			s-1.59-3.68-1.73-0.02c-0.13,3.67-0.95-4.07-1.36-1.49c-0.41,2.58-2.85-3.39-3.12-0.14c-0.27,3.26-0.54,1.09-0.54,1.09l-0.95-1.09
			l-2.04-0.4l-1.08,2.03l-0.82-2.31c0,0-0.81,0.41-0.68,1.63c0.14,1.22,0.28,1.9,0.28,1.9l-0.95-0.95l-0.27-1.63
			c0,0-0.54-1.5-0.67,0.41l-0.14,1.9l-2.44-2.44c0,0-0.27,0.68-0.41,1.76c-0.14,1.08-0.55-1.5-1.63-2.17
			c-1.09-0.68-0.61,2.17-0.68,2.99c-0.08,0.96-0.41-2.99-1.08-3.66c-0.68-0.68-0.41,1.22-0.27,1.76c0.14,0.54-0.68-0.81-1.09-1.36
			c-0.4-0.54-0.14,1.9-0.27,2.31c-0.13,0.41-0.95-2.03-0.95-2.03s-1.09-0.81-0.95,2.17c0.14,2.99-1.22-1.63-1.22-1.63
			s-0.36-2.13-0.81,1.36c-0.15,1.13-0.54-1.36-0.54-1.36s-1.09,2.17-1.77,1.76c0,0,0.54-1.9-0.27-2.58c-0.81-0.68-0.41,1.9-0.41,1.9
			l-0.54-1.22c0,0-0.54,2.17-0.54,2.58c0,0.41-1.36-3.39-1.76-3.39c-0.4,0-0.68,2.31-0.68,2.31l-1.77-1.76c0,0-1.91-0.49-2.44,1.63
			c-0.14,0.54-1.08-0.68-1.08-0.68l-1.76,0.14c0,0-1.2,0.82-1.36,1.9c-0.09,0.63-0.64-1.18,0.14-2.04c1.16-1.3-0.68-1.74-1.67,0
			c-0.18,0.32-0.63-1.22-0.63-1.22s-1.54,1.9-1.77,3.26c-0.17,1.03,0.14-3.94,0.14-3.94s-0.75-0.37-1.76,0.72
			c-0.55,0.59-1.63,1.95-1.63,1.95s0.33-2.89,2.85-3.75c1.45-0.5-0.77-2.22-1.58-1.4c-0.81,0.81-2.35,1.54-2.35,1.54
			s2.58-3.8,3.12-4.48c0.54-0.68,3.8-3.39,3.8-3.39s-2.72-0.27-3.53,0.81c-0.45,0.6-1.11,1.56-1.61,2.05c-0.4,0.4-0.7,0.39-0.7,0.39
			s0.55-1.81,2.08-3.37c0.88-0.9,2.28-1.55,3.62-2.19c3.67-1.77-1.19,0.06-1.81,0.24c-0.62,0.17,1.77-1.86,1.77-1.86
			s-1.21-0.53-2.84,1.24c-0.86,0.94-0.43-0.2,0.43-1.21c0.76-0.89,1.89-1.63,1.89-1.63S57.34,65.86,57.66,65.66"/>
		<rect x="62.99" y="61.7" class="st8" width="1.76" height="10.04"/>
		<rect x="62.99" y="61.7" class="st9" width="1.76" height="10.04"/>
		<rect x="68.69" y="61.7" class="st8" width="1.76" height="10.04"/>
		<rect x="68.69" y="61.7" class="st9" width="1.76" height="10.04"/>
		<rect x="74.39" y="61.7" class="st8" width="1.76" height="10.04"/>
		<rect x="74.39" y="61.7" class="st9" width="1.76" height="10.04"/>
		<rect x="80.09" y="61.7" class="st8" width="1.77" height="10.04"/>
		<rect x="80.09" y="61.7" class="st9" width="1.77" height="10.04"/>
		<rect x="85.79" y="61.7" class="st8" width="1.76" height="10.04"/>
		<rect x="85.79" y="61.7" class="st9" width="1.76" height="10.04"/>
		<rect x="91.49" y="61.7" class="st8" width="1.76" height="10.04"/>
		<rect x="91.49" y="61.7" class="st9" width="1.76" height="10.04"/>
		<rect x="68.75" y="85.96" width="18.93" height="1.52"/>
		<path d="M56.47,91.78c0,0,3.49-0.78,3.8-0.36c0.21,0.28,1.46,0.52,1.58,0.36c0.27-0.36,1.86-0.18,1.86-0.18s0.81-0.36,1.63-0.18
			c0.81,0.18,2.99,0.18,2.99,0.18l1.9-0.18h1.09h13.75l1.54,0.36l3.53-0.18l1.81,0.27l1.54-0.27c0,0,1.54,0.18,1.9,0.36
			c0.36,0.18,1.72,0.09,1.72,0.09s2.53-0.36,2.8,0c0.27,0.36-0.27,0.27-0.27,0.27l-3.71,0.27c0,0-1.9-0.36-1.9-0.09
			c0,0.27,0.63,0.72,0.63,0.72s-2.53-0.18-2.71,0.45c-0.18,0.64-2.17,0-2.53,0.36c-0.37,0.36-2.63,1.27-3.62,1
			c-1-0.27-1.45,0.63-0.72,0.9c0.72,0.27,1.72,0.09,1.72,0.09s-3.44,0.81-4.53,0.36c-1.08-0.45-3.8-1.36-4.52-0.54
			c-0.72,0.81-4.25,1-5.16,0.72c-0.9-0.27,0.82-0.63-0.9-0.63c-1.72,0-4.17-0.54-4.17-0.54s-0.45-1.27-2.08-0.54
			c-1.63,0.72-2.17,0.18-2.17,0.18s-0.81-0.54-1.26-0.45c-0.45,0.09-2.17-0.18-2.44-0.36c-0.27-0.18-0.09-0.72,0.63-0.54
			c0.72,0.18,1.72,0.18,2.08-0.18c0.36-0.36,0.36-0.9-0.18-0.81c-0.54,0.09-2.72-0.27-2.98-0.37
			C58.82,92.24,56.47,91.78,56.47,91.78"/>
		<path d="M92.76,94.41c0,0,1.81,0.18,2.08-0.09c0.27-0.27-0.72-0.36-0.99-0.36c-0.27,0-0.82-0.18-1,0.18"/>
		<path d="M96.47,93.32c0,0,0.99,0,0.9-0.27c-0.09-0.27-0.99-0.45-1.08-0.09C96.19,93.32,96.47,93.32,96.47,93.32"/>
		<path d="M55.48,71.33c0,0-1.09,3.17-1.09,3.89s0.81-0.54,0.81-0.54s1.18-3.26,1.45-3.53"/>
		<path d="M54.03,77.03l-0.54,3.71l0.91-0.36c0,0,0.45-2.99,0.81-3.26"/>
		<polygon points="60.14,80.29 60.14,91.97 60.54,92.1 60.54,80.43 		"/>
		<rect x="61.76" y="81.24" width="0.81" height="11.13"/>
		<path d="M60.49,87.89c0,0,0.5,0.17,0.74,0.38c0.24,0.22,0.72,0.91,0.72,0.91v-7.94h-1.91"/>
		<polyline points="66.65,92.1 66.65,80.97 63.8,80.97 63.8,92.1 		"/>
		<path class="st8" d="M64.48,91.69V90.2c0,0,0.67-1.67,1.22,0.14c0.35,1.14,0.11,1.44,0.11,1.44L64.48,91.69z"/>
		<polyline points="70.51,87.26 69.94,92.07 70.68,92.11 71.11,91.85 72.24,87.17 		"/>
		<polyline points="84.21,87.13 85.33,92.72 86.55,92.68 85.9,87.26 		"/>
		<polygon points="89.95,81.02 89.95,92.6 92.39,92.78 92.58,81.11 91.58,79.66 		"/>
		<polygon points="93.66,79.48 93.75,92.24 96.47,92.42 96.47,80.93 		"/>
		<path class="st8" d="M90.68,87.89c0,0,1.08,0.18,1.08,0.81v2.44c0,0-0.18,0.91-0.54,0.45c-0.36-0.45-0.72-0.82-0.72-0.82
			L90.68,87.89z"/>
		<path class="st8" d="M94.29,89.7c0,0,0.18-1.18,0.63-0.45c0.45,0.72,0.63,0.45,0.63,1.26c0,0.82-0.18,1.45-0.18,1.45l-1.09-0.36
			V89.7z"/>
	</g>
	<polygon points="174.72,40.7 185.07,40.7 193.28,62.32 201.98,40.7 212.44,40.7 218.55,81.15 208.04,81.15 205.09,57.87 
		204.98,57.87 195.27,81.15 191.08,81.15 181.8,57.87 181.7,57.87 178.31,81.15 167.85,81.15 	"/>
	<rect x="228.1" y="40.7" width="10.52" height="40.46"/>
	<path d="M278.69,54.27c-2.15-2.9-5.63-4.45-9.23-4.45c-6.44,0-10.78,4.94-10.78,11.21c0,6.38,4.4,11,10.95,11
		c3.43,0,6.87-1.66,9.07-4.29v12.61c-3.49,1.07-6.01,1.88-9.28,1.88c-5.63,0-11-2.15-15.18-5.95c-4.45-4.02-6.49-9.28-6.49-15.29
		c0-5.53,2.09-10.84,5.96-14.81c3.97-4.08,9.71-6.54,15.4-6.54c3.38,0,6.49,0.75,9.6,2.04V54.27z"/>
	<path d="M319.74,54.27c-2.15-2.9-5.63-4.45-9.23-4.45c-6.44,0-10.78,4.94-10.78,11.21c0,6.38,4.4,11,10.95,11
		c3.43,0,6.87-1.66,9.07-4.29v12.61c-3.49,1.07-6.01,1.88-9.28,1.88c-5.63,0-11-2.15-15.18-5.95c-4.45-4.02-6.49-9.28-6.49-15.29
		c0-5.53,2.09-10.84,5.95-14.81c3.97-4.08,9.71-6.54,15.4-6.54c3.38,0,6.49,0.75,9.61,2.04V54.27z"/>
	<path d="M372.69,60.17c0,13.09-9.39,22.32-22.37,22.32c-12.98,0-22.37-9.23-22.37-22.32c0-12.23,10.73-20.82,22.37-20.82
		S372.69,47.94,372.69,60.17 M338.89,60.23c0,6.98,5.15,12.07,11.43,12.07c6.28,0,11.43-5.1,11.43-12.07
		c0-5.58-5.15-10.68-11.43-10.68C344.04,49.55,338.89,54.65,338.89,60.23"/>
	<path d="M403,51.11c-1.93-1.61-4.4-2.68-6.98-2.68c-1.93,0-4.51,1.13-4.51,3.38c0,2.36,2.84,3.27,4.67,3.86l2.68,0.8
		c5.63,1.66,9.98,4.51,9.98,11.05c0,4.02-0.96,8.16-4.18,10.89c-3.17,2.68-7.4,3.81-11.48,3.81c-5.1,0-10.09-1.72-14.22-4.61
		l4.51-8.48c2.63,2.31,5.74,4.19,9.34,4.19c2.47,0,5.1-1.23,5.1-4.08c0-2.95-4.13-3.97-6.38-4.61c-6.6-1.88-10.95-3.6-10.95-11.43
		c0-8.21,5.85-13.57,13.95-13.57c4.08,0,9.07,1.29,12.66,3.33L403,51.11z"/>
	<path d="M453.22,40.7v22.75c0,5.2-0.21,10.35-4.24,14.27c-3.38,3.33-8.69,4.51-13.41,4.51c-4.72,0-10.03-1.18-13.41-4.51
		c-4.02-3.92-4.24-9.07-4.24-14.27V40.7h10.52V62c0,5.26,0.38,11,7.14,11c6.76,0,7.14-5.74,7.14-11V40.7H453.22z"/>
	<polygon points="485.36,40.7 498.39,40.7 482.3,59.85 499.84,81.15 486.21,81.15 472.64,63.61 472.53,63.61 472.53,81.15 
		462.02,81.15 462.02,40.7 472.53,40.7 472.53,57.38 472.64,57.38 	"/>
	<polygon points="516.69,49.6 516.69,56.36 528.55,56.36 528.55,65.27 516.69,65.27 516.69,72.25 529.19,72.25 529.19,81.15 
		506.17,81.15 506.17,40.7 529.19,40.7 529.19,49.6 	"/>
	<polygon points="549.95,49.6 549.95,56.36 561.81,56.36 561.81,65.27 549.95,65.27 549.95,72.25 562.45,72.25 562.45,81.15 
		539.43,81.15 539.43,40.7 562.45,40.7 562.45,49.6 	"/>
	<path d="M177.78,111.73c0,4.52,0.34,4.81,3.22,5.06v1.63h-13.21v-1.63c2.97-0.25,3.3-0.54,3.3-5.06v-13.8
		c0-4.52-0.33-4.81-3.14-5.06v-1.63H181c3.26,0,5.44,0.38,7.07,1.42c1.67,1.04,2.93,2.93,2.93,5.39c0,3.68-2.3,5.86-5.39,7.07
		c0.58,1.17,2.13,4.06,3.35,5.98c1.42,2.21,2.34,3.64,3.01,4.47c0.75,0.88,1.42,1.42,2.47,1.75l-0.08,1.47l-1.8-0.04
		c-5.94-0.13-7.32-1.38-8.99-3.81c-1.25-1.8-2.42-4.39-3.47-6.73c-0.38-0.88-0.96-1.51-1.76-1.51h-0.54V111.73z M177.78,104.74h0.59
		c1.34,0,2.34-0.13,3.14-0.71c1.71-1.34,2.34-3.31,2.34-5.35c0-4.02-2.55-5.35-4.18-5.35c-1.76,0-1.88,0.12-1.88,1.8V104.74z"/>
	<path d="M200.28,97.93c0-4.52-0.34-4.81-3.14-5.06v-1.63h19.82c0.04,0.71,0.25,3.76,0.46,6.9l-1.84,0.13
		c-0.42-2.05-0.88-3.22-1.55-3.89c-0.67-0.71-2.05-0.96-4.26-0.96h-0.71c-1.59,0-1.67,0-1.67,1.46v8.07h2.09
		c3.6,0,3.72-0.25,4.14-3.43h1.84v9.87h-1.84c-0.42-3.68-0.54-3.93-4.14-3.93h-2.09v6.82c0,2.18,0.08,3.22,0.84,3.6
		c0.67,0.33,1.63,0.38,2.93,0.38c1.67,0,3.51-0.25,4.43-1.25c0.71-0.75,1.42-2.3,2.05-4.31l1.84,0.29
		c-0.21,2.05-1.09,6.31-1.46,7.44h-21.29v-1.63c3.22-0.25,3.56-0.54,3.56-5.06V97.93z"/>
	<path d="M225.25,109.8c0.88,2.43,3.35,7.07,7.44,7.07c2.18,0,3.85-1.42,3.85-4.14c0-2.47-1.63-3.85-4.18-5.02l-0.63-0.29
		c-3.43-1.59-7.32-3.76-7.32-8.24c0-4.73,3.43-8.57,9.99-8.57c1.3,0,2.64,0.17,3.85,0.5c0.96,0.25,1.63,0.42,2.18,0.59
		c0.17,1.63,0.46,3.68,0.92,6.52l-1.84,0.29c-0.92-2.76-2.38-5.73-5.69-5.73c-2.13,0-3.64,1.63-3.64,3.64c0,2.09,1.63,3.3,4.31,4.52
		l0.92,0.42c3.85,1.76,7.15,3.89,7.15,8.78c0,5.14-4.14,8.91-10.62,8.91c-1.67,0-3.39-0.33-4.52-0.71
		c-1.26-0.42-2.13-0.75-2.64-1.01c-0.33-1.92-0.88-4.18-1.38-6.98L225.25,109.8z"/>
	<path d="M274.2,104.49c0,8.95-6.11,14.55-14.14,14.55c-8.45,0-13.92-6.15-13.92-13.84c0-6.78,4.51-14.6,14.51-14.6
		C268.3,90.61,274.2,96.21,274.2,104.49 M253.92,103.78c0,7.57,2.84,13.09,6.94,13.09c3.6,0,5.56-3.47,5.56-11.04
		c0-8.4-3.01-13.05-6.61-13.05C256.59,92.78,253.92,96.46,253.92,103.78"/>
	<path d="M286.12,111.73c0,4.52,0.33,4.81,3.22,5.06v1.63h-13.21v-1.63c2.97-0.25,3.3-0.54,3.3-5.06v-13.8
		c0-4.52-0.33-4.81-3.14-5.06v-1.63h13.05c3.26,0,5.44,0.38,7.07,1.42c1.67,1.04,2.93,2.93,2.93,5.39c0,3.68-2.3,5.86-5.4,7.07
		c0.59,1.17,2.13,4.06,3.35,5.98c1.42,2.21,2.34,3.64,3.01,4.47c0.75,0.88,1.42,1.42,2.47,1.75l-0.08,1.47l-1.8-0.04
		c-5.94-0.13-7.32-1.38-8.99-3.81c-1.25-1.8-2.42-4.39-3.47-6.73c-0.38-0.88-0.96-1.51-1.76-1.51h-0.54V111.73z M286.12,104.74h0.58
		c1.34,0,2.34-0.13,3.14-0.71c1.71-1.34,2.34-3.31,2.34-5.35c0-4.02-2.55-5.35-4.18-5.35c-1.76,0-1.88,0.12-1.88,1.8V104.74z"/>
	<path d="M320.05,111.73c0,4.52,0.33,4.81,3.85,5.06v1.63h-14.64v-1.63c3.35-0.25,3.68-0.54,3.68-5.06V93.41h-0.71
		c-2.8,0-3.93,0.5-4.6,1.26c-0.5,0.63-1.01,1.71-1.55,4.06h-1.76c0.17-3.51,0.42-6.4,0.5-8.53h1.3c0.63,0.96,1.05,1.04,2.17,1.04
		h16.69c1.09,0,1.3-0.25,1.96-1.04h1.3c0.04,1.76,0.25,5.31,0.46,8.4l-1.84,0.13c-0.63-2.51-1.09-3.6-1.71-4.31
		c-0.71-0.75-2.09-1-4.1-1h-1V111.73z"/>
	<path d="M374.45,100.06v1.71c-2.68,0.17-3.05,0.79-4.93,3.05c-1.13,1.34-2.17,2.84-3.26,4.31c0.75,0.75,1.42,1.5,2.09,2.34
		c2.18,2.67,4.1,4.93,5.31,6.86l-0.46,0.71c-5.14-0.08-7.65-1.04-8.24-1.59c-0.42-0.63-1.63-2.13-2.59-3.26
		c-2.93,3.47-5.31,4.85-8.36,4.85c-6.36,0-9.12-4.05-9.12-7.65s1.88-5.31,6.11-7.65c-2.09-1.67-3.26-3.47-3.26-5.56
		c0-4.31,3.51-7.57,7.95-7.57c4.31,0,7.15,2.89,7.15,6.06c0,2.59-1.42,3.81-4.52,5.48c1.5,1.09,3.85,2.89,6.23,5.23
		c0.42-0.71,0.92-1.59,1.42-2.59c1.09-2.09,1.34-2.68-0.8-2.89l-1.25-0.13v-1.71H374.45z M360.82,112.35
		c-2.51-2.97-4.27-4.52-7.78-7.03c-1.38,1-1.97,2.64-1.97,3.89c0,3.72,2.68,5.39,5.1,5.39
		C357.43,114.61,359.06,114.19,360.82,112.35 M352.7,95.75c0,2.01,1.42,3.56,3.6,5.02c0.96-1.04,1.59-2.26,1.59-4.35
		c0-1.84-0.96-3.72-2.8-3.72C353.83,92.7,352.7,93.95,352.7,95.75"/>
	<path d="M413.03,99.43c-1.26-5.52-4.73-6.65-7.44-6.65c-4.43,0-8.11,4.39-8.11,11.54c0,6.48,2.76,12.55,8.53,12.55
		c1.04,0,1.71-0.34,1.71-2.3v-4.02c0-2.8-0.17-3.1-4.56-3.43v-1.88h13.97v1.88c-2.13,0.38-2.3,0.5-2.3,3.43v3.01
		c0,1.51,0.04,2.84,0.25,3.81c-2.59,0.71-5.98,1.67-9.45,1.67c-10,0-15.93-5.39-15.93-13.92c0-9.58,7.61-14.51,16.52-14.51
		c3.22,0,6.52,0.71,7.99,1.09c0.12,1.42,0.33,3.6,0.67,7.61L413.03,99.43z"/>
	<path d="M432.9,116.79l1.26-0.17c1.55-0.21,1.63-0.63,1.09-2.13l-1.51-4.26h-6.86l-1.25,4.01c-0.54,1.8-0.54,2.22,1.38,2.43
		l1.21,0.12v1.63h-9.74v-1.63c2.13-0.29,2.76-0.46,4.14-3.97l8.36-21.62l2.89-0.59l2.84,7.9c1.8,4.98,3.6,9.91,5.19,14.18
		c1.34,3.64,2.09,3.85,4.14,4.1v1.63H432.9V116.79z M427.59,107.71h5.35l-2.64-7.99h-0.13L427.59,107.71z"/>
	<path d="M482.66,91.24v1.63c-3.18,0.29-3.34,0.46-3.22,4.85l0.42,14.01c0.13,4.64,0.21,4.77,3.22,5.06v1.63h-13.09v-1.63
		c3.14-0.29,3.26-0.42,3.22-5.06l-0.13-14.72h-0.17l-8.07,20.95h-2.26l-7.65-19.49h-0.08l-0.29,9.28c-0.13,3.6-0.08,5.6,0.08,6.9
		c0.17,1.55,1.09,1.93,3.81,2.13v1.63h-10.33v-1.63c2.01-0.17,2.8-0.58,3.05-2.13c0.21-1.29,0.46-3.51,0.67-7.32l0.46-8.45
		c0.29-5.27-0.04-5.73-3.35-6.02v-1.63h9.83l7.32,16.56l6.4-16.56H482.66z"/>
	<path d="M497.09,111.73c0,4.52,0.34,4.81,3.22,5.06v1.63h-13.55v-1.63c2.89-0.25,3.22-0.54,3.22-5.06v-13.8
		c0-4.52-0.34-4.81-3.22-5.06v-1.63h13.55v1.63c-2.88,0.25-3.22,0.54-3.22,5.06V111.73z"/>
	<path d="M529.88,118.71h-3.6l-15.47-19.74h-0.08v7.69c0,4.39,0.17,6.69,0.33,7.99c0.21,1.46,1.34,2.01,4.1,2.13v1.63h-10.41v-1.63
		c1.84-0.08,2.93-0.67,3.14-2.13c0.17-1.3,0.34-3.6,0.34-7.99v-7.69c0-3.09-0.08-3.64-0.92-4.81c-0.63-0.88-1.67-1.17-3.18-1.3
		v-1.63h9.24l13.92,17.36h0.09v-5.6c0-4.39-0.17-6.69-0.34-7.99c-0.21-1.46-1.34-2.01-4.1-2.13v-1.63h10.66v1.63
		c-2.09,0.08-3.18,0.67-3.39,2.13c-0.17,1.3-0.33,3.6-0.33,7.99V118.71z"/>
	<path d="M558.37,99.43c-1.25-5.52-4.73-6.65-7.44-6.65c-4.43,0-8.11,4.39-8.11,11.54c0,6.48,2.76,12.55,8.53,12.55
		c1.05,0,1.72-0.34,1.72-2.3v-4.01c0-2.8-0.17-3.1-4.56-3.43v-1.88h13.97v1.88c-2.13,0.38-2.3,0.5-2.3,3.43v3.01
		c0,1.51,0.04,2.84,0.25,3.81c-2.59,0.71-5.98,1.67-9.45,1.67c-9.99,0-15.93-5.39-15.93-13.92c0-9.58,7.61-14.51,16.52-14.51
		c3.22,0,6.52,0.71,7.99,1.09c0.12,1.42,0.33,3.6,0.67,7.61L558.37,99.43z"/>
</g>
</svg>
