<?xml version="1.0" encoding="utf-8"?>
<!-- Generator: Adobe Illustrator 25.1.0, SVG Export Plug-In . SVG Version: 6.00 Build 0)  -->
<svg version="1.1" id="Layer_1" xmlns="http://www.w3.org/2000/svg" xmlns:xlink="http://www.w3.org/1999/xlink" x="0px" y="0px"
	 viewBox="0 0 575.77 156.53" style="enable-background:new 0 0 575.77 156.53;" xml:space="preserve">
<style type="text/css">
	.st0{clip-path:url(#SVGID_2_);}
	.st1{clip-path:url(#SVGID_4_);fill:#FFFFFF;}
	.st2{clip-path:url(#SVGID_4_);}
	.st3{clip-path:url(#SVGID_4_);fill:#E31B23;}
	.st4{clip-path:url(#SVGID_4_);fill:#FFDD00;}
	.st5{fill:none;stroke:#000000;stroke-width:0.841;}
	.st6{fill:#FFFFFF;}
	.st7{fill:none;stroke:#000000;stroke-width:0.481;}
</style>
<g>
	<defs>
		<rect id="SVGID_1_" x="10.42" y="6.79" width="143.28" height="143.28"/>
	</defs>
	<clipPath id="SVGID_2_">
		<use xlink:href="#SVGID_1_"  style="overflow:visible;"/>
	</clipPath>
	<g class="st0">
		<defs>
			<rect id="SVGID_3_" x="10.42" y="6.79" width="143.28" height="143.28"/>
		</defs>
		<clipPath id="SVGID_4_">
			<use xlink:href="#SVGID_3_"  style="overflow:visible;"/>
		</clipPath>
		<path class="st1" d="M101.83,9.56c29.94,8.58,51.87,36.17,51.87,68.88c0,36.21-26.87,66.15-61.75,70.96v-0.01v-40.84
			c3.63-1.19,6.97-3.02,9.89-5.36v11.6v10.75v10.51c23.92-8.2,41.12-30.9,41.12-57.6c0-26.71-17.2-49.4-41.12-57.61V9.56z"/>
		<path class="st2" d="M101.83,20.82c23.92,8.21,41.12,30.9,41.12,57.61c0,26.71-17.2,49.4-41.12,57.6v-10.51
			c18.38-7.73,31.29-25.9,31.29-47.09s-12.91-39.37-31.29-47.1V20.82z"/>
		<path class="st3" d="M101.83,31.34c18.38,7.73,31.29,25.91,31.29,47.1c0,21.19-12.91,39.36-31.29,47.09v-10.75
			c12.87-7.01,21.6-20.66,21.6-36.34c0-15.69-8.73-29.34-21.6-36.35V31.34z"/>
		<path class="st4" d="M101.83,42.08c12.87,7.02,21.6,20.67,21.6,36.35c0,15.68-8.73,29.33-21.6,36.35v-11.6
			c7.25-5.8,11.9-14.73,11.9-24.74c0-14.04-9.14-25.95-21.79-30.1v0V7.47c3.38,0.47,6.67,1.16,9.89,2.09v11.27v10.51V42.08z"/>
		<path class="st1" d="M72.17,108.54c-3.63-1.19-6.97-3.02-9.89-5.36c-7.26-5.8-11.9-14.73-11.9-24.74
			c0-14.04,9.14-25.95,21.79-30.1c3.11-1.02,6.43-1.58,9.89-1.58c3.45,0,6.78,0.55,9.89,1.57c12.65,4.15,21.79,16.06,21.79,30.1
			c0,10.01-4.65,18.94-11.9,24.74c-2.92,2.34-6.26,4.17-9.89,5.36c-3.11,1.02-6.43,1.57-9.89,1.57
			C78.6,110.11,75.28,109.56,72.17,108.54"/>
		<path class="st2" d="M91.94,149.38v0.01c-3.23,0.45-6.53,0.68-9.89,0.68v-0.01v-39.95c3.45,0,6.78-0.55,9.89-1.57V149.38z"/>
		<path class="st3" d="M91.94,48.33L91.94,48.33c-3.11-1.01-6.43-1.57-9.89-1.57V6.79c3.35,0,6.65,0.23,9.89,0.68V48.33z"/>
		<path class="st3" d="M82.06,150.06v0.01c-3.36,0-6.65-0.23-9.89-0.68v-0.01v-40.85c3.11,1.02,6.43,1.58,9.89,1.58V150.06z"/>
		<path class="st2" d="M82.06,6.79v39.97c-3.45,0-6.78,0.55-9.89,1.58l0-0.01V7.47C75.4,7.03,78.7,6.79,82.06,6.79"/>
		<path class="st1" d="M72.17,48.33l0.01,0.01c-12.66,4.14-21.79,16.05-21.79,30.1c0,10.01,4.65,18.94,11.9,24.74v11.6
			c-12.87-7.01-21.59-20.66-21.59-36.35c0-15.69,8.73-29.33,21.59-36.35V31.34V20.82V9.6l-0.01-0.04c3.21-0.92,6.51-1.63,9.89-2.09
			V48.33z"/>
		<path class="st4" d="M72.17,149.38v0.01c-34.88-4.82-61.75-34.75-61.75-70.96c0-32.7,21.91-60.29,51.86-68.87l0.01,0.04v11.22
			c-23.92,8.21-41.12,30.9-41.12,57.61s17.2,49.4,41.12,57.6v-10.51v-10.75v-11.6c2.92,2.34,6.26,4.17,9.89,5.36V149.38z"/>
		<path class="st3" d="M62.28,125.53v10.51c-23.92-8.2-41.12-30.89-41.12-57.6c0-26.71,17.19-49.4,41.12-57.61v10.52
			c-18.38,7.73-31.29,25.91-31.29,47.1C30.99,99.63,43.9,117.8,62.28,125.53"/>
		<path class="st2" d="M62.28,114.78v10.75c-18.38-7.73-31.29-25.9-31.29-47.09s12.91-39.37,31.29-47.1v10.74
			C49.41,49.1,40.69,62.75,40.69,78.44C40.69,94.12,49.41,107.77,62.28,114.78"/>
	</g>
</g>
<path class="st5" d="M153.7,78.43c0,39.56-32.07,71.64-71.64,71.64S10.42,118,10.42,78.43c0-39.57,32.07-71.64,71.64-71.64
	S153.7,38.87,153.7,78.43z"/>
<path class="st5" d="M113.74,78.43c0,17.49-14.18,31.68-31.68,31.68S50.38,95.93,50.38,78.43c0-17.49,14.18-31.68,31.68-31.68
	S113.74,60.94,113.74,78.43z"/>
<path d="M61.41,64.9c0.17-0.11-0.66-0.26-0.45-0.32c0.22-0.04,1.46-0.03,1.66-0.07c1.67-0.33,2.57-0.6,3.3-0.72
	c0.81-0.14,2.44-0.27,2.44-0.27s1.76-1.22,3.4,0.13c1.62,1.36,1.62,0.14,1.62,0.14s2.58-1.36,4.08-0.14c1.49,1.22,1.9,0.55,1.9,0.55
	s2.31-2.04,4.34-0.27c2.04,1.76,1.63,0.54,1.63,0.54s2.31-2.31,4.75-0.95c2.44,1.36,1.09,0.54,1.09,0.54l0.41,0.68
	c0,0,0.68-2.58,4.34-0.95c0.92,0.41,0.95,0.41,0.95,0.41s2.85-0.81,7.06,1.49c4.21,2.31-0.95,0.14-0.95,0.14l2.45,2.85
	c0,0-3.26-1.63-0.68,0.81c2.58,2.44,2.71,3.53,2.71,3.53s-2.17-1.9-0.68,1.09c1.49,2.99-0.13,0.95-0.13,0.95s-0.68,0.27,0.27,2.17
	c0.95,1.9-0.14,1.63-0.14,1.63s-1.77-2.85-0.95-1.09c0.82,1.76,1.96,3.1,1.9,3.12c-0.05,0.02-0.98-0.32-1.08-0.27
	c-0.08,0.04-0.08,0.44-0.02,0.99c0.07,0.62,0.24,1.4,0.29,1.73c0.06,0.4-0.19-0.45-0.45-1.07c-0.41-0.97-1.1-1.96-1.18-0.97
	l-0.14,1.76c0,0-2.04-4.18-1.63-2.17c0.33,1.56,0.24,1.51,0.24,1.51s-1.59-3.68-1.73-0.02c-0.13,3.67-0.95-4.07-1.36-1.49
	c-0.41,2.58-2.85-3.39-3.12-0.14C97.28,84.01,97,81.83,97,81.83l-0.95-1.09l-2.04-0.4l-1.08,2.03l-0.82-2.31
	c0,0-0.81,0.41-0.68,1.63c0.14,1.22,0.27,1.9,0.27,1.9l-0.95-0.95l-0.27-1.63c0,0-0.54-1.5-0.67,0.41l-0.14,1.9l-2.44-2.44
	c0,0-0.27,0.68-0.41,1.76c-0.14,1.08-0.55-1.5-1.63-2.17c-1.09-0.68-0.61,2.17-0.68,2.99c-0.08,0.96-0.41-2.99-1.08-3.66
	c-0.68-0.68-0.41,1.22-0.27,1.76c0.14,0.54-0.68-0.81-1.09-1.36c-0.4-0.54-0.14,1.9-0.27,2.31c-0.13,0.41-0.95-2.04-0.95-2.04
	s-1.09-0.81-0.95,2.17c0.14,2.99-1.22-1.63-1.22-1.63s-0.36-2.13-0.82,1.36c-0.15,1.13-0.54-1.36-0.54-1.36s-1.09,2.17-1.77,1.76
	c0,0,0.54-1.9-0.27-2.58c-0.81-0.68-0.41,1.9-0.41,1.9l-0.55-1.22c0,0-0.54,2.17-0.54,2.58c0,0.41-1.36-3.39-1.76-3.39
	c-0.4,0-0.68,2.31-0.68,2.31l-1.77-1.76c0,0-1.91-0.49-2.44,1.63c-0.14,0.54-1.08-0.68-1.08-0.68l-1.76,0.14c0,0-1.2,0.82-1.36,1.9
	c-0.09,0.63-0.64-1.18,0.14-2.04c1.16-1.3-0.68-1.74-1.67,0c-0.18,0.32-0.63-1.22-0.63-1.22s-1.54,1.9-1.77,3.26
	c-0.17,1.04,0.14-3.94,0.14-3.94s-0.75-0.37-1.76,0.72c-0.54,0.59-1.63,1.95-1.63,1.95s0.33-2.89,2.85-3.75
	c1.45-0.5-0.77-2.22-1.58-1.4c-0.81,0.81-2.35,1.54-2.35,1.54s2.58-3.8,3.12-4.48c0.54-0.68,3.8-3.39,3.8-3.39s-2.72-0.27-3.53,0.81
	c-0.45,0.6-1.11,1.56-1.61,2.05c-0.4,0.4-0.7,0.39-0.7,0.39s0.55-1.81,2.08-3.37c0.89-0.9,2.28-1.55,3.62-2.19
	c3.67-1.77-1.19,0.06-1.81,0.24c-0.62,0.17,1.77-1.86,1.77-1.86s-1.21-0.53-2.84,1.24c-0.86,0.94-0.43-0.2,0.43-1.21
	c0.76-0.89,1.89-1.63,1.89-1.63S61.09,65.09,61.41,64.9"/>
<rect x="66.74" y="60.93" class="st6" width="1.76" height="10.04"/>
<rect x="66.74" y="60.93" class="st7" width="1.76" height="10.04"/>
<rect x="72.44" y="60.93" class="st6" width="1.76" height="10.04"/>
<rect x="72.44" y="60.93" class="st7" width="1.76" height="10.04"/>
<rect x="78.14" y="60.93" class="st6" width="1.76" height="10.04"/>
<rect x="78.14" y="60.93" class="st7" width="1.76" height="10.04"/>
<rect x="83.84" y="60.93" class="st6" width="1.77" height="10.04"/>
<rect x="83.84" y="60.93" class="st7" width="1.77" height="10.04"/>
<rect x="89.54" y="60.93" class="st6" width="1.76" height="10.04"/>
<rect x="89.54" y="60.93" class="st7" width="1.76" height="10.04"/>
<rect x="95.24" y="60.93" class="st6" width="1.76" height="10.04"/>
<rect x="95.24" y="60.93" class="st7" width="1.76" height="10.04"/>
<rect x="72.5" y="85.2" width="18.93" height="1.52"/>
<path d="M60.22,91.02c0,0,3.49-0.78,3.8-0.36c0.21,0.28,1.46,0.52,1.58,0.36c0.27-0.36,1.86-0.18,1.86-0.18s0.81-0.36,1.63-0.18
	c0.81,0.18,2.99,0.18,2.99,0.18l1.9-0.18h1.09h13.75l1.54,0.36l3.53-0.18l1.81,0.27l1.54-0.27c0,0,1.54,0.18,1.9,0.36
	c0.36,0.18,1.72,0.09,1.72,0.09s2.53-0.36,2.8,0c0.27,0.36-0.27,0.27-0.27,0.27l-3.71,0.27c0,0-1.9-0.36-1.9-0.09
	c0,0.27,0.63,0.72,0.63,0.72s-2.53-0.18-2.71,0.45c-0.18,0.64-2.17,0-2.53,0.36c-0.37,0.36-2.63,1.27-3.62,1
	c-1-0.27-1.45,0.63-0.72,0.9c0.72,0.27,1.72,0.09,1.72,0.09s-3.44,0.81-4.53,0.36c-1.08-0.45-3.8-1.36-4.52-0.54
	c-0.72,0.81-4.25,1-5.16,0.72c-0.9-0.27,0.82-0.63-0.9-0.63c-1.72,0-4.17-0.54-4.17-0.54s-0.45-1.27-2.08-0.54
	c-1.63,0.72-2.17,0.18-2.17,0.18s-0.81-0.54-1.26-0.45c-0.45,0.09-2.17-0.18-2.44-0.36c-0.27-0.18-0.09-0.72,0.63-0.54
	c0.72,0.18,1.72,0.18,2.08-0.18c0.36-0.36,0.36-0.9-0.18-0.81c-0.54,0.09-2.72-0.27-2.98-0.37C62.57,91.47,60.22,91.02,60.22,91.02"
	/>
<path d="M96.51,93.64c0,0,1.81,0.18,2.08-0.09c0.27-0.27-0.72-0.36-0.99-0.36c-0.27,0-0.81-0.18-1,0.18"/>
<path d="M100.21,92.56c0,0,0.99,0,0.9-0.27c-0.09-0.27-0.99-0.45-1.08-0.09C99.94,92.56,100.21,92.56,100.21,92.56"/>
<path d="M59.23,70.57c0,0-1.09,3.17-1.09,3.89s0.81-0.54,0.81-0.54s1.18-3.26,1.45-3.53"/>
<path d="M57.78,76.27l-0.54,3.71l0.9-0.36c0,0,0.45-2.99,0.81-3.26"/>
<polygon points="63.89,79.52 63.89,91.2 64.29,91.33 64.29,79.66 "/>
<rect x="65.51" y="80.47" width="0.81" height="11.13"/>
<path d="M64.24,87.13c0,0,0.5,0.17,0.74,0.38c0.24,0.22,0.72,0.91,0.72,0.91v-7.94h-1.91"/>
<polyline points="70.4,91.33 70.4,80.2 67.55,80.2 67.55,91.33 "/>
<path class="st6" d="M68.23,90.93v-1.49c0,0,0.67-1.67,1.22,0.14c0.35,1.14,0.11,1.44,0.11,1.44L68.23,90.93z"/>
<polyline points="74.26,86.49 73.69,91.3 74.43,91.35 74.86,91.09 75.99,86.4 "/>
<polyline points="87.96,86.36 89.08,91.95 90.3,91.91 89.65,86.49 "/>
<polygon points="93.7,80.25 93.7,91.83 96.14,92.01 96.33,80.34 95.33,78.89 "/>
<polygon points="97.41,78.71 97.5,91.47 100.22,91.65 100.22,80.16 "/>
<path class="st6" d="M94.43,87.13c0,0,1.09,0.18,1.09,0.81v2.44c0,0-0.18,0.91-0.54,0.45c-0.36-0.45-0.72-0.82-0.72-0.82
	L94.43,87.13z"/>
<path class="st6" d="M98.04,88.94c0,0,0.18-1.18,0.64-0.45c0.45,0.72,0.63,0.45,0.63,1.26c0,0.82-0.18,1.45-0.18,1.45l-1.09-0.36
	V88.94z"/>
<polygon points="178.47,36.61 188.82,36.61 197.03,58.23 205.73,36.61 216.19,36.61 222.3,77.06 211.79,77.06 208.84,53.78 
	208.73,53.78 199.02,77.06 194.83,77.06 185.55,53.78 185.44,53.78 182.06,77.06 171.6,77.06 "/>
<rect x="231.85" y="36.61" width="10.52" height="40.46"/>
<path d="M282.44,50.18c-2.15-2.9-5.63-4.45-9.23-4.45c-6.44,0-10.78,4.94-10.78,11.21c0,6.38,4.4,11,10.95,11
	c3.43,0,6.87-1.66,9.07-4.29v12.61c-3.49,1.07-6.01,1.88-9.28,1.88c-5.63,0-11-2.15-15.18-5.95c-4.45-4.02-6.49-9.28-6.49-15.29
	c0-5.53,2.09-10.84,5.96-14.81c3.97-4.08,9.71-6.55,15.4-6.55c3.38,0,6.49,0.75,9.6,2.04V50.18z"/>
<path d="M323.49,50.18c-2.15-2.9-5.63-4.45-9.23-4.45c-6.44,0-10.79,4.94-10.79,11.21c0,6.38,4.4,11,10.95,11
	c3.43,0,6.87-1.66,9.07-4.29v12.61c-3.49,1.07-6.01,1.88-9.28,1.88c-5.63,0-11-2.15-15.18-5.95c-4.45-4.02-6.49-9.28-6.49-15.29
	c0-5.53,2.09-10.84,5.95-14.81c3.97-4.08,9.71-6.55,15.4-6.55c3.38,0,6.49,0.75,9.61,2.04V50.18z"/>
<path d="M376.44,56.08c0,13.09-9.39,22.32-22.37,22.32c-12.98,0-22.37-9.23-22.37-22.32c0-12.23,10.73-20.82,22.37-20.82
	S376.44,43.85,376.44,56.08 M342.64,56.14c0,6.98,5.15,12.07,11.43,12.07c6.28,0,11.43-5.1,11.43-12.07
	c0-5.58-5.15-10.68-11.43-10.68C347.79,45.46,342.64,50.56,342.64,56.14"/>
<path d="M406.75,47.02c-1.93-1.61-4.4-2.68-6.98-2.68c-1.93,0-4.51,1.13-4.51,3.38c0,2.36,2.84,3.27,4.67,3.86l2.68,0.81
	c5.63,1.66,9.98,4.51,9.98,11.05c0,4.02-0.96,8.15-4.18,10.89c-3.17,2.68-7.4,3.81-11.48,3.81c-5.1,0-10.09-1.72-14.22-4.61
	l4.51-8.48c2.63,2.31,5.74,4.19,9.34,4.19c2.47,0,5.09-1.23,5.09-4.08c0-2.95-4.13-3.97-6.38-4.61c-6.6-1.88-10.95-3.59-10.95-11.43
	c0-8.21,5.85-13.57,13.95-13.57c4.08,0,9.07,1.29,12.66,3.33L406.75,47.02z"/>
<path d="M456.97,36.61v22.75c0,5.2-0.21,10.35-4.24,14.27c-3.38,3.33-8.69,4.51-13.42,4.51c-4.72,0-10.03-1.18-13.41-4.51
	c-4.02-3.92-4.24-9.07-4.24-14.27V36.61h10.52v21.3c0,5.26,0.38,11,7.14,11c6.76,0,7.14-5.74,7.14-11v-21.3H456.97z"/>
<polygon points="489.11,36.61 502.14,36.61 486.05,55.76 503.59,77.06 489.96,77.06 476.39,59.52 476.28,59.52 476.28,77.06 
	465.77,77.06 465.77,36.61 476.28,36.61 476.28,53.3 476.39,53.3 "/>
<polygon points="520.44,45.52 520.44,52.27 532.29,52.27 532.29,61.18 520.44,61.18 520.44,68.16 532.94,68.16 532.94,77.06 
	509.92,77.06 509.92,36.61 532.94,36.61 532.94,45.52 "/>
<polygon points="553.7,45.52 553.7,52.27 565.56,52.27 565.56,61.18 553.7,61.18 553.7,68.16 566.2,68.16 566.2,77.06 543.18,77.06 
	543.18,36.61 566.2,36.61 566.2,45.52 "/>
<path d="M181.53,109.91c0,4.52,0.34,4.81,3.22,5.06v1.63h-13.21v-1.63c2.97-0.25,3.3-0.54,3.3-5.06v-13.8
	c0-4.52-0.33-4.81-3.14-5.06v-1.63h13.05c3.26,0,5.44,0.38,7.07,1.42c1.67,1.04,2.93,2.93,2.93,5.39c0,3.68-2.3,5.86-5.39,7.07
	c0.58,1.17,2.13,4.06,3.35,5.98c1.42,2.21,2.34,3.64,3.01,4.47c0.75,0.88,1.42,1.42,2.47,1.75l-0.08,1.47l-1.8-0.04
	c-5.94-0.13-7.32-1.38-8.99-3.81c-1.25-1.8-2.42-4.39-3.47-6.73c-0.38-0.88-0.96-1.51-1.76-1.51h-0.54V109.91z M181.53,102.93h0.59
	c1.34,0,2.34-0.13,3.14-0.71c1.71-1.34,2.34-3.31,2.34-5.35c0-4.02-2.55-5.35-4.18-5.35c-1.76,0-1.88,0.13-1.88,1.8V102.93z"/>
<path d="M204.03,96.11c0-4.52-0.34-4.81-3.14-5.06v-1.63h19.82c0.04,0.71,0.25,3.76,0.46,6.9l-1.84,0.13
	c-0.42-2.05-0.88-3.22-1.55-3.89c-0.67-0.71-2.05-0.96-4.26-0.96h-0.71c-1.59,0-1.67,0-1.67,1.46v8.07h2.09
	c3.6,0,3.72-0.25,4.14-3.43h1.84v9.87h-1.84c-0.42-3.68-0.54-3.93-4.14-3.93h-2.09v6.82c0,2.18,0.08,3.22,0.84,3.6
	c0.67,0.33,1.63,0.38,2.93,0.38c1.67,0,3.51-0.25,4.43-1.25c0.71-0.75,1.42-2.3,2.05-4.31l1.84,0.29c-0.21,2.05-1.09,6.31-1.46,7.44
	h-21.29v-1.63c3.22-0.25,3.55-0.54,3.55-5.06V96.11z"/>
<path d="M229,107.99c0.88,2.43,3.35,7.07,7.44,7.07c2.18,0,3.85-1.42,3.85-4.14c0-2.47-1.63-3.85-4.18-5.02l-0.63-0.29
	c-3.43-1.59-7.32-3.76-7.32-8.24c0-4.73,3.43-8.57,9.99-8.57c1.3,0,2.64,0.17,3.85,0.5c0.96,0.25,1.63,0.42,2.18,0.59
	c0.17,1.63,0.46,3.68,0.92,6.52l-1.84,0.29c-0.92-2.76-2.38-5.73-5.69-5.73c-2.13,0-3.64,1.63-3.64,3.64c0,2.09,1.63,3.3,4.31,4.52
	l0.92,0.42c3.85,1.76,7.15,3.89,7.15,8.78c0,5.14-4.14,8.91-10.62,8.91c-1.67,0-3.39-0.33-4.52-0.71c-1.26-0.42-2.13-0.75-2.63-1.01
	c-0.33-1.92-0.88-4.18-1.38-6.98L229,107.99z"/>
<path d="M277.95,102.67c0,8.95-6.11,14.55-14.14,14.55c-8.45,0-13.92-6.15-13.92-13.84c0-6.78,4.51-14.59,14.51-14.59
	C272.05,88.79,277.95,94.39,277.95,102.67 M257.67,101.96c0,7.57,2.84,13.09,6.94,13.09c3.6,0,5.56-3.47,5.56-11.04
	c0-8.4-3.01-13.05-6.61-13.05C260.34,90.96,257.67,94.64,257.67,101.96"/>
<path d="M289.87,109.91c0,4.52,0.33,4.81,3.22,5.06v1.63h-13.21v-1.63c2.97-0.25,3.3-0.54,3.3-5.06v-13.8
	c0-4.52-0.33-4.81-3.14-5.06v-1.63h13.05c3.26,0,5.44,0.38,7.07,1.42c1.67,1.04,2.93,2.93,2.93,5.39c0,3.68-2.3,5.86-5.4,7.07
	c0.59,1.17,2.13,4.06,3.35,5.98c1.42,2.21,2.34,3.64,3.01,4.47c0.75,0.88,1.42,1.42,2.47,1.75l-0.08,1.47l-1.8-0.04
	c-5.94-0.13-7.32-1.38-8.99-3.81c-1.25-1.8-2.42-4.39-3.47-6.73c-0.38-0.88-0.96-1.51-1.76-1.51h-0.54V109.91z M289.87,102.93h0.58
	c1.34,0,2.34-0.13,3.14-0.71c1.71-1.34,2.34-3.31,2.34-5.35c0-4.02-2.55-5.35-4.18-5.35c-1.76,0-1.88,0.13-1.88,1.8V102.93z"/>
<path d="M323.8,109.91c0,4.52,0.33,4.81,3.85,5.06v1.63h-14.64v-1.63c3.35-0.25,3.68-0.54,3.68-5.06V91.59h-0.71
	c-2.8,0-3.93,0.5-4.6,1.25c-0.5,0.63-1.01,1.71-1.55,4.06h-1.76c0.17-3.51,0.42-6.4,0.5-8.53h1.3c0.63,0.96,1.05,1.04,2.17,1.04
	h16.69c1.09,0,1.3-0.25,1.96-1.04h1.3c0.04,1.76,0.25,5.31,0.46,8.4l-1.84,0.13c-0.63-2.51-1.09-3.6-1.71-4.31
	c-0.71-0.75-2.09-1-4.1-1h-1V109.91z"/>
<path d="M378.2,98.24v1.71c-2.68,0.17-3.05,0.79-4.93,3.05c-1.13,1.34-2.17,2.84-3.26,4.31c0.75,0.75,1.42,1.5,2.09,2.34
	c2.18,2.67,4.1,4.93,5.31,6.86l-0.46,0.71c-5.14-0.08-7.65-1.05-8.24-1.59c-0.42-0.63-1.63-2.13-2.59-3.26
	c-2.93,3.47-5.31,4.85-8.36,4.85c-6.36,0-9.12-4.06-9.12-7.65s1.88-5.31,6.11-7.65c-2.09-1.67-3.26-3.47-3.26-5.56
	c0-4.31,3.51-7.57,7.95-7.57c4.31,0,7.15,2.89,7.15,6.06c0,2.59-1.42,3.81-4.52,5.48c1.5,1.09,3.85,2.89,6.23,5.23
	c0.42-0.71,0.92-1.59,1.42-2.59c1.09-2.09,1.34-2.68-0.8-2.89l-1.25-0.13v-1.71H378.2z M364.57,110.54
	c-2.51-2.97-4.27-4.52-7.78-7.03c-1.38,1-1.97,2.64-1.97,3.89c0,3.72,2.68,5.39,5.1,5.39C361.18,112.79,362.81,112.38,364.57,110.54
	 M356.45,93.93c0,2.01,1.42,3.56,3.6,5.02c0.96-1.04,1.59-2.26,1.59-4.35c0-1.84-0.96-3.72-2.8-3.72
	C357.58,90.88,356.45,92.14,356.45,93.93"/>
<path d="M416.78,97.61c-1.26-5.52-4.73-6.65-7.44-6.65c-4.43,0-8.11,4.39-8.11,11.54c0,6.48,2.76,12.54,8.53,12.54
	c1.04,0,1.71-0.33,1.71-2.3v-4.02c0-2.8-0.17-3.1-4.56-3.43v-1.88h13.97v1.88c-2.13,0.38-2.3,0.5-2.3,3.43v3.01
	c0,1.51,0.04,2.84,0.25,3.81c-2.59,0.71-5.98,1.67-9.45,1.67c-10,0-15.93-5.39-15.93-13.92c0-9.58,7.61-14.51,16.52-14.51
	c3.22,0,6.52,0.71,7.99,1.09c0.13,1.42,0.33,3.6,0.67,7.61L416.78,97.61z"/>
<path d="M436.65,114.97l1.26-0.17c1.55-0.21,1.63-0.63,1.09-2.13l-1.51-4.26h-6.86l-1.25,4.01c-0.54,1.8-0.54,2.22,1.38,2.43
	l1.21,0.13v1.63h-9.74v-1.63c2.13-0.29,2.76-0.46,4.14-3.97l8.36-21.62l2.89-0.59l2.84,7.9c1.8,4.98,3.6,9.91,5.19,14.18
	c1.34,3.64,2.09,3.85,4.14,4.1v1.63h-13.13V114.97z M431.34,105.89h5.35l-2.64-7.99h-0.13L431.34,105.89z"/>
<path d="M486.41,89.42v1.63c-3.18,0.29-3.34,0.46-3.22,4.85l0.42,14.01c0.13,4.64,0.21,4.77,3.22,5.06v1.63h-13.09v-1.63
	c3.14-0.29,3.26-0.42,3.22-5.06l-0.13-14.72h-0.17l-8.07,20.95h-2.26l-7.65-19.49h-0.08l-0.29,9.28c-0.13,3.6-0.08,5.6,0.08,6.9
	c0.17,1.55,1.09,1.93,3.81,2.13v1.63h-10.33v-1.63c2.01-0.17,2.8-0.58,3.05-2.13c0.21-1.29,0.46-3.51,0.67-7.32l0.46-8.45
	c0.29-5.27-0.04-5.73-3.35-6.02v-1.63h9.83l7.32,16.56l6.4-16.56H486.41z"/>
<path d="M500.84,109.91c0,4.52,0.34,4.81,3.22,5.06v1.63h-13.55v-1.63c2.89-0.25,3.22-0.54,3.22-5.06v-13.8
	c0-4.52-0.34-4.81-3.22-5.06v-1.63h13.55v1.63c-2.88,0.25-3.22,0.54-3.22,5.06V109.91z"/>
<path d="M533.63,116.89h-3.6l-15.47-19.74h-0.08v7.69c0,4.39,0.17,6.69,0.34,7.99c0.21,1.46,1.34,2.01,4.1,2.13v1.63H508.5v-1.63
	c1.84-0.08,2.93-0.67,3.14-2.13c0.17-1.3,0.33-3.59,0.33-7.99v-7.69c0-3.09-0.08-3.64-0.92-4.81c-0.63-0.88-1.67-1.17-3.18-1.3
	v-1.63h9.24l13.92,17.36h0.09v-5.6c0-4.39-0.17-6.69-0.34-7.99c-0.21-1.46-1.34-2.01-4.1-2.13v-1.63h10.66v1.63
	c-2.09,0.08-3.18,0.67-3.39,2.13c-0.17,1.3-0.34,3.6-0.34,7.99V116.89z"/>
<path d="M562.12,97.61c-1.26-5.52-4.73-6.65-7.44-6.65c-4.43,0-8.11,4.39-8.11,11.54c0,6.48,2.76,12.54,8.53,12.54
	c1.05,0,1.72-0.33,1.72-2.3v-4.01c0-2.8-0.17-3.1-4.56-3.43v-1.88h13.97v1.88c-2.13,0.38-2.3,0.5-2.3,3.43v3.01
	c0,1.51,0.04,2.84,0.25,3.81c-2.59,0.71-5.98,1.67-9.45,1.67c-9.99,0-15.93-5.39-15.93-13.92c0-9.58,7.61-14.51,16.52-14.51
	c3.22,0,6.52,0.71,7.99,1.09c0.13,1.42,0.33,3.6,0.67,7.61L562.12,97.61z"/>
</svg>
