<?xml version="1.0" encoding="utf-8"?>
<!-- Generator: Adobe Illustrator 26.5.0, SVG Export Plug-In . SVG Version: 6.00 Build 0)  -->
<svg version="1.1" id="Layer_1" xmlns="http://www.w3.org/2000/svg" xmlns:xlink="http://www.w3.org/1999/xlink" x="0px" y="0px"
	 viewBox="0 0 504 180" style="enable-background:new 0 0 504 180;" xml:space="preserve">
<style type="text/css">
	.st0{clip-path:url(#SVGID_00000061436207960703340680000009142580130733467818_);}
	.st1{clip-path:url(#SVGID_00000121264786353917905450000004752395083954369454_);fill:#FFFFFF;}
	.st2{clip-path:url(#SVGID_00000121264786353917905450000004752395083954369454_);}
	.st3{clip-path:url(#SVGID_00000121264786353917905450000004752395083954369454_);fill:#CF3339;}
	.st4{clip-path:url(#SVGID_00000121264786353917905450000004752395083954369454_);fill:#FFD100;}
	.st5{fill:none;stroke:#000000;stroke-width:0.841;}
	.st6{fill:#FFFFFF;}
	.st7{fill:none;stroke:#000000;stroke-width:0.481;}
</style>
<g>
	<g>
		<path d="M169.16,126.3c-1.69,0.77-3.63,1.15-5.83,1.15c-2,0-3.85-0.33-5.55-0.99c-1.7-0.66-3.17-1.59-4.42-2.8
			c-1.25-1.21-2.22-2.66-2.93-4.34c-0.71-1.69-1.06-3.54-1.06-5.57c0-2.08,0.36-3.96,1.08-5.64c0.72-1.69,1.72-3.12,2.99-4.31
			c1.27-1.18,2.76-2.1,4.47-2.73c1.71-0.64,3.56-0.95,5.53-0.95c1.83,0,3.63,0.32,5.41,0.97c1.77,0.65,3.21,1.59,4.31,2.84
			l-4.25,4.25c-0.59-0.81-1.36-1.41-2.31-1.8c-0.95-0.39-1.93-0.59-2.93-0.59c-1.1,0-2.11,0.2-3.02,0.6
			c-0.92,0.4-1.7,0.96-2.36,1.67c-0.66,0.71-1.17,1.55-1.54,2.51c-0.37,0.97-0.55,2.02-0.55,3.17c0,1.17,0.18,2.25,0.55,3.23
			c0.37,0.98,0.87,1.81,1.52,2.51c0.65,0.7,1.42,1.24,2.33,1.63c0.9,0.39,1.89,0.59,2.97,0.59c1.25,0,2.33-0.24,3.26-0.73
			c0.93-0.49,1.67-1.12,2.24-1.91l4.36,4.11C172.27,124.48,170.85,125.53,169.16,126.3z"/>
		<path d="M194.82,126.76l-2.02-5.09h-10.04l-1.91,5.09h-6.82l10.89-25.95h6.08l10.78,25.95H194.82z M187.86,107.73l-3.3,8.91h6.52
			L187.86,107.73z"/>
		<path d="M219.16,107.55c-0.54-0.68-1.24-1.23-2.11-1.63c-0.87-0.4-1.7-0.6-2.51-0.6c-0.42,0-0.84,0.04-1.26,0.11
			c-0.43,0.07-0.81,0.21-1.15,0.42c-0.34,0.21-0.63,0.48-0.86,0.81c-0.23,0.33-0.35,0.75-0.35,1.26c0,0.44,0.09,0.81,0.28,1.1
			c0.18,0.29,0.45,0.55,0.81,0.77c0.35,0.22,0.78,0.42,1.26,0.6c0.49,0.18,1.04,0.37,1.65,0.57c0.88,0.29,1.8,0.62,2.75,0.97
			c0.95,0.35,1.82,0.82,2.6,1.41c0.78,0.59,1.43,1.31,1.94,2.18c0.51,0.87,0.77,1.95,0.77,3.24c0,1.49-0.27,2.78-0.82,3.87
			c-0.55,1.09-1.29,1.99-2.22,2.69c-0.93,0.71-1.99,1.23-3.19,1.58c-1.2,0.34-2.43,0.51-3.7,0.51c-1.86,0-3.65-0.32-5.39-0.97
			c-1.74-0.65-3.18-1.57-4.33-2.77l4.11-4.18c0.64,0.78,1.47,1.44,2.51,1.96c1.04,0.53,2.07,0.79,3.1,0.79
			c0.46,0,0.92-0.05,1.36-0.15c0.44-0.1,0.82-0.26,1.15-0.48c0.33-0.22,0.59-0.51,0.79-0.88c0.2-0.37,0.29-0.81,0.29-1.32
			c0-0.49-0.12-0.9-0.37-1.25c-0.24-0.34-0.59-0.65-1.04-0.93c-0.45-0.28-1.01-0.54-1.69-0.77c-0.67-0.23-1.44-0.48-2.29-0.75
			c-0.83-0.27-1.64-0.59-2.44-0.95c-0.79-0.37-1.5-0.84-2.13-1.41c-0.62-0.57-1.12-1.27-1.5-2.09c-0.38-0.82-0.57-1.81-0.57-2.99
			c0-1.44,0.29-2.68,0.88-3.7s1.36-1.87,2.31-2.53c0.95-0.66,2.03-1.14,3.23-1.45c1.2-0.31,2.41-0.46,3.63-0.46
			c1.47,0,2.96,0.27,4.49,0.81c1.53,0.54,2.86,1.33,4.01,2.38L219.16,107.55z"/>
		<path d="M227.11,126.76v-25.95h6.3v25.95H227.11z"/>
		<path d="M255.26,126.76l-10.45-16.97h-0.11l0.15,16.97h-6.08v-25.95h7.15l10.41,16.93h0.11l-0.15-16.93h6.09v25.95H255.26z"/>
		<path d="M294.15,113.67c0,2.05-0.35,3.93-1.06,5.63c-0.71,1.7-1.69,3.15-2.95,4.36c-1.26,1.21-2.76,2.14-4.49,2.8
			c-1.74,0.66-3.62,0.99-5.64,0.99c-2.03,0-3.9-0.33-5.63-0.99c-1.72-0.66-3.21-1.59-4.47-2.8c-1.26-1.21-2.24-2.66-2.95-4.36
			c-0.71-1.7-1.06-3.57-1.06-5.63c0-2.08,0.35-3.95,1.06-5.63c0.71-1.67,1.69-3.1,2.95-4.27c1.26-1.17,2.75-2.08,4.47-2.71
			c1.72-0.64,3.6-0.95,5.63-0.95c2.03,0,3.91,0.32,5.64,0.95c1.73,0.64,3.23,1.54,4.49,2.71c1.26,1.17,2.24,2.6,2.95,4.27
			C293.8,109.72,294.15,111.6,294.15,113.67z M287.44,113.67c0-1.12-0.18-2.17-0.55-3.15c-0.37-0.98-0.87-1.81-1.52-2.51
			s-1.43-1.25-2.35-1.65c-0.92-0.4-1.92-0.6-3.02-0.6c-1.1,0-2.1,0.2-3.01,0.6c-0.9,0.4-1.69,0.95-2.35,1.65
			c-0.66,0.7-1.17,1.53-1.52,2.51c-0.35,0.98-0.53,2.03-0.53,3.15c0,1.17,0.18,2.25,0.55,3.24c0.37,0.99,0.87,1.84,1.52,2.55
			c0.65,0.71,1.42,1.26,2.33,1.67c0.9,0.4,1.91,0.6,3.01,0.6c1.1,0,2.1-0.2,3.01-0.6s1.69-0.96,2.35-1.67
			c0.66-0.71,1.17-1.56,1.54-2.55C287.26,115.93,287.44,114.84,287.44,113.67z"/>
		<path d="M325.78,126.76l-2.46-2.53c-0.83,0.88-1.85,1.61-3.06,2.18c-1.21,0.57-2.72,0.86-4.53,0.86c-1.17,0-2.32-0.15-3.45-0.46
			c-1.12-0.31-2.12-0.78-2.99-1.43c-0.87-0.65-1.56-1.45-2.09-2.42c-0.53-0.96-0.79-2.11-0.79-3.43c0-0.9,0.15-1.73,0.44-2.49
			c0.29-0.76,0.69-1.43,1.19-2.02c0.5-0.59,1.08-1.1,1.74-1.54c0.66-0.44,1.34-0.82,2.05-1.14c-0.81-0.78-1.45-1.64-1.94-2.57
			c-0.49-0.93-0.73-1.95-0.73-3.08c0-1.17,0.24-2.17,0.73-3.01c0.49-0.83,1.12-1.52,1.89-2.05c0.77-0.54,1.64-0.93,2.6-1.17
			c0.97-0.24,1.92-0.37,2.88-0.37c0.98,0,1.94,0.13,2.9,0.38c0.95,0.26,1.8,0.65,2.55,1.19c0.75,0.54,1.34,1.22,1.8,2.05
			c0.45,0.83,0.68,1.82,0.68,2.97c0,0.83-0.13,1.58-0.4,2.25c-0.27,0.67-0.64,1.28-1.12,1.83c-0.48,0.55-1.03,1.04-1.67,1.48
			c-0.64,0.44-1.31,0.84-2.02,1.21l3.26,3.34l2.6-4h6.67l-5.61,7.51l6.45,6.41H325.78z M315.19,115.8c-0.73,0.29-1.37,0.7-1.92,1.23
			c-0.55,0.53-0.82,1.28-0.82,2.25c0,0.51,0.1,0.97,0.31,1.37c0.21,0.4,0.48,0.75,0.81,1.03c0.33,0.28,0.7,0.49,1.12,0.64
			c0.41,0.15,0.84,0.22,1.28,0.22c0.81,0,1.53-0.17,2.16-0.51c0.64-0.34,1.18-0.83,1.65-1.47L315.19,115.8z M319.81,106.89
			c0-0.66-0.22-1.22-0.66-1.69c-0.44-0.46-1.04-0.7-1.8-0.7c-0.71,0-1.3,0.23-1.78,0.68c-0.48,0.45-0.71,1.02-0.71,1.7
			c0,0.61,0.16,1.2,0.49,1.76c0.33,0.56,0.81,1.1,1.45,1.61c0.83-0.34,1.54-0.79,2.13-1.36
			C319.52,108.35,319.81,107.67,319.81,106.89z"/>
		<path d="M359.14,126.76l-5.63-10.3h-2.14v10.3h-6.12v-25.95h9.9c1.25,0,2.46,0.13,3.65,0.38c1.19,0.26,2.25,0.69,3.19,1.3
			c0.94,0.61,1.69,1.42,2.25,2.42c0.56,1,0.84,2.25,0.84,3.74c0,1.76-0.48,3.24-1.43,4.44c-0.95,1.2-2.27,2.05-3.96,2.57l6.78,11.11
			H359.14z M358.88,108.76c0-0.61-0.13-1.11-0.39-1.48c-0.26-0.38-0.59-0.67-0.99-0.88c-0.41-0.21-0.86-0.35-1.36-0.42
			c-0.5-0.07-0.99-0.11-1.45-0.11h-3.35v6.05h2.98c0.52,0,1.04-0.04,1.58-0.13c0.54-0.09,1.03-0.24,1.47-0.46
			c0.44-0.22,0.8-0.54,1.09-0.95C358.74,109.96,358.88,109.42,358.88,108.76z"/>
		<path d="M369.55,126.76v-25.95h17.45v5.28h-11.4V111h10.78v5.02h-10.78v5.39h12.06v5.35H369.55z"/>
		<path d="M405.5,107.55c-0.54-0.68-1.24-1.23-2.11-1.63c-0.87-0.4-1.7-0.6-2.51-0.6c-0.42,0-0.84,0.04-1.26,0.11
			c-0.43,0.07-0.81,0.21-1.15,0.42c-0.34,0.21-0.63,0.48-0.86,0.81c-0.23,0.33-0.35,0.75-0.35,1.26c0,0.44,0.09,0.81,0.27,1.1
			c0.18,0.29,0.45,0.55,0.81,0.77c0.35,0.22,0.78,0.42,1.26,0.6c0.49,0.18,1.04,0.37,1.65,0.57c0.88,0.29,1.8,0.62,2.75,0.97
			c0.95,0.35,1.82,0.82,2.6,1.41c0.78,0.59,1.43,1.31,1.94,2.18c0.51,0.87,0.77,1.95,0.77,3.24c0,1.49-0.28,2.78-0.82,3.87
			c-0.55,1.09-1.29,1.99-2.22,2.69c-0.93,0.71-1.99,1.23-3.19,1.58c-1.2,0.34-2.43,0.51-3.7,0.51c-1.86,0-3.65-0.32-5.39-0.97
			c-1.73-0.65-3.18-1.57-4.33-2.77l4.11-4.18c0.64,0.78,1.47,1.44,2.51,1.96c1.04,0.53,2.07,0.79,3.1,0.79
			c0.46,0,0.92-0.05,1.36-0.15c0.44-0.1,0.82-0.26,1.15-0.48c0.33-0.22,0.59-0.51,0.79-0.88c0.19-0.37,0.29-0.81,0.29-1.32
			c0-0.49-0.12-0.9-0.37-1.25c-0.24-0.34-0.59-0.65-1.04-0.93c-0.45-0.28-1.01-0.54-1.69-0.77c-0.67-0.23-1.44-0.48-2.29-0.75
			c-0.83-0.27-1.64-0.59-2.44-0.95s-1.5-0.84-2.13-1.41c-0.62-0.57-1.12-1.27-1.5-2.09c-0.38-0.82-0.57-1.81-0.57-2.99
			c0-1.44,0.29-2.68,0.88-3.7c0.59-1.03,1.36-1.87,2.31-2.53c0.95-0.66,2.03-1.14,3.23-1.45c1.2-0.31,2.41-0.46,3.63-0.46
			c1.47,0,2.96,0.27,4.49,0.81c1.53,0.54,2.87,1.33,4.01,2.38L405.5,107.55z"/>
		<path d="M440.51,113.67c0,2.05-0.35,3.93-1.06,5.63c-0.71,1.7-1.69,3.15-2.95,4.36c-1.26,1.21-2.76,2.14-4.49,2.8
			c-1.74,0.66-3.62,0.99-5.64,0.99c-2.03,0-3.9-0.33-5.63-0.99c-1.72-0.66-3.21-1.59-4.47-2.8c-1.26-1.21-2.24-2.66-2.95-4.36
			c-0.71-1.7-1.06-3.57-1.06-5.63c0-2.08,0.35-3.95,1.06-5.63c0.71-1.67,1.69-3.1,2.95-4.27c1.26-1.17,2.75-2.08,4.47-2.71
			c1.72-0.64,3.6-0.95,5.63-0.95c2.03,0,3.91,0.32,5.64,0.95c1.73,0.64,3.23,1.54,4.49,2.71c1.26,1.17,2.24,2.6,2.95,4.27
			C440.15,109.72,440.51,111.6,440.51,113.67z M433.8,113.67c0-1.12-0.18-2.17-0.55-3.15c-0.37-0.98-0.87-1.81-1.52-2.51
			c-0.65-0.7-1.43-1.25-2.35-1.65c-0.92-0.4-1.92-0.6-3.02-0.6c-1.1,0-2.1,0.2-3.01,0.6c-0.9,0.4-1.69,0.95-2.35,1.65
			c-0.66,0.7-1.17,1.53-1.52,2.51c-0.35,0.98-0.53,2.03-0.53,3.15c0,1.17,0.18,2.25,0.55,3.24c0.37,0.99,0.87,1.84,1.52,2.55
			c0.65,0.71,1.42,1.26,2.33,1.67c0.9,0.4,1.91,0.6,3.01,0.6c1.1,0,2.1-0.2,3.01-0.6s1.69-0.96,2.35-1.67
			c0.66-0.71,1.17-1.56,1.54-2.55C433.62,115.93,433.8,114.84,433.8,113.67z"/>
		<path d="M456.85,126.76l-5.63-10.3h-2.14v10.3h-6.12v-25.95h9.9c1.25,0,2.46,0.13,3.65,0.38c1.19,0.26,2.25,0.69,3.19,1.3
			c0.94,0.61,1.69,1.42,2.25,2.42c0.56,1,0.84,2.25,0.84,3.74c0,1.76-0.48,3.24-1.43,4.44c-0.95,1.2-2.27,2.05-3.96,2.57l6.78,11.11
			H456.85z M456.6,108.76c0-0.61-0.13-1.11-0.39-1.48c-0.26-0.38-0.59-0.67-0.99-0.88c-0.41-0.21-0.86-0.35-1.36-0.42
			c-0.5-0.07-0.99-0.11-1.45-0.11h-3.35v6.05h2.98c0.52,0,1.04-0.04,1.58-0.13c0.54-0.09,1.03-0.24,1.47-0.46
			c0.44-0.22,0.8-0.54,1.09-0.95C456.46,109.96,456.6,109.42,456.6,108.76z"/>
		<path d="M478.22,106.16v20.6h-6.27v-20.6h-7.33v-5.35h20.93v5.35H478.22z"/>
	</g>
	<g>
		<g>
			<defs>
				<rect id="SVGID_1_" x="11.39" y="30.62" width="122.13" height="122.13"/>
			</defs>
			<clipPath id="SVGID_00000047029147034899048090000005165199197796806534_">
				<use xlink:href="#SVGID_1_"  style="overflow:visible;"/>
			</clipPath>
			<g style="clip-path:url(#SVGID_00000047029147034899048090000005165199197796806534_);">
				<defs>
					<rect id="SVGID_00000157265982227088493400000004713201274679243181_" x="11.39" y="30.62" width="122.13" height="122.13"/>
				</defs>
				<clipPath id="SVGID_00000170276956455239622850000014203276321002771857_">
					<use xlink:href="#SVGID_00000157265982227088493400000004713201274679243181_"  style="overflow:visible;"/>
				</clipPath>
				<path style="clip-path:url(#SVGID_00000170276956455239622850000014203276321002771857_);fill:#FFFFFF;" d="M89.31,32.98
					c25.52,7.32,44.21,30.83,44.21,58.71c0,30.87-22.9,56.38-52.64,60.49v-0.01v-34.81c3.1-1.02,5.94-2.57,8.43-4.57v9.89v9.16v8.96
					c20.39-6.99,35.05-26.34,35.05-49.1c0-22.77-14.66-42.11-35.05-49.11V32.98z"/>
				<path style="clip-path:url(#SVGID_00000170276956455239622850000014203276321002771857_);" d="M89.31,42.58
					c20.39,7,35.05,26.34,35.05,49.11c0,22.76-14.66,42.11-35.05,49.1v-8.96c15.67-6.59,26.67-22.08,26.67-40.14
					c0-18.06-11-33.56-26.67-40.14V42.58z"/>
				<path style="clip-path:url(#SVGID_00000170276956455239622850000014203276321002771857_);fill:#CF3339;" d="M89.31,51.55
					c15.67,6.59,26.67,22.08,26.67,40.14c0,18.06-11,33.55-26.67,40.14v-9.16c10.97-5.98,18.41-17.61,18.41-30.98
					c0-13.37-7.44-25.01-18.41-30.99V51.55z"/>
				<path style="clip-path:url(#SVGID_00000170276956455239622850000014203276321002771857_);fill:#FFD100;" d="M89.31,60.7
					c10.97,5.98,18.41,17.62,18.41,30.99c0,13.37-7.44,25-18.41,30.98v-9.89c6.18-4.95,10.15-12.56,10.15-21.09
					c0-11.97-7.79-22.12-18.57-25.66v0V31.2c2.88,0.4,5.69,0.99,8.43,1.78v9.6v8.96V60.7z"/>
				<path style="clip-path:url(#SVGID_00000170276956455239622850000014203276321002771857_);fill:#FFFFFF;" d="M64.03,117.35
					c-3.09-1.01-5.94-2.57-8.43-4.57c-6.18-4.95-10.14-12.56-10.14-21.09c0-11.97,7.79-22.12,18.57-25.66
					c2.65-0.87,5.48-1.34,8.43-1.34c2.94,0,5.77,0.47,8.43,1.34c10.78,3.54,18.57,13.69,18.57,25.66c0,8.53-3.96,16.14-10.15,21.09
					c-2.49,2-5.33,3.55-8.43,4.57c-2.65,0.87-5.48,1.34-8.43,1.34C69.51,118.69,66.68,118.22,64.03,117.35"/>
				<path style="clip-path:url(#SVGID_00000170276956455239622850000014203276321002771857_);" d="M80.88,152.16v0.01
					c-2.75,0.38-5.57,0.58-8.43,0.58v-0.01v-34.05c2.94,0,5.77-0.47,8.43-1.34V152.16z"/>
				<path style="clip-path:url(#SVGID_00000170276956455239622850000014203276321002771857_);fill:#CF3339;" d="M80.88,66.03
					L80.88,66.03c-2.65-0.87-5.48-1.34-8.43-1.34V30.62c2.86,0,5.67,0.2,8.43,0.58V66.03z"/>
				<path style="clip-path:url(#SVGID_00000170276956455239622850000014203276321002771857_);fill:#CF3339;" d="M72.46,152.74v0.01
					c-2.86,0-5.67-0.2-8.43-0.58v-0.01v-34.82c2.65,0.87,5.48,1.34,8.43,1.34V152.74z"/>
				<path style="clip-path:url(#SVGID_00000170276956455239622850000014203276321002771857_);" d="M72.46,30.62v34.07
					c-2.94,0-5.77,0.47-8.43,1.34l0-0.01V31.2C66.78,30.82,69.6,30.62,72.46,30.62"/>
				<path style="clip-path:url(#SVGID_00000170276956455239622850000014203276321002771857_);fill:#FFFFFF;" d="M64.03,66.03
					L64.03,66.03c-10.78,3.54-18.57,13.69-18.57,25.66c0,8.53,3.96,16.14,10.14,21.09v9.89c-10.97-5.98-18.41-17.61-18.41-30.98
					c0-13.37,7.44-25.01,18.41-30.99v-9.16v-8.96v-9.57l-0.01-0.03c2.74-0.79,5.55-1.39,8.43-1.78V66.03z"/>
				<path style="clip-path:url(#SVGID_00000170276956455239622850000014203276321002771857_);fill:#FFD100;" d="M64.03,152.16v0.01
					c-29.73-4.11-52.64-29.62-52.64-60.49c0-27.87,18.68-51.39,44.2-58.71l0.01,0.03v9.57c-20.39,7-35.05,26.34-35.05,49.11
					c0,22.77,14.66,42.11,35.05,49.1v-8.96v-9.16v-9.89c2.49,1.99,5.33,3.55,8.43,4.57V152.16z"/>
				<path style="clip-path:url(#SVGID_00000170276956455239622850000014203276321002771857_);fill:#CF3339;" d="M55.6,131.83v8.96
					c-20.39-6.99-35.05-26.33-35.05-49.1c0-22.77,14.66-42.11,35.05-49.11v8.96c-15.67,6.59-26.67,22.08-26.67,40.14
					C28.93,109.75,39.93,125.24,55.6,131.83"/>
				<path style="clip-path:url(#SVGID_00000170276956455239622850000014203276321002771857_);" d="M55.6,122.67v9.16
					c-15.67-6.59-26.67-22.08-26.67-40.14c0-18.06,11-33.56,26.67-40.14v9.16c-10.97,5.98-18.41,17.62-18.41,30.99
					C37.19,105.06,44.63,116.69,55.6,122.67"/>
			</g>
		</g>
		<path class="st5" d="M133.52,91.69c0,33.72-27.34,61.06-61.07,61.06c-33.73,0-61.06-27.34-61.06-61.06
			c0-33.73,27.34-61.07,61.06-61.07C106.18,30.62,133.52,57.96,133.52,91.69z"/>
		<path class="st5" d="M99.46,91.69c0,14.91-12.09,27-27,27c-14.91,0-27-12.09-27-27c0-14.91,12.09-27,27-27
			C87.37,64.68,99.46,76.77,99.46,91.69z"/>
		<path d="M54.86,80.15c0.14-0.09-0.56-0.22-0.38-0.28c0.19-0.04,1.25-0.03,1.41-0.06c1.42-0.28,2.19-0.51,2.81-0.61
			c0.69-0.12,2.08-0.23,2.08-0.23s1.5-1.04,2.89,0.11c1.38,1.16,1.38,0.12,1.38,0.12s2.2-1.16,3.47-0.12
			c1.27,1.04,1.62,0.46,1.62,0.46s1.97-1.74,3.7-0.23c1.74,1.5,1.39,0.46,1.39,0.46s1.97-1.97,4.05-0.81
			c2.08,1.16,0.93,0.46,0.93,0.46l0.35,0.58c0,0,0.58-2.2,3.7-0.81c0.78,0.35,0.81,0.35,0.81,0.35s2.43-0.69,6.02,1.27
			c3.59,1.97-0.81,0.11-0.81,0.11l2.09,2.43c0,0-2.78-1.39-0.58,0.69c2.2,2.08,2.31,3.01,2.31,3.01s-1.85-1.62-0.58,0.93
			c1.27,2.55-0.11,0.81-0.11,0.81s-0.58,0.23,0.23,1.85c0.81,1.62-0.12,1.39-0.12,1.39s-1.51-2.43-0.81-0.93
			c0.7,1.5,1.67,2.64,1.62,2.66c-0.05,0.02-0.83-0.27-0.92-0.23c-0.07,0.03-0.07,0.38-0.02,0.84c0.06,0.52,0.21,1.19,0.25,1.47
			c0.05,0.34-0.16-0.38-0.39-0.91c-0.35-0.82-0.94-1.67-1-0.82l-0.12,1.5c0,0-1.74-3.56-1.39-1.85c0.28,1.33,0.2,1.29,0.2,1.29
			s-1.36-3.14-1.48-0.01c-0.11,3.12-0.81-3.47-1.16-1.27c-0.35,2.2-2.43-2.89-2.66-0.12c-0.23,2.78-0.46,0.93-0.46,0.93l-0.81-0.93
			l-1.74-0.35l-0.92,1.73l-0.7-1.97c0,0-0.69,0.35-0.58,1.39c0.12,1.04,0.23,1.62,0.23,1.62l-0.81-0.81l-0.23-1.39
			c0,0-0.46-1.27-0.57,0.35l-0.12,1.62l-2.08-2.08c0,0-0.23,0.58-0.35,1.5c-0.12,0.92-0.47-1.27-1.39-1.85
			c-0.93-0.58-0.52,1.85-0.58,2.55c-0.07,0.82-0.35-2.55-0.92-3.12c-0.58-0.58-0.35,1.04-0.23,1.5c0.11,0.46-0.58-0.69-0.93-1.16
			c-0.34-0.46-0.12,1.62-0.23,1.97c-0.11,0.35-0.81-1.73-0.81-1.73s-0.93-0.69-0.81,1.85c0.12,2.55-1.04-1.39-1.04-1.39
			s-0.31-1.81-0.69,1.16c-0.13,0.97-0.46-1.16-0.46-1.16s-0.93,1.85-1.51,1.5c0,0,0.46-1.62-0.23-2.2
			c-0.69-0.58-0.35,1.62-0.35,1.62l-0.46-1.04c0,0-0.46,1.85-0.46,2.2c0,0.35-1.16-2.89-1.5-2.89c-0.34,0-0.58,1.97-0.58,1.97
			l-1.51-1.5c0,0-1.63-0.42-2.08,1.39c-0.12,0.46-0.92-0.58-0.92-0.58l-1.5,0.12c0,0-1.02,0.7-1.16,1.62
			c-0.08,0.54-0.54-1.01,0.12-1.74c0.99-1.1-0.58-1.49-1.43,0c-0.16,0.27-0.54-1.04-0.54-1.04s-1.31,1.62-1.51,2.78
			c-0.14,0.88,0.12-3.36,0.12-3.36s-0.64-0.32-1.5,0.62c-0.46,0.5-1.39,1.66-1.39,1.66s0.28-2.46,2.43-3.2
			c1.24-0.43-0.66-1.89-1.35-1.2c-0.69,0.69-2,1.31-2,1.31s2.2-3.24,2.66-3.82c0.46-0.58,3.24-2.89,3.24-2.89s-2.32-0.23-3.01,0.69
			c-0.38,0.51-0.94,1.33-1.37,1.75c-0.34,0.34-0.6,0.33-0.6,0.33s0.47-1.54,1.78-2.88c0.75-0.77,1.94-1.32,3.08-1.87
			c3.12-1.51-1.02,0.05-1.55,0.2c-0.53,0.15,1.51-1.58,1.51-1.58s-1.03-0.45-2.42,1.06c-0.74,0.8-0.37-0.17,0.37-1.03
			c0.64-0.76,1.61-1.39,1.61-1.39S54.58,80.32,54.86,80.15"/>
		<rect x="59.4" y="76.77" class="st6" width="1.5" height="8.56"/>
		<rect x="59.4" y="76.77" class="st7" width="1.5" height="8.56"/>
		<rect x="64.26" y="76.77" class="st6" width="1.5" height="8.56"/>
		<rect x="64.26" y="76.77" class="st7" width="1.5" height="8.56"/>
		<rect x="69.11" y="76.77" class="st6" width="1.5" height="8.56"/>
		<rect x="69.11" y="76.77" class="st7" width="1.5" height="8.56"/>
		<rect x="73.98" y="76.77" class="st6" width="1.51" height="8.56"/>
		<rect x="73.98" y="76.77" class="st7" width="1.51" height="8.56"/>
		<rect x="78.84" y="76.77" class="st6" width="1.5" height="8.56"/>
		<rect x="78.84" y="76.77" class="st7" width="1.5" height="8.56"/>
		<rect x="83.69" y="76.77" class="st6" width="1.5" height="8.56"/>
		<rect x="83.69" y="76.77" class="st7" width="1.5" height="8.56"/>
		<rect x="64.31" y="97.45" width="16.14" height="1.3"/>
		<path d="M53.84,102.41c0,0,2.97-0.67,3.24-0.31c0.18,0.24,1.24,0.44,1.35,0.31c0.23-0.31,1.58-0.15,1.58-0.15s0.69-0.31,1.39-0.16
			c0.69,0.16,2.55,0.16,2.55,0.16l1.62-0.16h0.93h11.72l1.31,0.31l3.01-0.15l1.54,0.23l1.31-0.23c0,0,1.31,0.15,1.62,0.31
			c0.31,0.15,1.47,0.08,1.47,0.08s2.16-0.31,2.39,0c0.23,0.31-0.23,0.23-0.23,0.23l-3.16,0.23c0,0-1.62-0.31-1.62-0.08
			s0.54,0.62,0.54,0.62s-2.16-0.15-2.31,0.39c-0.16,0.54-1.85,0-2.16,0.31c-0.31,0.31-2.24,1.08-3.09,0.85
			c-0.85-0.23-1.23,0.54-0.61,0.77c0.61,0.23,1.47,0.08,1.47,0.08s-2.93,0.69-3.86,0.31c-0.92-0.39-3.24-1.16-3.85-0.46
			c-0.62,0.69-3.62,0.85-4.4,0.62c-0.77-0.23,0.7-0.54-0.77-0.54c-1.47,0-3.55-0.46-3.55-0.46s-0.39-1.08-1.77-0.46
			c-1.39,0.62-1.85,0.16-1.85,0.16s-0.69-0.46-1.08-0.39c-0.39,0.08-1.85-0.16-2.08-0.31c-0.23-0.15-0.08-0.62,0.54-0.46
			c0.62,0.15,1.46,0.15,1.77-0.15c0.31-0.31,0.31-0.77-0.16-0.69c-0.46,0.07-2.32-0.23-2.54-0.31
			C55.85,102.8,53.84,102.41,53.84,102.41"/>
		<path d="M84.77,104.65c0,0,1.54,0.15,1.77-0.08c0.23-0.23-0.62-0.31-0.85-0.31c-0.23,0-0.69-0.16-0.85,0.16"/>
		<path d="M87.93,103.73c0,0,0.85,0,0.77-0.23c-0.08-0.23-0.85-0.38-0.92-0.08C87.7,103.73,87.93,103.73,87.93,103.73"/>
		<path d="M52.99,84.98c0,0-0.93,2.7-0.93,3.32c0,0.62,0.69-0.46,0.69-0.46s1-2.78,1.23-3.01"/>
		<path d="M51.76,89.84L51.3,93l0.77-0.31c0,0,0.38-2.55,0.69-2.78"/>
		<polygon points="56.97,92.62 56.97,102.57 57.31,102.68 57.31,92.73 		"/>
		<rect x="58.35" y="93.43" width="0.69" height="9.49"/>
		<path d="M57.26,99.1c0,0,0.43,0.14,0.63,0.32c0.2,0.18,0.61,0.77,0.61,0.77v-6.77h-1.63"/>
		<polyline points="62.52,102.68 62.52,93.2 60.09,93.2 60.09,102.68 		"/>
		<path class="st6" d="M60.67,102.34v-1.27c0,0,0.57-1.43,1.04,0.12c0.3,0.98,0.1,1.23,0.1,1.23L60.67,102.34z"/>
		<polyline points="65.81,98.55 65.33,102.66 65.95,102.69 66.32,102.47 67.28,98.48 		"/>
		<polyline points="77.48,98.44 78.44,103.21 79.48,103.18 78.92,98.55 		"/>
		<polygon points="82.38,93.24 82.38,103.11 84.46,103.26 84.62,93.31 83.77,92.08 		"/>
		<polygon points="85.54,91.92 85.62,102.8 87.93,102.95 87.93,93.16 		"/>
		<path class="st6" d="M83,99.1c0,0,0.92,0.15,0.92,0.69v2.08c0,0-0.15,0.77-0.46,0.39c-0.31-0.39-0.62-0.7-0.62-0.7L83,99.1z"/>
		<path class="st6" d="M86.08,100.64c0,0,0.16-1.01,0.54-0.39c0.39,0.62,0.54,0.39,0.54,1.08c0,0.69-0.15,1.24-0.15,1.24l-0.93-0.31
			V100.64z"/>
	</g>
	<polygon points="154.64,56.23 163.46,56.23 170.46,74.66 177.87,56.23 186.79,56.23 192,90.71 183.04,90.71 180.52,70.86 
		180.43,70.86 172.15,90.71 168.59,90.71 160.67,70.86 160.58,70.86 157.7,90.71 148.78,90.71 	"/>
	<rect x="200.14" y="56.23" width="8.96" height="34.48"/>
	<path d="M243.27,67.8c-1.83-2.47-4.8-3.8-7.87-3.8c-5.49,0-9.19,4.21-9.19,9.56c0,5.44,3.75,9.38,9.33,9.38
		c2.93,0,5.85-1.42,7.73-3.66v10.75c-2.97,0.91-5.12,1.6-7.91,1.6c-4.8,0-9.37-1.83-12.94-5.08c-3.8-3.43-5.53-7.91-5.53-13.03
		c0-4.71,1.78-9.24,5.08-12.62c3.38-3.48,8.28-5.58,13.13-5.58c2.88,0,5.53,0.64,8.19,1.74V67.8z"/>
	<path d="M278.25,67.8c-1.83-2.47-4.8-3.8-7.87-3.8c-5.49,0-9.19,4.21-9.19,9.56c0,5.44,3.75,9.38,9.33,9.38
		c2.93,0,5.85-1.42,7.73-3.66v10.75c-2.97,0.91-5.12,1.6-7.91,1.6c-4.8,0-9.37-1.83-12.94-5.08c-3.8-3.43-5.53-7.91-5.53-13.03
		c0-4.71,1.78-9.24,5.08-12.62c3.38-3.48,8.28-5.58,13.12-5.58c2.88,0,5.54,0.64,8.19,1.74V67.8z"/>
	<path d="M323.39,72.83c0,11.16-8,19.03-19.07,19.03s-19.07-7.87-19.07-19.03c0-10.43,9.15-17.75,19.07-17.75
		C314.24,55.09,323.39,62.4,323.39,72.83 M294.58,72.88c0,5.95,4.39,10.29,9.74,10.29c5.35,0,9.74-4.34,9.74-10.29
		c0-4.76-4.39-9.1-9.74-9.1C298.97,63.78,294.58,68.12,294.58,72.88"/>
	<path d="M349.23,65.1c-1.65-1.37-3.75-2.29-5.95-2.29c-1.64,0-3.84,0.96-3.84,2.88c0,2.01,2.42,2.79,3.98,3.29l2.29,0.69
		c4.8,1.42,8.51,3.84,8.51,9.42c0,3.43-0.82,6.95-3.57,9.29c-2.7,2.29-6.31,3.25-9.79,3.25c-4.34,0-8.6-1.46-12.12-3.93l3.84-7.23
		c2.24,1.97,4.89,3.57,7.96,3.57c2.1,0,4.34-1.05,4.34-3.48c0-2.52-3.52-3.38-5.44-3.93c-5.62-1.6-9.33-3.06-9.33-9.74
		c0-7,4.99-11.57,11.89-11.57c3.48,0,7.73,1.1,10.79,2.84L349.23,65.1z"/>
	<path d="M392.03,56.23v19.39c0,4.44-0.18,8.83-3.61,12.17c-2.88,2.84-7.41,3.84-11.43,3.84c-4.02,0-8.55-1.01-11.43-3.84
		c-3.43-3.34-3.61-7.73-3.61-12.17V56.23h8.96v18.16c0,4.48,0.32,9.38,6.08,9.38c5.76,0,6.08-4.89,6.08-9.38V56.23H392.03z"/>
	<polygon points="419.42,56.23 430.54,56.23 416.82,72.56 431.77,90.71 420.16,90.71 408.59,75.76 408.49,75.76 408.49,90.71 
		399.53,90.71 399.53,56.23 408.49,56.23 408.49,70.45 408.59,70.45 	"/>
	<polygon points="446.13,63.82 446.13,69.58 456.24,69.58 456.24,77.18 446.13,77.18 446.13,83.12 456.79,83.12 456.79,90.71 
		437.17,90.71 437.17,56.23 456.79,56.23 456.79,63.82 	"/>
	<polygon points="474.48,63.82 474.48,69.58 484.59,69.58 484.59,77.18 474.48,77.18 474.48,83.12 485.14,83.12 485.14,90.71 
		465.52,90.71 465.52,56.23 485.14,56.23 485.14,63.82 	"/>
</g>
</svg>
